<svg width="75" height="88" viewBox="0 0 75 88" fill="none" xmlns="http://www.w3.org/2000/svg">
<path d="M4.66797 4.29492L0.078125 6.51172V5.45703L3.42773 3.92383V3.875L0.078125 2.35156V1.28711L4.66797 3.51367V4.29492ZM16.8555 0.28125V7.35156H15.8691L12.2852 2.18555H12.2266V7.35156H11.1523V0.28125H12.1484L15.7324 5.45703H15.8008V0.28125H16.8555ZM17.9688 5.85742C17.9688 4.64648 18.9941 4.33398 19.9512 4.26562C20.3027 4.24121 21.0986 4.19727 21.3477 4.1875L21.3379 3.76758C21.3379 3.17188 20.9766 2.82031 20.2637 2.82031C19.6484 2.82031 19.2773 3.10352 19.1699 3.49414H18.1348C18.2324 2.61523 19.0527 1.98047 20.3027 1.98047C21.1426 1.98047 22.3828 2.29297 22.3828 3.82617V7.35156H21.3672V6.62891H21.3281C21.123 7.0293 20.6348 7.46875 19.7559 7.46875C18.75 7.46875 17.9688 6.89258 17.9688 5.85742ZM18.9844 5.86719C18.9844 6.375 19.4043 6.63867 19.9902 6.63867C20.8398 6.63867 21.3477 6.07227 21.3477 5.4375V4.94922L20.0977 5.03711C19.4141 5.08594 18.9844 5.33984 18.9844 5.86719ZM23.6426 7.35156V2.04883H24.6484V2.88867H24.707C24.9023 2.32227 25.4297 1.9707 26.0547 1.9707C26.1816 1.9707 26.3867 1.98047 26.4941 1.99023V2.98633C26.4062 2.9668 26.1621 2.92773 25.9473 2.92773C25.2246 2.92773 24.6875 3.42578 24.6875 4.11914V7.35156H23.6426ZM28.3203 4.20703V7.35156H27.2754V2.04883H28.2812V2.91797H28.3398C28.5938 2.35156 29.1113 1.98047 29.9023 1.98047C30.9961 1.98047 31.709 2.66406 31.709 3.98242V7.35156H30.6738V4.10938C30.6738 3.33789 30.2539 2.87891 29.5508 2.87891C28.8379 2.87891 28.3203 3.35742 28.3203 4.20703ZM32.9785 7.35156V2.04883H34.0234V7.35156H32.9785ZM33.5059 1.22852C33.1445 1.22852 32.8418 0.955078 32.8418 0.613281C32.8418 0.271484 33.1445 -0.00195312 33.5059 -0.00195312C33.8574 -0.00195312 34.1602 0.271484 34.1602 0.613281C34.1602 0.955078 33.8574 1.22852 33.5059 1.22852ZM35.0488 5.85742C35.0488 4.64648 36.0742 4.33398 37.0312 4.26562C37.3828 4.24121 38.1787 4.19727 38.4277 4.1875L38.418 3.76758C38.418 3.17188 38.0566 2.82031 37.3438 2.82031C36.7285 2.82031 36.3574 3.10352 36.25 3.49414H35.2148C35.3125 2.61523 36.1328 1.98047 37.3828 1.98047C38.2227 1.98047 39.4629 2.29297 39.4629 3.82617V7.35156H38.4473V6.62891H38.4082C38.2031 7.0293 37.7148 7.46875 36.8359 7.46875C35.8301 7.46875 35.0488 6.89258 35.0488 5.85742ZM36.0645 5.86719C36.0645 6.375 36.4844 6.63867 37.0703 6.63867C37.9199 6.63867 38.4277 6.07227 38.4277 5.4375V4.94922L37.1777 5.03711C36.4941 5.08594 36.0645 5.33984 36.0645 5.86719ZM43.252 7.35156V0.28125H44.3262V6.42383H47.5195V7.35156H43.252ZM48.291 5.85742C48.291 4.64648 49.3164 4.33398 50.2734 4.26562C50.625 4.24121 51.4209 4.19727 51.6699 4.1875L51.6602 3.76758C51.6602 3.17188 51.2988 2.82031 50.5859 2.82031C49.9707 2.82031 49.5996 3.10352 49.4922 3.49414H48.457C48.5547 2.61523 49.375 1.98047 50.625 1.98047C51.4648 1.98047 52.7051 2.29297 52.7051 3.82617V7.35156H51.6895V6.62891H51.6504C51.4453 7.0293 50.957 7.46875 50.0781 7.46875C49.0723 7.46875 48.291 6.89258 48.291 5.85742ZM49.3066 5.86719C49.3066 6.375 49.7266 6.63867 50.3125 6.63867C51.1621 6.63867 51.6699 6.07227 51.6699 5.4375V4.94922L50.4199 5.03711C49.7363 5.08594 49.3066 5.33984 49.3066 5.86719ZM54.0527 7.35156V0.28125H55.0879V2.9082H55.1465C55.3418 2.57617 55.6934 1.98047 56.6699 1.98047C57.9492 1.98047 58.9062 2.98633 58.9062 4.71484C58.9062 6.42383 57.9688 7.45898 56.6797 7.45898C55.7129 7.45898 55.3418 6.87305 55.1465 6.52148H55.0684V7.35156H54.0527ZM55.0684 4.69531C55.0684 5.80859 55.5664 6.57031 56.4453 6.57031C57.3633 6.57031 57.8418 5.75977 57.8418 4.69531C57.8418 3.65039 57.373 2.86914 56.4453 2.86914C55.5566 2.86914 55.0684 3.5918 55.0684 4.69531ZM62.9199 3.49414C62.8223 3.07422 62.4902 2.80078 61.9141 2.80078C61.3184 2.80078 60.8887 3.11328 60.8984 3.51367C60.8887 3.82617 61.1426 4.05078 61.7285 4.1875L62.5684 4.38281C63.5449 4.59766 64.0137 5.06641 64.0234 5.81836C64.0137 6.77539 63.2129 7.45898 61.8555 7.45898C60.5859 7.45898 59.8242 6.89258 59.6973 5.90625H60.7617C60.8496 6.38477 61.2207 6.61914 61.8457 6.61914C62.5195 6.61914 62.9492 6.3457 62.959 5.89648C62.9492 5.55469 62.6953 5.33008 62.1387 5.20312L61.3086 5.02734C60.3516 4.8125 59.8535 4.30469 59.8535 3.57227C59.8535 2.625 60.6738 1.98047 61.9043 1.98047C63.0859 1.98047 63.8184 2.58594 63.9258 3.49414H62.9199ZM68.1641 7.41992C67.7832 7.41992 67.4609 7.10742 67.4707 6.72656C67.4609 6.3457 67.7832 6.0332 68.1641 6.0332C68.5352 6.0332 68.8574 6.3457 68.8574 6.72656C68.8574 7.10742 68.5352 7.41992 68.1641 7.41992ZM70.8008 7.41992C70.4199 7.41992 70.0977 7.10742 70.1074 6.72656C70.0977 6.3457 70.4199 6.0332 70.8008 6.0332C71.1719 6.0332 71.4941 6.3457 71.4941 6.72656C71.4941 7.10742 71.1719 7.41992 70.8008 7.41992ZM73.4375 7.41992C73.0566 7.41992 72.7344 7.10742 72.7441 6.72656C72.7344 6.3457 73.0566 6.0332 73.4375 6.0332C73.8086 6.0332 74.1309 6.3457 74.1309 6.72656C74.1309 7.10742 73.8086 7.41992 73.4375 7.41992ZM4.66797 20.2949L0.078125 22.5117V21.457L3.42773 19.9238V19.875L0.078125 18.3516V17.2871L4.66797 19.5137V20.2949ZM16.8555 16.2812V23.3516H15.8691L12.2852 18.1855H12.2266V23.3516H11.1523V16.2812H12.1484L15.7324 21.457H15.8008V16.2812H16.8555ZM17.9688 21.8574C17.9688 20.6465 18.9941 20.334 19.9512 20.2656C20.3027 20.2412 21.0986 20.1973 21.3477 20.1875L21.3379 19.7676C21.3379 19.1719 20.9766 18.8203 20.2637 18.8203C19.6484 18.8203 19.2773 19.1035 19.1699 19.4941H18.1348C18.2324 18.6152 19.0527 17.9805 20.3027 17.9805C21.1426 17.9805 22.3828 18.293 22.3828 19.8262V23.3516H21.3672V22.6289H21.3281C21.123 23.0293 20.6348 23.4688 19.7559 23.4688C18.75 23.4688 17.9688 22.8926 17.9688 21.8574ZM18.9844 21.8672C18.9844 22.375 19.4043 22.6387 19.9902 22.6387C20.8398 22.6387 21.3477 22.0723 21.3477 21.4375V20.9492L20.0977 21.0371C19.4141 21.0859 18.9844 21.3398 18.9844 21.8672ZM23.6426 23.3516V18.0488H24.6484V18.8887H24.707C24.9023 18.3223 25.4297 17.9707 26.0547 17.9707C26.1816 17.9707 26.3867 17.9805 26.4941 17.9902V18.9863C26.4062 18.9668 26.1621 18.9277 25.9473 18.9277C25.2246 18.9277 24.6875 19.4258 24.6875 20.1191V23.3516H23.6426ZM28.3203 20.207V23.3516H27.2754V18.0488H28.2812V18.918H28.3398C28.5938 18.3516 29.1113 17.9805 29.9023 17.9805C30.9961 17.9805 31.709 18.6641 31.709 19.9824V23.3516H30.6738V20.1094C30.6738 19.3379 30.2539 18.8789 29.5508 18.8789C28.8379 18.8789 28.3203 19.3574 28.3203 20.207ZM32.9785 23.3516V18.0488H34.0234V23.3516H32.9785ZM33.5059 17.2285C33.1445 17.2285 32.8418 16.9551 32.8418 16.6133C32.8418 16.2715 33.1445 15.998 33.5059 15.998C33.8574 15.998 34.1602 16.2715 34.1602 16.6133C34.1602 16.9551 33.8574 17.2285 33.5059 17.2285ZM35.0488 21.8574C35.0488 20.6465 36.0742 20.334 37.0312 20.2656C37.3828 20.2412 38.1787 20.1973 38.4277 20.1875L38.418 19.7676C38.418 19.1719 38.0566 18.8203 37.3438 18.8203C36.7285 18.8203 36.3574 19.1035 36.25 19.4941H35.2148C35.3125 18.6152 36.1328 17.9805 37.3828 17.9805C38.2227 17.9805 39.4629 18.293 39.4629 19.8262V23.3516H38.4473V22.6289H38.4082C38.2031 23.0293 37.7148 23.4688 36.8359 23.4688C35.8301 23.4688 35.0488 22.8926 35.0488 21.8574ZM36.0645 21.8672C36.0645 22.375 36.4844 22.6387 37.0703 22.6387C37.9199 22.6387 38.4277 22.0723 38.4277 21.4375V20.9492L37.1777 21.0371C36.4941 21.0859 36.0645 21.3398 36.0645 21.8672ZM43.8477 23.4199C43.4668 23.4199 43.1445 23.1074 43.1543 22.7266C43.1445 22.3457 43.4668 22.0332 43.8477 22.0332C44.2188 22.0332 44.541 22.3457 44.541 22.7266C44.541 23.1074 44.2188 23.4199 43.8477 23.4199ZM46.4844 23.4199C46.1035 23.4199 45.7812 23.1074 45.791 22.7266C45.7812 22.3457 46.1035 22.0332 46.4844 22.0332C46.8555 22.0332 47.1777 22.3457 47.1777 22.7266C47.1777 23.1074 46.8555 23.4199 46.4844 23.4199ZM49.1211 23.4199C48.7402 23.4199 48.418 23.1074 48.4277 22.7266C48.418 22.3457 48.7402 22.0332 49.1211 22.0332C49.4922 22.0332 49.8145 22.3457 49.8145 22.7266C49.8145 23.1074 49.4922 23.4199 49.1211 23.4199ZM4.66797 36.2949L0.078125 38.5117V37.457L3.42773 35.9238V35.875L0.078125 34.3516V33.2871L4.66797 35.5137V36.2949ZM15 34.1465C14.9316 33.4922 14.3555 33.1113 13.5449 33.1113C12.6758 33.1113 12.1289 33.5508 12.1289 34.1562C12.1289 34.8301 12.8613 35.084 13.418 35.2207L14.1016 35.4062C15.0098 35.6211 16.1328 36.1191 16.1426 37.3984C16.1328 38.5898 15.1855 39.4688 13.5156 39.4688C11.9336 39.4688 10.9375 38.6777 10.8691 37.3887H11.9434C12.0117 38.1602 12.6855 38.5312 13.5156 38.5312C14.4141 38.5312 15.0684 38.0723 15.0781 37.3789C15.0684 36.7637 14.4922 36.5098 13.7402 36.3145L12.9004 36.0898C11.7676 35.7773 11.0547 35.2012 11.0547 34.2148C11.0547 32.9941 12.1484 32.1836 13.5742 32.1836C15.0098 32.1836 16.0156 33.0039 16.0449 34.1465H15ZM19.4531 39.459C17.9492 39.459 16.9727 38.3652 16.9727 36.7246C16.9727 35.0742 17.9492 33.9805 19.4531 33.9805C20.9473 33.9805 21.9238 35.0742 21.9238 36.7246C21.9238 38.3652 20.9473 39.459 19.4531 39.459ZM19.4531 38.5898C20.4102 38.5898 20.8691 37.7402 20.8691 36.7246C20.8691 35.709 20.4102 34.8398 19.4531 34.8398C18.4766 34.8398 18.0176 35.709 18.0176 36.7246C18.0176 37.7402 18.4766 38.5898 19.4531 38.5898ZM23.9941 32.2812V39.3516H22.9492V32.2812H23.9941ZM28.6328 37.1445V34.0488H29.668V39.3516H28.6523V38.4336H28.5938C28.3496 39 27.8027 39.4199 27.0117 39.4199C25.9863 39.4199 25.2637 38.7363 25.2637 37.418V34.0488H26.3086V37.291C26.3086 38.0137 26.748 38.4727 27.3828 38.4727C27.959 38.4727 28.6328 38.0527 28.6328 37.1445ZM33.418 34.0488V34.8789H32.334V37.7891C32.334 38.3848 32.6367 38.4922 32.9688 38.502C33.1152 38.502 33.3496 38.4824 33.4961 38.4727V39.3809C33.3496 39.4004 33.125 39.4199 32.8418 39.4199C32.0215 39.4199 31.2891 38.9707 31.2988 38.0039V34.8789H30.5176V34.0488H31.2988V32.7793H32.334V34.0488H33.418ZM34.4336 39.3516V34.0488H35.4785V39.3516H34.4336ZM34.9609 33.2285C34.5996 33.2285 34.2969 32.9551 34.2969 32.6133C34.2969 32.2715 34.5996 31.998 34.9609 31.998C35.3125 31.998 35.6152 32.2715 35.6152 32.6133C35.6152 32.9551 35.3125 33.2285 34.9609 33.2285ZM38.9941 39.459C37.4902 39.459 36.5137 38.3652 36.5137 36.7246C36.5137 35.0742 37.4902 33.9805 38.9941 33.9805C40.4883 33.9805 41.4648 35.0742 41.4648 36.7246C41.4648 38.3652 40.4883 39.459 38.9941 39.459ZM38.9941 38.5898C39.9512 38.5898 40.4102 37.7402 40.4102 36.7246C40.4102 35.709 39.9512 34.8398 38.9941 34.8398C38.0176 34.8398 37.5586 35.709 37.5586 36.7246C37.5586 37.7402 38.0176 38.5898 38.9941 38.5898ZM43.5352 36.207V39.3516H42.4902V34.0488H43.4961V34.918H43.5547C43.8086 34.3516 44.3262 33.9805 45.1172 33.9805C46.2109 33.9805 46.9238 34.6641 46.9238 35.9824V39.3516H45.8887V36.1094C45.8887 35.3379 45.4688 34.8789 44.7656 34.8789C44.0527 34.8789 43.5352 35.3574 43.5352 36.207ZM48.877 39.4199C48.4961 39.4199 48.1738 39.1074 48.1836 38.7266C48.1738 38.3457 48.4961 38.0332 48.877 38.0332C49.248 38.0332 49.5703 38.3457 49.5703 38.7266C49.5703 39.1074 49.248 39.4199 48.877 39.4199ZM51.5137 39.4199C51.1328 39.4199 50.8105 39.1074 50.8203 38.7266C50.8105 38.3457 51.1328 38.0332 51.5137 38.0332C51.8848 38.0332 52.207 38.3457 52.207 38.7266C52.207 39.1074 51.8848 39.4199 51.5137 39.4199ZM0 68.2363L0.683594 67.5527L2.43164 69.2617L6.12305 65.5898L6.81641 66.2734L2.43164 70.6484L0 68.2363ZM15.5273 71.3516H13.2324V64.2812H15.5957C17.6758 64.2812 18.9258 65.6094 18.9258 67.8066C18.9258 70.0137 17.6758 71.3516 15.5273 71.3516ZM14.3066 70.4141H15.4688C17.0703 70.4141 17.8613 69.4766 17.8613 67.8066C17.8613 66.1465 17.0703 65.2188 15.5273 65.2188H14.3066V70.4141ZM22.334 71.459C20.7715 71.459 19.8145 70.3848 19.8145 68.7344C19.8145 67.1035 20.791 65.9805 22.2656 65.9805C23.4766 65.9805 24.6191 66.7324 24.6191 68.6465V69.0176H20.8496C20.8789 70.0234 21.4697 70.5996 22.3438 70.5996C22.9395 70.5996 23.3203 70.3457 23.4961 70.0234H24.5508C24.3164 70.8828 23.4961 71.459 22.334 71.459ZM20.8594 68.2363H23.5938C23.5938 67.4258 23.0762 66.8398 22.2754 66.8398C21.4404 66.8398 20.8984 67.4844 20.8594 68.2363ZM28.6328 67.4941C28.5352 67.0742 28.2031 66.8008 27.627 66.8008C27.0312 66.8008 26.6016 67.1133 26.6113 67.5137C26.6016 67.8262 26.8555 68.0508 27.4414 68.1875L28.2812 68.3828C29.2578 68.5977 29.7266 69.0664 29.7363 69.8184C29.7266 70.7754 28.9258 71.459 27.5684 71.459C26.2988 71.459 25.5371 70.8926 25.4102 69.9062H26.4746C26.5625 70.3848 26.9336 70.6191 27.5586 70.6191C28.2324 70.6191 28.6621 70.3457 28.6719 69.8965C28.6621 69.5547 28.4082 69.3301 27.8516 69.2031L27.0215 69.0273C26.0645 68.8125 25.5664 68.3047 25.5664 67.5723C25.5664 66.625 26.3867 65.9805 27.6172 65.9805C28.7988 65.9805 29.5312 66.5859 29.6387 67.4941H28.6328ZM30.752 71.3516V66.0488H31.7969V71.3516H30.752ZM31.2793 65.2285C30.918 65.2285 30.6152 64.9551 30.6152 64.6133C30.6152 64.2715 30.918 63.998 31.2793 63.998C31.6309 63.998 31.9336 64.2715 31.9336 64.6133C31.9336 64.9551 31.6309 65.2285 31.2793 65.2285ZM35.293 73.4512C33.9551 73.4512 33.0762 72.8555 32.9785 71.8691H34.043C34.1406 72.3672 34.6094 72.6113 35.3027 72.6113C36.1328 72.6113 36.6602 72.2598 36.6602 71.4297V70.3848H36.5918C36.4062 70.7266 36.0254 71.2734 35.0488 71.2734C33.7988 71.2734 32.832 70.3359 32.832 68.6465C32.832 66.957 33.7793 65.9805 35.0586 65.9805C36.0449 65.9805 36.4062 66.5762 36.6016 66.9082H36.6699V66.0488H37.6855V71.4688C37.6855 72.8262 36.6602 73.4512 35.293 73.4512ZM35.2832 70.4141C36.1719 70.4141 36.6699 69.7598 36.6699 68.666C36.6699 67.5918 36.1816 66.8691 35.2832 66.8691C34.3555 66.8691 33.8965 67.6504 33.8965 68.666C33.8965 69.7012 34.375 70.4141 35.2832 70.4141ZM40 68.207V71.3516H38.9551V66.0488H39.9609V66.918H40.0195C40.2734 66.3516 40.791 65.9805 41.582 65.9805C42.6758 65.9805 43.3887 66.6641 43.3887 67.9824V71.3516H42.3535V68.1094C42.3535 67.3379 41.9336 66.8789 41.2305 66.8789C40.5176 66.8789 40 67.3574 40 68.207ZM0 84.2363L0.683594 83.5527L2.43164 85.2617L6.12305 81.5898L6.81641 82.2734L2.43164 86.6484L0 84.2363ZM13.2324 87.3516V80.2812H17.666V81.209H14.3066V83.3477H17.4316V84.2656H14.3066V86.4238H17.7051V87.3516H13.2324ZM23.4473 82.0488L21.5234 87.3516H20.4004L18.4766 82.0488H19.5996L20.9375 86.1211H20.9863L22.3242 82.0488H23.4473ZM23.8867 85.8574C23.8867 84.6465 24.9121 84.334 25.8691 84.2656C26.2207 84.2412 27.0166 84.1973 27.2656 84.1875L27.2559 83.7676C27.2559 83.1719 26.8945 82.8203 26.1816 82.8203C25.5664 82.8203 25.1953 83.1035 25.0879 83.4941H24.0527C24.1504 82.6152 24.9707 81.9805 26.2207 81.9805C27.0605 81.9805 28.3008 82.293 28.3008 83.8262V87.3516H27.2852V86.6289H27.2461C27.041 87.0293 26.5527 87.4688 25.6738 87.4688C24.668 87.4688 23.8867 86.8926 23.8867 85.8574ZM24.9023 85.8672C24.9023 86.375 25.3223 86.6387 25.9082 86.6387C26.7578 86.6387 27.2656 86.0723 27.2656 85.4375V84.9492L26.0156 85.0371C25.332 85.0859 24.9023 85.3398 24.9023 85.8672ZM30.6055 80.2812V87.3516H29.5605V80.2812H30.6055ZM35.2441 85.1445V82.0488H36.2793V87.3516H35.2637V86.4336H35.2051C34.9609 87 34.4141 87.4199 33.623 87.4199C32.5977 87.4199 31.875 86.7363 31.875 85.418V82.0488H32.9199V85.291C32.9199 86.0137 33.3594 86.4727 33.9941 86.4727C34.5703 86.4727 35.2441 86.0527 35.2441 85.1445ZM37.3047 85.8574C37.3047 84.6465 38.3301 84.334 39.2871 84.2656C39.6387 84.2412 40.4346 84.1973 40.6836 84.1875L40.6738 83.7676C40.6738 83.1719 40.3125 82.8203 39.5996 82.8203C38.9844 82.8203 38.6133 83.1035 38.5059 83.4941H37.4707C37.5684 82.6152 38.3887 81.9805 39.6387 81.9805C40.4785 81.9805 41.7188 82.293 41.7188 83.8262V87.3516H40.7031V86.6289H40.6641C40.459 87.0293 39.9707 87.4688 39.0918 87.4688C38.0859 87.4688 37.3047 86.8926 37.3047 85.8574ZM38.3203 85.8672C38.3203 86.375 38.7402 86.6387 39.3262 86.6387C40.1758 86.6387 40.6836 86.0723 40.6836 85.4375V84.9492L39.4336 85.0371C38.75 85.0859 38.3203 85.3398 38.3203 85.8672ZM45.459 82.0488V82.8789H44.375V85.7891C44.375 86.3848 44.6777 86.4922 45.0098 86.502C45.1562 86.502 45.3906 86.4824 45.5371 86.4727V87.3809C45.3906 87.4004 45.166 87.4199 44.8828 87.4199C44.0625 87.4199 43.3301 86.9707 43.3398 86.0039V82.8789H42.5586V82.0488H43.3398V80.7793H44.375V82.0488H45.459ZM46.4746 87.3516V82.0488H47.5195V87.3516H46.4746ZM47.002 81.2285C46.6406 81.2285 46.3379 80.9551 46.3379 80.6133C46.3379 80.2715 46.6406 79.998 47.002 79.998C47.3535 79.998 47.6562 80.2715 47.6562 80.6133C47.6562 80.9551 47.3535 81.2285 47.002 81.2285ZM51.0352 87.459C49.5312 87.459 48.5547 86.3652 48.5547 84.7246C48.5547 83.0742 49.5312 81.9805 51.0352 81.9805C52.5293 81.9805 53.5059 83.0742 53.5059 84.7246C53.5059 86.3652 52.5293 87.459 51.0352 87.459ZM51.0352 86.5898C51.9922 86.5898 52.4512 85.7402 52.4512 84.7246C52.4512 83.709 51.9922 82.8398 51.0352 82.8398C50.0586 82.8398 49.5996 83.709 49.5996 84.7246C49.5996 85.7402 50.0586 86.5898 51.0352 86.5898ZM55.5762 84.207V87.3516H54.5312V82.0488H55.5371V82.918H55.5957C55.8496 82.3516 56.3672 81.9805 57.1582 81.9805C58.252 81.9805 58.9648 82.6641 58.9648 83.9824V87.3516H57.9297V84.1094C57.9297 83.3379 57.5098 82.8789 56.8066 82.8789C56.0938 82.8789 55.5762 83.3574 55.5762 84.207Z" fill="#2F2F2F"/>
</svg>
