<svg width="291" height="47" viewBox="0 0 291 47" fill="none" xmlns="http://www.w3.org/2000/svg">
<path d="M1 47H0V0H1V47ZM5 47H4V0H5V47ZM9 47H8V0H9V47ZM13 47H12V0H13V47ZM17 47H16V0H17V47ZM21 47H20V0H21V47ZM25 47H24V0H25V47ZM29 47H28V0H29V47ZM33 47H32V0H33V47ZM37 47H36V0H37V47ZM41 47H40V0H41V47ZM45 47H44V0H45V47ZM49 47H48V0H49V47ZM53 47H52V0H53V47ZM57 47H56V0H57V47ZM61 47H60V0H61V47ZM65 47H64V0H65V47ZM69 47H68V0H69V47ZM73 47H72V0H73V47ZM77 47H76V0H77V47ZM81 47H80V0H81V47ZM85 47H84V0H85V47ZM89 47H88V0H89V47ZM93 47H92V0H93V47ZM97 47H96V0H97V47ZM101 47H100V0H101V47ZM105 47H104V0H105V47ZM109 47H108V0H109V47ZM113 47H112V0H113V47ZM117 47H116V0H117V47ZM121 47H120V0H121V47ZM125 47H124V0H125V47ZM129 47H128V0H129V47ZM133 47H132V0H133V47ZM137 47H136V0H137V47ZM141 47H140V0H141V47ZM145 47H144V0H145V47ZM149 47H148V0H149V47ZM153 47H152V0H153V47ZM157 47H156V0H157V47ZM161 47H160V0H161V47ZM165 47H164V0H165V47ZM169 47H168V0H169V47ZM173 47H172V0H173V47ZM177 47H176V0H177V47ZM181 47H180V0H181V47ZM185 47H184V0H185V47ZM189 47H188V0H189V47ZM193 47H192V0H193V47ZM197 47H196V0H197V47ZM201 47H200V0H201V47ZM205 47H204V0H205V47ZM209 47H208V0H209V47ZM213 47H212V0H213V47ZM217 47H216V0H217V47ZM221 47H220V0H221V47ZM225 47H224V0H225V47ZM229 47H228V0H229V47ZM233 47H232V0H233V47ZM237 47H236V0H237V47ZM241 47H240V0H241V47ZM245 47H244V0H245V47ZM249 47H248V0H249V47ZM253 47H252V0H253V47ZM257 47H256V0H257V47ZM261 47H260V0H261V47ZM265 47H264V0H265V47ZM269 47H268V0H269V47ZM273 47H272V0H273V47ZM277 47H276V0H277V47ZM281 47H280V0H281V47ZM285 47H284V0H285V47Z" fill="url(#paint0_linear_4151_18956)"/>
<path d="M141 47L140 47L140 -4.37114e-08L141 0L141 47Z" fill="#8B4BFF"/>
<rect width="291" height="47" fill="url(#paint1_linear_4151_18956)"/>
<defs>
<linearGradient id="paint0_linear_4151_18956" x1="0" y1="23.5" x2="285" y2="23.5" gradientUnits="userSpaceOnUse">
<stop stop-color="#DCD1F2"/>
<stop offset="1" stop-color="#31224B"/>
</linearGradient>
<linearGradient id="paint1_linear_4151_18956" x1="0" y1="23.5" x2="291" y2="23.5" gradientUnits="userSpaceOnUse">
<stop stop-color="#D9D9D9"/>
<stop offset="1" stop-color="#737373" stop-opacity="0"/>
</linearGradient>
</defs>
</svg>
