<svg width="171" height="38" viewBox="0 0 171 38" fill="none" xmlns="http://www.w3.org/2000/svg">
<path fill-rule="evenodd" clip-rule="evenodd" d="M168.586 31.1484C169.935 31.1484 170.881 31.9198 170.908 32.9941H169.927C169.863 32.3789 169.321 32.0205 168.559 32.0205C167.742 32.0205 167.228 32.4346 167.228 33.0039C167.228 33.6372 167.916 33.8754 168.44 34.0039L169.082 34.1787C169.936 34.3807 170.991 34.8492 171 36.0518C170.991 37.172 170.101 37.9989 168.531 37.999C167.044 37.999 166.107 37.2551 166.043 36.043H167.053C167.117 36.7684 167.751 37.1172 168.531 37.1172C169.376 37.1171 169.991 36.6859 170 36.0342C169.991 35.4557 169.449 35.2169 168.742 35.0332L167.953 34.8213C166.888 34.5274 166.218 33.986 166.218 33.0586C166.218 31.9108 167.246 31.1485 168.586 31.1484ZM7.96784 31.1484C9.27115 31.1484 10.0978 31.9746 10.0889 32.957C10.0981 33.71 9.62917 34.2611 8.91315 34.4355V34.4814C9.82195 34.61 10.3458 35.2167 10.3458 36.0615C10.3457 37.1726 9.3262 37.9805 7.94929 37.9805C6.5726 37.9803 5.59054 37.2368 5.55378 36.1533H6.5821C6.61887 36.741 7.19701 37.1084 7.9405 37.1084C8.73914 37.1084 9.32624 36.6672 9.32624 36.0244C9.3261 35.3725 8.77554 34.8955 7.83015 34.8955H7.26081V34.0684H7.83015C8.58285 34.0684 9.11525 33.6463 9.1153 33.0127C9.1153 32.4067 8.66582 31.9932 7.95905 31.9932C7.28893 31.9932 6.70144 32.3607 6.6739 32.9668H5.70026C5.7278 31.8833 6.72869 31.1485 7.96784 31.1484ZM2.18464 31.1484C3.46976 31.1484 4.35118 31.9565 4.36042 33.04C4.35124 33.7839 4.00242 34.372 2.75397 35.6025L1.40436 36.9707V37.0254H4.47077V37.8887H6.75638e-05V37.1543L2.30378 34.8311C3.02898 34.0689 3.39655 33.6459 3.39655 33.0674C3.39638 32.4156 2.86363 31.9932 2.16608 31.9932C1.43197 31.9934 0.955146 32.462 0.955146 33.1689H6.75638e-05C-0.00911152 31.9569 0.917975 31.1486 2.18464 31.1484ZM15.4952 35.7402H16.4044V36.5938H15.4952V37.8887H14.5411V36.5938H11.3096V35.7764L14.2471 31.2402H15.4952V35.7402ZM116.61 36.1074H116.675V31.2402H117.666V37.8887H116.739L113.37 33.0312H113.315V37.8887H112.305V31.2402H113.241L116.61 36.1074ZM124.468 37.8887H123.395L122.788 36.1348H120.199L119.594 37.8887H118.52L120.906 31.2402H122.072L124.468 37.8887ZM127.682 31.2402C129.224 31.2404 129.985 32.104 129.985 33.3252C129.985 34.2204 129.581 34.8998 128.773 35.1982L130.242 37.8887H129.095L127.745 35.3818H126.322V37.8887H125.313V31.2402H127.682ZM135.41 36.1074H135.475V31.2402H136.466V37.8887H135.539L132.17 33.0312H132.115V37.8887H131.106V31.2402H132.042L135.41 36.1074ZM138.835 37.8887H137.825V31.2402H138.835V37.8887ZM145.628 37.8887H144.554L143.947 36.1348H141.359L140.753 37.8887H139.679L142.065 31.2402H143.232L145.628 37.8887ZM149.776 37.0166H152.778V37.8887H148.767V31.2402H149.776V37.0166ZM159.59 37.8887H158.516L157.91 36.1348H155.321L154.716 37.8887H153.642L156.028 31.2402H157.194L159.59 37.8887ZM162.867 31.2402C164.281 31.2403 164.97 32.0028 164.97 32.9854C164.97 33.8115 164.464 34.2335 163.85 34.3896V34.4541C164.51 34.491 165.226 35.0696 165.227 36.0977C165.227 37.1169 164.529 37.8886 162.978 37.8887H160.435V31.2402H162.867ZM161.444 37.0254H162.886C163.84 37.0253 164.226 36.6027 164.226 36.0518C164.225 35.4183 163.72 34.9043 162.922 34.9043H161.444V37.0254ZM12.3741 35.6846V35.7402H14.5411V32.4434H14.4678L12.3741 35.6846ZM120.493 35.29H122.494L121.513 32.4521H121.467L120.493 35.29ZM141.652 35.29H143.654L142.672 32.4521H142.626L141.652 35.29ZM155.615 35.29H157.616L156.634 32.4521H156.588L155.615 35.29ZM126.322 34.5098H127.58C128.562 34.5098 128.967 34.078 128.967 33.3252C128.967 32.5722 128.562 32.1035 127.58 32.1035H126.322V34.5098ZM161.444 34.1143H162.784C163.454 34.1143 163.978 33.701 163.978 33.0674C163.977 32.5165 163.601 32.1035 162.803 32.1035H161.444V34.1143ZM95.0567 11.166C96.4059 11.1661 97.3514 11.9374 97.379 13.0117H96.3966C96.3322 12.3965 95.7903 12.0381 95.0284 12.0381C94.2117 12.0382 93.6973 12.4522 93.6973 13.0215C93.6977 13.6546 94.3862 13.8929 94.9092 14.0215L95.5518 14.1963C96.4054 14.3983 97.4613 14.8667 97.4708 16.0693C97.4616 17.1897 96.5708 18.0166 95.001 18.0166C93.5141 18.0165 92.578 17.2726 92.5137 16.0605H93.5235C93.5878 16.7859 94.2209 17.1347 95.001 17.1348C95.8454 17.1348 96.4604 16.7036 96.4698 16.0518C96.4606 15.4732 95.9188 15.2344 95.212 15.0508L94.4229 14.8389C93.3582 14.545 92.6876 14.0036 92.6876 13.0762C92.6876 11.9283 93.7165 11.166 95.0567 11.166ZM168.55 11.166C169.899 11.1662 170.845 11.9375 170.872 13.0117H169.89C169.825 12.3965 169.283 12.0381 168.522 12.0381C167.705 12.0382 167.19 12.4522 167.19 13.0215C167.191 13.6547 167.879 13.8929 168.402 14.0215L169.045 14.1963C169.899 14.3983 170.954 14.8667 170.964 16.0693C170.955 17.1897 170.064 18.0166 168.494 18.0166C167.007 18.0165 166.071 17.2727 166.007 16.0605H167.017C167.081 16.786 167.714 17.1347 168.494 17.1348C169.339 17.1348 169.954 16.7036 169.963 16.0518C169.954 15.4732 169.412 15.2344 168.705 15.0508L167.916 14.8389C166.851 14.545 166.181 14.0036 166.181 13.0762C166.181 11.9283 167.21 11.166 168.55 11.166ZM4.30573 16.125H4.36921V11.2578H5.3614V17.9062H4.43366L1.06452 13.0488H1.00983V17.9062H6.75638e-05V11.2578H0.936591L4.30573 16.125ZM12.1632 17.9062H11.0889L10.4835 16.1523H7.8946L7.28913 17.9062H6.21491L8.60163 11.2578H9.76765L12.1632 17.9062ZM15.376 11.2578C16.9182 11.2578 17.6807 12.1214 17.6807 13.3428C17.6806 14.2378 17.2764 14.9174 16.4688 15.2158L17.9376 17.9062H16.7901L15.4405 15.3994H14.0176V17.9062H13.0079V11.2578H15.376ZM23.1055 16.125H23.17V11.2578H24.1612V17.9062H23.2344L19.8653 13.0488H19.8096V17.9062H18.7999V11.2578H19.7364L23.1055 16.125ZM26.5303 17.9062H25.5196V11.2578H26.5303V17.9062ZM33.3223 17.9062H32.2481L31.6426 16.1523H29.0538L28.4483 17.9062H27.3741L29.7608 11.2578H30.9268L33.3223 17.9062ZM43.0801 16.125H43.1446V11.2578H44.1358V17.9062H43.2091L39.8399 13.0488H39.7852V17.9062H38.7755V11.2578H39.712L43.0801 16.125ZM50.9385 17.9062H49.8643L49.2589 16.1523H46.67L46.0645 17.9062H44.9903L47.377 11.2578H48.543L50.9385 17.9062ZM54.1514 11.2578C55.6936 11.2578 56.4551 12.1214 56.4551 13.3428C56.455 14.2378 56.0517 14.9174 55.2442 15.2158L56.713 17.9062H55.5655L54.2159 15.3994H52.793V17.9062H51.7833V11.2578H54.1514ZM61.8809 16.125H61.9454V11.2578H62.9366V17.9062H62.0089L58.6407 13.0488H58.585V17.9062H57.5753V11.2578H58.5118L61.8809 16.125ZM65.3048 17.9062H64.295V11.2578H65.3048V17.9062ZM72.0977 17.9062H71.0235L70.418 16.1523H67.8292L67.2237 17.9062H66.1495L68.5362 11.2578H69.7022L72.0977 17.9062ZM76.2471 17.0342H79.2491V17.9062H75.2374V11.2578H76.2471V17.0342ZM86.0606 17.9062H84.9864L84.38 16.1523H81.7921L81.1856 17.9062H80.1114L82.4981 11.2578H83.6641L86.0606 17.9062ZM89.337 11.2578C90.7507 11.2578 91.4395 12.0203 91.4395 13.0029C91.4394 13.8292 90.9344 14.2511 90.3194 14.4072V14.4717C90.9803 14.5084 91.6962 15.087 91.6964 16.1152C91.6964 17.1346 90.9987 17.9062 89.4473 17.9062H86.9044V11.2578H89.337ZM149.74 17.0342H152.742V17.9062H148.731V11.2578H149.74V17.0342ZM159.554 17.9062H158.48L157.873 16.1523H155.284L154.679 17.9062H153.605L155.991 11.2578H157.157L159.554 17.9062ZM162.83 11.2578C164.244 11.2578 164.933 12.0203 164.933 13.0029C164.933 13.8292 164.428 14.2511 163.813 14.4072V14.4717C164.473 14.5084 165.189 15.087 165.19 16.1152C165.19 17.1346 164.492 17.9062 162.94 17.9062H160.398V11.2578H162.83ZM87.9141 17.043H89.3555C90.3102 17.043 90.6964 16.6203 90.6964 16.0693C90.6961 15.4359 90.191 14.9219 89.3926 14.9219H87.9141V17.043ZM161.407 17.043H162.849C163.803 17.043 164.19 16.6203 164.19 16.0693C164.189 15.436 163.684 14.922 162.886 14.9219H161.407V17.043ZM8.18854 15.3076H10.1895L9.2071 12.4697H9.1612L8.18854 15.3076ZM29.3477 15.3076H31.3487L30.3663 12.4697H30.3204L29.3477 15.3076ZM46.9639 15.3076H48.9649L47.9825 12.4697H47.9366L46.9639 15.3076ZM68.1231 15.3076H70.1241L69.1417 12.4697H69.0958L68.1231 15.3076ZM82.085 15.3076H84.087L83.1046 12.4697H83.0587L82.085 15.3076ZM155.578 15.3076H157.579L156.598 12.4697H156.552L155.578 15.3076ZM14.0176 14.5273H15.2755C16.2573 14.5273 16.6611 14.0955 16.6612 13.3428C16.6612 12.5898 16.2575 12.1212 15.2755 12.1211H14.0176V14.5273ZM52.793 14.5273H54.0508C55.0326 14.5272 55.4365 14.0954 55.4366 13.3428C55.4366 12.5899 55.0328 12.1212 54.0508 12.1211H52.793V14.5273ZM87.9141 14.1318H89.255C89.925 14.1318 90.4483 13.7186 90.4483 13.085C90.4482 12.5342 90.0718 12.1212 89.2735 12.1211H87.9141V14.1318ZM161.407 14.1318H162.748C163.418 14.1317 163.941 13.7185 163.941 13.085C163.941 12.5342 163.565 12.1212 162.767 12.1211H161.407V14.1318ZM87.419 0C88.7683 6.18683e-05 89.7137 0.771376 89.7413 1.8457H88.7589C88.6945 1.23061 88.1534 0.872182 87.3917 0.87207C86.5747 0.87207 86.0606 1.28612 86.0606 1.85547C86.061 2.48854 86.7485 2.72691 87.2716 2.85547L87.9141 3.03027C88.7677 3.23228 89.8236 3.70067 89.8331 4.90332C89.8239 6.02366 88.9331 6.85059 87.3633 6.85059C85.8765 6.85044 84.9403 6.10659 84.876 4.89453H85.8858C85.9501 5.61987 86.5833 5.96862 87.3633 5.96875C88.2077 5.96875 88.8227 5.53756 88.8321 4.88574C88.8229 4.30732 88.2819 4.06841 87.5753 3.88477L86.7852 3.67285C85.7206 3.37898 85.0509 2.83752 85.0508 1.91016C85.0508 0.762268 86.0788 0 87.419 0ZM156.744 0C158.094 0 159.039 0.771337 159.066 1.8457H158.085C158.021 1.23049 157.479 0.872096 156.717 0.87207C155.9 0.87207 155.386 1.28612 155.386 1.85547C155.386 2.48874 156.075 2.72694 156.598 2.85547L157.24 3.03027C158.094 3.23231 159.149 3.70078 159.158 4.90332C159.149 6.02359 158.259 6.85049 156.69 6.85059C155.202 6.85059 154.265 6.1067 154.201 4.89453H155.211C155.275 5.62 155.909 5.96875 156.69 5.96875C157.534 5.96866 158.149 5.53749 158.158 4.88574C158.149 4.30725 157.607 4.06842 156.9 3.88477L156.111 3.67285C155.047 3.379 154.376 2.83761 154.376 1.91016C154.376 0.7623 155.404 4.25763e-05 156.744 0ZM168.54 0C169.889 0 170.835 0.771338 170.862 1.8457H169.881C169.817 1.23047 169.275 0.872072 168.513 0.87207C167.696 0.87207 167.182 1.28612 167.182 1.85547C167.182 2.48874 167.87 2.72694 168.394 2.85547L169.036 3.03027C169.89 3.2323 170.945 3.70075 170.954 4.90332C170.945 6.02361 170.055 6.85051 168.485 6.85059C166.998 6.85059 166.061 6.1067 165.997 4.89453H167.007C167.071 5.62 167.705 5.96875 168.485 5.96875C169.33 5.96868 169.945 5.53751 169.954 4.88574C169.945 4.30723 169.403 4.06843 168.696 3.88477L167.907 3.67285C166.842 3.379 166.172 2.83761 166.172 1.91016C166.172 0.762321 167.2 7.14999e-05 168.54 0ZM35.4434 4.95898H35.5069V0.0917969H36.4991V6.74023H35.5714L32.2022 1.88281H32.1475V6.74023H31.1378V0.0917969H32.0743L35.4434 4.95898ZM43.3008 6.74023H42.2266L41.6212 4.98633H39.0323L38.4268 6.74023H37.3526L39.7393 0.0917969H40.9053L43.3008 6.74023ZM46.5137 0.0917969C48.0559 0.0917969 48.8184 0.955404 48.8184 2.17676C48.8183 3.07184 48.4141 3.75136 47.6065 4.0498L49.0753 6.74023H47.9278L46.5782 4.2334H45.1553V6.74023H44.1456V0.0917969H46.5137ZM54.2432 4.95898H54.3077V0.0917969H55.2989V6.74023H54.3721L51.003 1.88281H50.9473V6.74023H49.9376V0.0917969H50.8741L54.2432 4.95898ZM57.668 6.74023H56.6573V0.0917969H57.668V6.74023ZM64.46 6.74023H63.3858L62.7803 4.98633H60.1915L59.586 6.74023H58.5118L60.8985 0.0917969H62.0645L64.46 6.74023ZM68.6094 5.86816H71.6114V6.74023H67.5997V0.0917969H68.6094V5.86816ZM78.4229 6.74023H77.3487L76.7432 4.98633H74.1544L73.5479 6.74023H72.4747L74.8614 0.0917969H76.0264L78.4229 6.74023ZM81.7003 0.0917969C83.1137 0.0919472 83.8018 0.854418 83.8018 1.83691C83.8017 2.66318 83.2967 3.08512 82.6817 3.24121V3.30566C83.3426 3.34239 84.0585 3.92099 84.0587 4.94922C84.0587 5.96854 83.361 6.74023 81.8096 6.74023H79.2676V0.0917969H81.7003ZM104.769 4.95898H104.833V0.0917969H105.824V6.74023H104.898L101.528 1.88281H101.473V6.74023H100.463V0.0917969H101.399L104.769 4.95898ZM112.626 6.74023H111.553L110.946 4.98633H108.357L107.752 6.74023H106.678L109.065 0.0917969H110.231L112.626 6.74023ZM115.839 0.0917969C117.381 0.0917969 118.144 0.955404 118.144 2.17676C118.144 3.07192 117.739 3.7514 116.932 4.0498L118.4 6.74023H117.253L115.903 4.2334H114.481V6.74023H113.471V0.0917969H115.839ZM123.568 4.95898H123.633V0.0917969H124.624V6.74023H123.697L120.328 1.88281H120.274V6.74023H119.264V0.0917969H120.199L123.568 4.95898ZM126.993 6.74023H125.982V0.0917969H126.993V6.74023ZM133.786 6.74023H132.712L132.106 4.98633H129.518L128.911 6.74023H127.837L130.224 0.0917969H131.39L133.786 6.74023ZM137.935 5.86816H140.937V6.74023H136.925V0.0917969H137.935V5.86816ZM147.748 6.74023H146.674L146.068 4.98633H143.48L142.874 6.74023H141.8L144.187 0.0917969H145.353L147.748 6.74023ZM151.025 0.0917969C152.439 0.0918512 153.127 0.854356 153.127 1.83691C153.127 2.66299 152.623 3.08503 152.008 3.24121V3.30566C152.669 3.34256 153.385 3.92116 153.385 4.94922C153.385 5.96847 152.687 6.74012 151.136 6.74023H148.593V0.0917969H151.025ZM162.821 0.0917969C164.235 0.0918238 164.924 0.854339 164.924 1.83691C164.924 2.66303 164.419 3.08505 163.804 3.24121V3.30566C164.465 3.34252 165.181 3.92112 165.181 4.94922C165.181 5.96848 164.483 6.74015 162.932 6.74023H160.389V0.0917969H162.821ZM80.2774 5.87695H81.7178C82.6725 5.87695 83.0587 5.45431 83.0587 4.90332C83.0584 4.26989 82.5534 3.75587 81.755 3.75586H80.2774V5.87695ZM149.603 5.87695H151.044C151.998 5.87685 152.384 5.45424 152.384 4.90332C152.384 4.26988 151.879 3.75586 151.08 3.75586H149.603V5.87695ZM161.398 5.87695H162.84C163.794 5.87687 164.18 5.45426 164.18 4.90332C164.18 4.26988 163.674 3.75586 162.876 3.75586H161.398V5.87695ZM39.3262 4.1416H41.3272L40.3448 1.30371H40.2989L39.3262 4.1416ZM60.4854 4.1416H62.4864L61.504 1.30371H61.4581L60.4854 4.1416ZM74.4483 4.1416H76.4493L75.4669 1.30371H75.421L74.4483 4.1416ZM108.651 4.1416H110.652L109.671 1.30371H109.625L108.651 4.1416ZM129.811 4.1416H131.813L130.83 1.30371H130.784L129.811 4.1416ZM143.773 4.1416H145.774L144.792 1.30371H144.746L143.773 4.1416ZM45.1553 3.36133H46.4132C47.395 3.36125 47.7988 2.92946 47.7989 2.17676C47.7989 1.42381 47.3952 0.955167 46.4132 0.955078H45.1553V3.36133ZM114.481 3.36133H115.738C116.72 3.36133 117.124 2.92953 117.124 2.17676C117.124 1.42374 116.721 0.955079 115.738 0.955078H114.481V3.36133ZM80.2774 2.96582H81.6173C82.2874 2.96581 82.8106 2.55257 82.8106 1.91895C82.8105 1.36816 82.4342 0.955155 81.6358 0.955078H80.2774V2.96582ZM149.603 2.96582H150.942C151.613 2.96582 152.136 2.55258 152.136 1.91895C152.136 1.3681 151.759 0.955078 150.961 0.955078H149.603V2.96582ZM161.398 2.96582H162.738C163.408 2.96582 163.932 2.55258 163.932 1.91895C163.932 1.3681 163.555 0.955078 162.757 0.955078H161.398V2.96582Z" fill="#A9A9A9"/>
</svg>
