<svg width="187" height="51" viewBox="0 0 187 51" fill="none" xmlns="http://www.w3.org/2000/svg">
<path d="M7.06836 2.22266V10H5.9834L2.04102 4.31738H1.97656V10H0.794922V2.22266H1.89062L5.83301 7.91602H5.9082V2.22266H7.06836ZM9.32422 10H8.06738L10.8604 2.22266H12.2246L15.0283 10H13.7715L13.0625 7.94824H10.0332L9.32422 10ZM10.377 6.95996H12.7188L11.5693 3.64062H11.5156L10.377 6.95996ZM16.0166 10V2.22266H18.7881C20.5928 2.22266 21.4844 3.23242 21.4844 4.66113C21.4844 5.7085 21.0117 6.50342 20.0664 6.85254L21.7852 10H20.4424L18.8633 7.06738H18.7881H17.1982V10H16.0166ZM17.1982 6.04688H18.6699C19.8193 6.04688 20.292 5.54199 20.292 4.66113C20.292 3.78027 19.8193 3.23242 18.6699 3.23242H17.1982V6.04688ZM29.0684 2.22266V10H27.9834L24.041 4.31738H23.9766V10H22.7949V2.22266H23.8906L27.833 7.91602H27.9082V2.22266H29.0684ZM31.8398 2.22266V10H30.6582V2.22266H31.8398ZM34.085 10H32.8281L35.6211 2.22266H36.9854L39.7891 10H38.5322L37.8232 7.94824H34.7939L34.085 10ZM35.1377 6.95996H37.4795L36.3301 3.64062H36.2764L35.1377 6.95996ZM43.4629 10V2.22266H44.6445V8.97949H48.1572V10H43.4629ZM50.4238 10H49.167L51.96 2.22266H53.3242L56.1279 10H54.8711L54.1621 7.94824H51.1328L50.4238 10ZM51.4766 6.95996H53.8184L52.6689 3.64062H52.6152L51.4766 6.95996ZM57.1162 10V2.22266H59.9629C61.6172 2.22266 62.4229 3.11426 62.4229 4.26367C62.4229 5.23047 61.832 5.72461 61.1123 5.90723V5.98242C61.8857 6.02539 62.7236 6.70215 62.7236 7.90527C62.7236 9.09766 61.9072 10 60.0918 10H57.1162ZM59.9844 8.99023C61.1016 8.99023 61.5527 8.49609 61.5527 7.85156C61.5527 7.11035 60.9619 6.50879 60.0273 6.50879H58.2979V8.99023H59.9844ZM59.8662 5.58496C60.6504 5.58496 61.2627 5.10156 61.2627 4.36035C61.2627 3.71582 60.8223 3.23242 59.8877 3.23242H58.2979V5.58496H59.8662ZM68.2236 4.27441C68.1484 3.55469 67.5146 3.13574 66.623 3.13574C65.667 3.13574 65.0654 3.61914 65.0654 4.28516C65.0654 5.02637 65.8711 5.30566 66.4834 5.45605L67.2354 5.66016C68.2344 5.89648 69.4697 6.44434 69.4805 7.85156C69.4697 9.16211 68.4277 10.1289 66.5908 10.1289C64.8506 10.1289 63.7549 9.25879 63.6797 7.84082H64.8613C64.9365 8.68945 65.6777 9.09766 66.5908 9.09766C67.5791 9.09766 68.2988 8.59277 68.3096 7.83008C68.2988 7.15332 67.665 6.87402 66.8379 6.65918L65.9141 6.41211C64.668 6.06836 63.8838 5.43457 63.8838 4.34961C63.8838 3.00684 65.0869 2.11523 66.6553 2.11523C68.2344 2.11523 69.3408 3.01758 69.373 4.27441H68.2236Z" fill="#2F2F2F"/>
<path d="M0.625 49V48.2188L3.07617 45.748C3.84766 44.9375 4.23828 44.4883 4.23828 43.873C4.23828 43.1797 3.67188 42.7305 2.92969 42.7305C2.14844 42.7305 1.64062 43.2285 1.64062 43.9805H0.625C0.615234 42.6914 1.60156 41.832 2.94922 41.832C4.31641 41.832 5.25391 42.6914 5.26367 43.8438C5.25391 44.6348 4.88281 45.2598 3.55469 46.5684L2.11914 48.0234V48.082H5.38086V49H0.625ZM9.08203 49.0977C7.61719 49.0977 6.57227 48.3066 6.5332 47.1543H7.62695C7.66602 47.7793 8.28125 48.1699 9.07227 48.1699C9.92188 48.1699 10.5469 47.7012 10.5469 47.0176C10.5469 46.3242 9.96094 45.8164 8.95508 45.8164H8.34961V44.9375H8.95508C9.75586 44.9375 10.3223 44.4883 10.3223 43.8145C10.3223 43.1699 9.84375 42.7305 9.0918 42.7305C8.37891 42.7305 7.75391 43.1211 7.72461 43.7656H6.68945C6.71875 42.6133 7.7832 41.832 9.10156 41.832C10.4883 41.832 11.3672 42.7109 11.3574 43.7559C11.3672 44.5566 10.8691 45.1426 10.1074 45.3281V45.377C11.0742 45.5137 11.6309 46.1582 11.6309 47.0566C11.6309 48.2383 10.5469 49.0977 9.08203 49.0977ZM12.6562 47.623V46.7539L15.7812 41.9297H17.1094V46.7148H18.0762V47.623H17.1094V49H16.0938V47.623H12.6562ZM13.7891 46.7148H16.0938V43.209H16.0156L13.7891 46.6562V46.7148Z" fill="#2F2F2F"/>
<path d="M6.42578 16.9297V24H5.43945L1.85547 18.834H1.79688V24H0.722656V16.9297H1.71875L5.30273 22.1055H5.37109V16.9297H6.42578ZM8.47656 24H7.33398L9.87305 16.9297H11.1133L13.6621 24H12.5195L11.875 22.1348H9.12109L8.47656 24ZM9.43359 21.2363H11.5625L10.5176 18.2188H10.4688L9.43359 21.2363ZM14.5605 24V16.9297H17.0801C18.7207 16.9297 19.5312 17.8477 19.5312 19.1465C19.5312 20.0986 19.1016 20.8213 18.2422 21.1387L19.8047 24H18.584L17.1484 21.334H17.0801H15.6348V24H14.5605ZM15.6348 20.4062H16.9727C18.0176 20.4062 18.4473 19.9473 18.4473 19.1465C18.4473 18.3457 18.0176 17.8477 16.9727 17.8477H15.6348V20.4062ZM26.4258 16.9297V24H25.4395L21.8555 18.834H21.7969V24H20.7227V16.9297H21.7188L25.3027 22.1055H25.3711V16.9297H26.4258ZM28.9453 16.9297V24H27.8711V16.9297H28.9453ZM30.9863 24H29.8438L32.3828 16.9297H33.623L36.1719 24H35.0293L34.3848 22.1348H31.6309L30.9863 24ZM31.9434 21.2363H34.0723L33.0273 18.2188H32.9785L31.9434 21.2363Z" fill="#2F2F2F"/>
<path d="M129.426 2.92969V10H128.439L124.855 4.83398H124.797V10H123.723V2.92969H124.719L128.303 8.10547H128.371V2.92969H129.426ZM131.477 10H130.334L132.873 2.92969H134.113L136.662 10H135.52L134.875 8.13477H132.121L131.477 10ZM132.434 7.23633H134.562L133.518 4.21875H133.469L132.434 7.23633ZM137.561 10V2.92969H140.08C141.721 2.92969 142.531 3.84766 142.531 5.14648C142.531 6.09863 142.102 6.82129 141.242 7.13867L142.805 10H141.584L140.148 7.33398H140.08H138.635V10H137.561ZM138.635 6.40625H139.973C141.018 6.40625 141.447 5.94727 141.447 5.14648C141.447 4.3457 141.018 3.84766 139.973 3.84766H138.635V6.40625ZM149.426 2.92969V10H148.439L144.855 4.83398H144.797V10H143.723V2.92969H144.719L148.303 8.10547H148.371V2.92969H149.426ZM151.945 2.92969V10H150.871V2.92969H151.945ZM153.986 10H152.844L155.383 2.92969H156.623L159.172 10H158.029L157.385 8.13477H154.631L153.986 10ZM154.943 7.23633H157.072L156.027 4.21875H155.979L154.943 7.23633ZM162.512 10V2.92969H163.586V9.07227H166.779V10H162.512ZM168.84 10H167.697L170.236 2.92969H171.477L174.025 10H172.883L172.238 8.13477H169.484L168.84 10ZM169.797 7.23633H171.926L170.881 4.21875H170.832L169.797 7.23633ZM174.924 10V2.92969H177.512C179.016 2.92969 179.748 3.74023 179.748 4.78516C179.748 5.66406 179.211 6.11328 178.557 6.2793V6.34766C179.26 6.38672 180.021 7.00195 180.021 8.0957C180.021 9.17969 179.279 10 177.629 10H174.924ZM177.531 9.08203C178.547 9.08203 178.957 8.63281 178.957 8.04688C178.957 7.37305 178.42 6.82617 177.57 6.82617H175.998V9.08203H177.531ZM177.424 5.98633C178.137 5.98633 178.693 5.54688 178.693 4.87305C178.693 4.28711 178.293 3.84766 177.443 3.84766H175.998V5.98633H177.424ZM185.021 4.79492C184.953 4.14062 184.377 3.75977 183.566 3.75977C182.697 3.75977 182.15 4.19922 182.15 4.80469C182.15 5.47852 182.883 5.73242 183.439 5.86914L184.123 6.05469C185.031 6.26953 186.154 6.76758 186.164 8.04688C186.154 9.23828 185.207 10.1172 183.537 10.1172C181.955 10.1172 180.959 9.32617 180.891 8.03711H181.965C182.033 8.80859 182.707 9.17969 183.537 9.17969C184.436 9.17969 185.09 8.7207 185.1 8.02734C185.09 7.41211 184.514 7.1582 183.762 6.96289L182.922 6.73828C181.789 6.42578 181.076 5.84961 181.076 4.86328C181.076 3.64258 182.17 2.83203 183.596 2.83203C185.031 2.83203 186.037 3.65234 186.066 4.79492H185.021Z" fill="#2F2F2F"/>
<path d="M72.4258 16.9297V24H71.4395L67.8555 18.834H67.7969V24H66.7227V16.9297H67.7188L71.3027 22.1055H71.3711V16.9297H72.4258ZM74.4766 24H73.334L75.873 16.9297H77.1133L79.6621 24H78.5195L77.875 22.1348H75.1211L74.4766 24ZM75.4336 21.2363H77.5625L76.5176 18.2188H76.4688L75.4336 21.2363ZM80.5605 24V16.9297H83.0801C84.7207 16.9297 85.5312 17.8477 85.5312 19.1465C85.5312 20.0986 85.1016 20.8213 84.2422 21.1387L85.8047 24H84.584L83.1484 21.334H83.0801H81.6348V24H80.5605ZM81.6348 20.4062H82.9727C84.0176 20.4062 84.4473 19.9473 84.4473 19.1465C84.4473 18.3457 84.0176 17.8477 82.9727 17.8477H81.6348V20.4062ZM92.4258 16.9297V24H91.4395L87.8555 18.834H87.7969V24H86.7227V16.9297H87.7188L91.3027 22.1055H91.3711V16.9297H92.4258ZM94.9453 16.9297V24H93.8711V16.9297H94.9453ZM96.9863 24H95.8438L98.3828 16.9297H99.623L102.172 24H101.029L100.385 22.1348H97.6309L96.9863 24ZM97.9434 21.2363H100.072L99.0273 18.2188H98.9785L97.9434 21.2363ZM105.512 24V16.9297H106.586V23.0723H109.779V24H105.512ZM111.84 24H110.697L113.236 16.9297H114.477L117.025 24H115.883L115.238 22.1348H112.484L111.84 24ZM112.797 21.2363H114.926L113.881 18.2188H113.832L112.797 21.2363ZM117.924 24V16.9297H120.512C122.016 16.9297 122.748 17.7402 122.748 18.7852C122.748 19.6641 122.211 20.1133 121.557 20.2793V20.3477C122.26 20.3867 123.021 21.002 123.021 22.0957C123.021 23.1797 122.279 24 120.629 24H117.924ZM120.531 23.082C121.547 23.082 121.957 22.6328 121.957 22.0469C121.957 21.373 121.42 20.8262 120.57 20.8262H118.998V23.082H120.531ZM120.424 19.9863C121.137 19.9863 121.693 19.5469 121.693 18.873C121.693 18.2871 121.293 17.8477 120.443 17.8477H118.998V19.9863H120.424ZM128.021 18.7949C127.953 18.1406 127.377 17.7598 126.566 17.7598C125.697 17.7598 125.15 18.1992 125.15 18.8047C125.15 19.4785 125.883 19.7324 126.439 19.8691L127.123 20.0547C128.031 20.2695 129.154 20.7676 129.164 22.0469C129.154 23.2383 128.207 24.1172 126.537 24.1172C124.955 24.1172 123.959 23.3262 123.891 22.0371H124.965C125.033 22.8086 125.707 23.1797 126.537 23.1797C127.436 23.1797 128.09 22.7207 128.1 22.0273C128.09 21.4121 127.514 21.1582 126.762 20.9629L125.922 20.7383C124.789 20.4258 124.076 19.8496 124.076 18.8633C124.076 17.6426 125.17 16.832 126.596 16.832C128.031 16.832 129.037 17.6523 129.066 18.7949H128.021Z" fill="#2F2F2F"/>
</svg>
