<svg width="293" height="79" viewBox="0 0 293 79" fill="none" xmlns="http://www.w3.org/2000/svg">
<path d="M32.8076 0.126953V9.31836H31.7158L26.7393 2.1582H26.6504V9.31836H25.5078V0.126953H26.6123L31.5889 7.2998H31.6777V0.126953H32.8076Z" fill="#D7CAEE"/>
<path d="M32.8076 0.126953V9.31836H31.7158L26.7393 2.1582H26.6504V9.31836H25.5078V0.126953H26.6123L31.5889 7.2998H31.6777V0.126953H32.8076Z" fill="url(#paint0_linear_4151_18957)"/>
<path d="M35.2451 9.31836H34.0518L37.416 0.126953H38.6221L41.9863 9.31836H40.7803L39.8599 6.72852H36.1655L35.2451 9.31836ZM36.5146 5.72559H39.5107L38.0508 1.6123H37.9746L36.5146 5.72559Z" fill="#D7CAEE"/>
<path d="M35.2451 9.31836H34.0518L37.416 0.126953H38.6221L41.9863 9.31836H40.7803L39.8599 6.72852H36.1655L35.2451 9.31836ZM36.5146 5.72559H39.5107L38.0508 1.6123H37.9746L36.5146 5.72559Z" fill="url(#paint1_linear_4151_18957)"/>
<path d="M43.2305 9.31836V0.126953H46.3535C48.5054 0.126953 49.4893 1.32031 49.4893 2.95801C49.4893 4.17676 48.9434 5.12891 47.7754 5.53516L49.8447 9.31836H48.5117L46.5884 5.74463C46.5186 5.75098 46.4424 5.75098 46.3662 5.75098H44.373V9.31836H43.2305ZM44.373 4.70996H46.3154C47.7817 4.70996 48.353 4.0498 48.3594 2.95801C48.353 1.85986 47.7817 1.14258 46.3027 1.14258H44.373V4.70996Z" fill="#D7CAEE"/>
<path d="M43.2305 9.31836V0.126953H46.3535C48.5054 0.126953 49.4893 1.32031 49.4893 2.95801C49.4893 4.17676 48.9434 5.12891 47.7754 5.53516L49.8447 9.31836H48.5117L46.5884 5.74463C46.5186 5.75098 46.4424 5.75098 46.3662 5.75098H44.373V9.31836H43.2305ZM44.373 4.70996H46.3154C47.7817 4.70996 48.353 4.0498 48.3594 2.95801C48.353 1.85986 47.7817 1.14258 46.3027 1.14258H44.373V4.70996Z" fill="url(#paint2_linear_4151_18957)"/>
<path d="M58.4395 0.126953V9.31836H57.3477L52.3711 2.1582H52.2822V9.31836H51.1396V0.126953H52.2441L57.2207 7.2998H57.3096V0.126953H58.4395Z" fill="#D7CAEE"/>
<path d="M58.4395 0.126953V9.31836H57.3477L52.3711 2.1582H52.2822V9.31836H51.1396V0.126953H52.2441L57.2207 7.2998H57.3096V0.126953H58.4395Z" fill="url(#paint3_linear_4151_18957)"/>
<path d="M61.6133 0.126953V9.31836H60.4707V0.126953H61.6133Z" fill="#D7CAEE"/>
<path d="M61.6133 0.126953V9.31836H60.4707V0.126953H61.6133Z" fill="url(#paint4_linear_4151_18957)"/>
<path d="M64.0508 9.31836H62.8574L66.2217 0.126953H67.4277L70.792 9.31836H69.5859L68.6655 6.72852H64.9712L64.0508 9.31836ZM65.3203 5.72559H68.3164L66.8564 1.6123H66.7803L65.3203 5.72559Z" fill="#D7CAEE"/>
<path d="M64.0508 9.31836H62.8574L66.2217 0.126953H67.4277L70.792 9.31836H69.5859L68.6655 6.72852H64.9712L64.0508 9.31836ZM65.3203 5.72559H68.3164L66.8564 1.6123H66.7803L65.3203 5.72559Z" fill="url(#paint5_linear_4151_18957)"/>
<path d="M75.2988 9.31836V0.126953H76.4414V8.30273H80.707V9.31836H75.2988Z" fill="#D7CAEE"/>
<path d="M75.2988 9.31836V0.126953H76.4414V8.30273H80.707V9.31836H75.2988Z" fill="url(#paint6_linear_4151_18957)"/>
<path d="M83.1953 9.31836H82.002L85.3662 0.126953H86.5723L89.9365 9.31836H88.7305L87.8101 6.72852H84.1157L83.1953 9.31836ZM84.4648 5.72559H87.4609L86.001 1.6123H85.9248L84.4648 5.72559Z" fill="#D7CAEE"/>
<path d="M83.1953 9.31836H82.002L85.3662 0.126953H86.5723L89.9365 9.31836H88.7305L87.8101 6.72852H84.1157L83.1953 9.31836ZM84.4648 5.72559H87.4609L86.001 1.6123H85.9248L84.4648 5.72559Z" fill="url(#paint7_linear_4151_18957)"/>
<path d="M91.1807 9.31836V0.126953H94.4053C96.335 0.126953 97.2427 1.2124 97.2363 2.56445C97.2427 3.74512 96.5381 4.27197 95.7383 4.49414V4.58301C96.5952 4.63379 97.5981 5.4209 97.6045 6.88086C97.5981 8.2583 96.6904 9.31836 94.5195 9.31836H91.1807ZM92.3232 8.30273H94.5068C95.9478 8.30273 96.5063 7.66797 96.5 6.86816C96.5063 5.93506 95.751 5.1416 94.5703 5.1416H92.3232V8.30273ZM92.3232 4.15137H94.3672C95.3638 4.15771 96.1445 3.53564 96.1445 2.57715C96.1445 1.77734 95.605 1.14258 94.4053 1.14258H92.3232V4.15137Z" fill="#D7CAEE"/>
<path d="M91.1807 9.31836V0.126953H94.4053C96.335 0.126953 97.2427 1.2124 97.2363 2.56445C97.2427 3.74512 96.5381 4.27197 95.7383 4.49414V4.58301C96.5952 4.63379 97.5981 5.4209 97.6045 6.88086C97.5981 8.2583 96.6904 9.31836 94.5195 9.31836H91.1807ZM92.3232 8.30273H94.5068C95.9478 8.30273 96.5063 7.66797 96.5 6.86816C96.5063 5.93506 95.751 5.1416 94.5703 5.1416H92.3232V8.30273ZM92.3232 4.15137H94.3672C95.3638 4.15771 96.1445 3.53564 96.1445 2.57715C96.1445 1.77734 95.605 1.14258 94.4053 1.14258H92.3232V4.15137Z" fill="url(#paint8_linear_4151_18957)"/>
<path d="M104.244 2.4375C104.149 1.53613 103.311 1.01562 102.213 1.01562C100.994 1.01562 100.201 1.65039 100.194 2.52637C100.201 3.49121 101.273 3.85303 101.972 4.02441L102.886 4.27832C103.87 4.53223 105.488 5.09717 105.488 6.81738C105.488 8.31543 104.282 9.47705 102.149 9.4834C100.169 9.47705 98.9438 8.45508 98.8359 6.93164H100.004C100.099 7.95996 101.058 8.44873 102.149 8.44238C103.419 8.44873 104.371 7.79492 104.371 6.79199C104.371 5.89697 103.521 5.5542 102.556 5.28125L101.426 4.97656C99.9849 4.55762 99.0835 3.82129 99.0898 2.57715C99.0835 1.02197 100.467 0 102.251 0C104.035 0 105.317 1.04102 105.361 2.4375H104.244Z" fill="#D7CAEE"/>
<path d="M104.244 2.4375C104.149 1.53613 103.311 1.01562 102.213 1.01562C100.994 1.01562 100.201 1.65039 100.194 2.52637C100.201 3.49121 101.273 3.85303 101.972 4.02441L102.886 4.27832C103.87 4.53223 105.488 5.09717 105.488 6.81738C105.488 8.31543 104.282 9.47705 102.149 9.4834C100.169 9.47705 98.9438 8.45508 98.8359 6.93164H100.004C100.099 7.95996 101.058 8.44873 102.149 8.44238C103.419 8.44873 104.371 7.79492 104.371 6.79199C104.371 5.89697 103.521 5.5542 102.556 5.28125L101.426 4.97656C99.9849 4.55762 99.0835 3.82129 99.0898 2.57715C99.0835 1.02197 100.467 0 102.251 0C104.035 0 105.317 1.04102 105.361 2.4375H104.244Z" fill="url(#paint9_linear_4151_18957)"/>
<path d="M0 24.1426V23.127H6.93164V24.1426H4.0498V32.3184H2.89453V24.1426H0Z" fill="#D7CAEE"/>
<path d="M0 24.1426V23.127H6.93164V24.1426H4.0498V32.3184H2.89453V24.1426H0Z" fill="url(#paint10_linear_4151_18957)"/>
<path d="M8.45508 32.3184V23.127H9.59766V27.2148H14.46V23.127H15.6152V32.3184H14.46V28.2178H9.59766V32.3184H8.45508Z" fill="#D7CAEE"/>
<path d="M8.45508 32.3184V23.127H9.59766V27.2148H14.46V23.127H15.6152V32.3184H14.46V28.2178H9.59766V32.3184H8.45508Z" fill="url(#paint11_linear_4151_18957)"/>
<path d="M18.04 32.3184H16.8467L20.2109 23.127H21.417L24.7812 32.3184H23.5752L22.6548 29.7285H18.9604L18.04 32.3184ZM19.3096 28.7256H22.3057L20.8457 24.6123H20.7695L19.3096 28.7256Z" fill="#D7CAEE"/>
<path d="M18.04 32.3184H16.8467L20.2109 23.127H21.417L24.7812 32.3184H23.5752L22.6548 29.7285H18.9604L18.04 32.3184ZM19.3096 28.7256H22.3057L20.8457 24.6123H20.7695L19.3096 28.7256Z" fill="url(#paint12_linear_4151_18957)"/>
<path d="M24.4385 24.1426V23.127H31.3701V24.1426H28.4883V32.3184H27.333V24.1426H24.4385Z" fill="#D7CAEE"/>
<path d="M24.4385 24.1426V23.127H31.3701V24.1426H28.4883V32.3184H27.333V24.1426H24.4385Z" fill="url(#paint13_linear_4151_18957)"/>
<path d="M34 24.1426V23.127H40.9316V24.1426H38.0498V32.3184H36.8945V24.1426H34Z" fill="#D7CAEE"/>
<path d="M34 24.1426V23.127H40.9316V24.1426H38.0498V32.3184H36.8945V24.1426H34Z" fill="url(#paint14_linear_4151_18957)"/>
<path d="M42.4551 32.3184V23.127H45.5781C47.73 23.127 48.7139 24.3203 48.7139 25.958C48.7139 27.1768 48.168 28.1289 47 28.5352L49.0693 32.3184H47.7363L45.813 28.7446C45.7432 28.751 45.667 28.751 45.5908 28.751H43.5977V32.3184H42.4551ZM43.5977 27.71H45.54C47.0063 27.71 47.5776 27.0498 47.584 25.958C47.5776 24.8599 47.0063 24.1426 45.5273 24.1426H43.5977V27.71Z" fill="#D7CAEE"/>
<path d="M42.4551 32.3184V23.127H45.5781C47.73 23.127 48.7139 24.3203 48.7139 25.958C48.7139 27.1768 48.168 28.1289 47 28.5352L49.0693 32.3184H47.7363L45.813 28.7446C45.7432 28.751 45.667 28.751 45.5908 28.751H43.5977V32.3184H42.4551ZM43.5977 27.71H45.54C47.0063 27.71 47.5776 27.0498 47.584 25.958C47.5776 24.8599 47.0063 24.1426 45.5273 24.1426H43.5977V27.71Z" fill="url(#paint15_linear_4151_18957)"/>
<path d="M50.7705 32.3184H49.5771L52.9414 23.127H54.1475L57.5117 32.3184H56.3057L55.3853 29.7285H51.6909L50.7705 32.3184ZM52.04 28.7256H55.0361L53.5762 24.6123H53.5L52.04 28.7256Z" fill="#D7CAEE"/>
<path d="M50.7705 32.3184H49.5771L52.9414 23.127H54.1475L57.5117 32.3184H56.3057L55.3853 29.7285H51.6909L50.7705 32.3184ZM52.04 28.7256H55.0361L53.5762 24.6123H53.5L52.04 28.7256Z" fill="url(#paint16_linear_4151_18957)"/>
<path d="M66.0557 23.127V32.3184H64.9639L59.9873 25.1582H59.8984V32.3184H58.7559V23.127H59.8604L64.8369 30.2998H64.9258V23.127H66.0557Z" fill="#D7CAEE"/>
<path d="M66.0557 23.127V32.3184H64.9639L59.9873 25.1582H59.8984V32.3184H58.7559V23.127H59.8604L64.8369 30.2998H64.9258V23.127H66.0557Z" fill="url(#paint17_linear_4151_18957)"/>
<path d="M73.1016 25.4375C73.0063 24.5361 72.1685 24.0156 71.0703 24.0156C69.8516 24.0156 69.0581 24.6504 69.0518 25.5264C69.0581 26.4912 70.1309 26.853 70.8291 27.0244L71.7432 27.2783C72.7271 27.5322 74.3457 28.0972 74.3457 29.8174C74.3457 31.3154 73.1396 32.4771 71.0068 32.4834C69.0264 32.4771 67.8013 31.4551 67.6934 29.9316H68.8613C68.9565 30.96 69.915 31.4487 71.0068 31.4424C72.2764 31.4487 73.2285 30.7949 73.2285 29.792C73.2285 28.897 72.3779 28.5542 71.4131 28.2812L70.2832 27.9766C68.8423 27.5576 67.9409 26.8213 67.9473 25.5771C67.9409 24.022 69.3247 23 71.1084 23C72.8921 23 74.1743 24.041 74.2188 25.4375H73.1016Z" fill="#D7CAEE"/>
<path d="M73.1016 25.4375C73.0063 24.5361 72.1685 24.0156 71.0703 24.0156C69.8516 24.0156 69.0581 24.6504 69.0518 25.5264C69.0581 26.4912 70.1309 26.853 70.8291 27.0244L71.7432 27.2783C72.7271 27.5322 74.3457 28.0972 74.3457 29.8174C74.3457 31.3154 73.1396 32.4771 71.0068 32.4834C69.0264 32.4771 67.8013 31.4551 67.6934 29.9316H68.8613C68.9565 30.96 69.915 31.4487 71.0068 31.4424C72.2764 31.4487 73.2285 30.7949 73.2285 29.792C73.2285 28.897 72.3779 28.5542 71.4131 28.2812L70.2832 27.9766C68.8423 27.5576 67.9409 26.8213 67.9473 25.5771C67.9409 24.022 69.3247 23 71.1084 23C72.8921 23 74.1743 24.041 74.2188 25.4375H73.1016Z" fill="url(#paint18_linear_4151_18957)"/>
<path d="M75.9834 32.3184V23.127H81.5186V24.1426H77.126V27.2148H81.0996V28.2178H77.126V32.3184H75.9834Z" fill="#D7CAEE"/>
<path d="M75.9834 32.3184V23.127H81.5186V24.1426H77.126V27.2148H81.0996V28.2178H77.126V32.3184H75.9834Z" fill="url(#paint19_linear_4151_18957)"/>
<path d="M90.9893 27.7227C90.9956 30.6299 89.2817 32.4453 86.9268 32.4453C84.5654 32.4453 82.8579 30.6299 82.8643 27.7227C82.8579 24.8154 84.5654 23 86.9268 23C89.2817 23 90.9956 24.8154 90.9893 27.7227ZM83.9688 27.7227C83.9751 30.0903 85.2637 31.3726 86.9268 31.3789C88.5898 31.3726 89.8784 30.0903 89.8848 27.7227C89.8784 25.3486 88.5898 24.0664 86.9268 24.0664C85.2637 24.0664 83.9751 25.3486 83.9688 27.7227Z" fill="#D7CAEE"/>
<path d="M90.9893 27.7227C90.9956 30.6299 89.2817 32.4453 86.9268 32.4453C84.5654 32.4453 82.8579 30.6299 82.8643 27.7227C82.8579 24.8154 84.5654 23 86.9268 23C89.2817 23 90.9956 24.8154 90.9893 27.7227ZM83.9688 27.7227C83.9751 30.0903 85.2637 31.3726 86.9268 31.3789C88.5898 31.3726 89.8784 30.0903 89.8848 27.7227C89.8784 25.3486 88.5898 24.0664 86.9268 24.0664C85.2637 24.0664 83.9751 25.3486 83.9688 27.7227Z" fill="url(#paint20_linear_4151_18957)"/>
<path d="M92.665 32.3184V23.127H95.7881C97.9399 23.127 98.9238 24.3203 98.9238 25.958C98.9238 27.1768 98.3779 28.1289 97.21 28.5352L99.2793 32.3184H97.9463L96.0229 28.7446C95.9531 28.751 95.877 28.751 95.8008 28.751H93.8076V32.3184H92.665ZM93.8076 27.71H95.75C97.2163 27.71 97.7876 27.0498 97.7939 25.958C97.7876 24.8599 97.2163 24.1426 95.7373 24.1426H93.8076V27.71Z" fill="#D7CAEE"/>
<path d="M92.665 32.3184V23.127H95.7881C97.9399 23.127 98.9238 24.3203 98.9238 25.958C98.9238 27.1768 98.3779 28.1289 97.21 28.5352L99.2793 32.3184H97.9463L96.0229 28.7446C95.9531 28.751 95.877 28.751 95.8008 28.751H93.8076V32.3184H92.665ZM93.8076 27.71H95.75C97.2163 27.71 97.7876 27.0498 97.7939 25.958C97.7876 24.8599 97.2163 24.1426 95.7373 24.1426H93.8076V27.71Z" fill="url(#paint21_linear_4151_18957)"/>
<path d="M100.574 23.127H101.945L105.043 30.6934H105.157L108.255 23.127H109.626V32.3184H108.547V25.374H108.458L105.602 32.3184H104.586L101.729 25.374H101.653V32.3184H100.574V23.127Z" fill="#D7CAEE"/>
<path d="M100.574 23.127H101.945L105.043 30.6934H105.157L108.255 23.127H109.626V32.3184H108.547V25.374H108.458L105.602 32.3184H104.586L101.729 25.374H101.653V32.3184H100.574V23.127Z" fill="url(#paint22_linear_4151_18957)"/>
<path d="M116.672 25.4375C116.577 24.5361 115.739 24.0156 114.641 24.0156C113.422 24.0156 112.628 24.6504 112.622 25.5264C112.628 26.4912 113.701 26.853 114.399 27.0244L115.313 27.2783C116.297 27.5322 117.916 28.0972 117.916 29.8174C117.916 31.3154 116.71 32.4771 114.577 32.4834C112.597 32.4771 111.372 31.4551 111.264 29.9316H112.432C112.527 30.96 113.485 31.4487 114.577 31.4424C115.847 31.4487 116.799 30.7949 116.799 29.792C116.799 28.897 115.948 28.5542 114.983 28.2812L113.854 27.9766C112.413 27.5576 111.511 26.8213 111.518 25.5771C111.511 24.022 112.895 23 114.679 23C116.462 23 117.745 24.041 117.789 25.4375H116.672Z" fill="#D7CAEE"/>
<path d="M116.672 25.4375C116.577 24.5361 115.739 24.0156 114.641 24.0156C113.422 24.0156 112.628 24.6504 112.622 25.5264C112.628 26.4912 113.701 26.853 114.399 27.0244L115.313 27.2783C116.297 27.5322 117.916 28.0972 117.916 29.8174C117.916 31.3154 116.71 32.4771 114.577 32.4834C112.597 32.4771 111.372 31.4551 111.264 29.9316H112.432C112.527 30.96 113.485 31.4487 114.577 31.4424C115.847 31.4487 116.799 30.7949 116.799 29.792C116.799 28.897 115.948 28.5542 114.983 28.2812L113.854 27.9766C112.413 27.5576 111.511 26.8213 111.518 25.5771C111.511 24.022 112.895 23 114.679 23C116.462 23 117.745 24.041 117.789 25.4375H116.672Z" fill="url(#paint23_linear_4151_18957)"/>
<path d="M157.525 69.127H158.668V75.208C158.668 77.0996 157.252 78.4771 155.088 78.4834C152.917 78.4771 151.508 77.0996 151.508 75.208V69.127H152.65V75.1191C152.644 76.4521 153.571 77.4106 155.088 77.417C156.605 77.4106 157.519 76.4521 157.525 75.1191V69.127Z" fill="#D7CAEE"/>
<path d="M157.525 69.127H158.668V75.208C158.668 77.0996 157.252 78.4771 155.088 78.4834C152.917 78.4771 151.508 77.0996 151.508 75.208V69.127H152.65V75.1191C152.644 76.4521 153.571 77.4106 155.088 77.417C156.605 77.4106 157.519 76.4521 157.525 75.1191V69.127Z" fill="url(#paint24_linear_4151_18957)"/>
<path d="M165.714 71.4375C165.619 70.5361 164.781 70.0156 163.683 70.0156C162.464 70.0156 161.67 70.6504 161.664 71.5264C161.67 72.4912 162.743 72.853 163.441 73.0244L164.355 73.2783C165.339 73.5322 166.958 74.0972 166.958 75.8174C166.958 77.3154 165.752 78.4771 163.619 78.4834C161.639 78.4771 160.414 77.4551 160.306 75.9316H161.474C161.569 76.96 162.527 77.4487 163.619 77.4424C164.889 77.4487 165.841 76.7949 165.841 75.792C165.841 74.897 164.99 74.5542 164.025 74.2812L162.896 73.9766C161.455 73.5576 160.553 72.8213 160.56 71.5771C160.553 70.022 161.937 69 163.721 69C165.504 69 166.787 70.041 166.831 71.4375H165.714Z" fill="#D7CAEE"/>
<path d="M165.714 71.4375C165.619 70.5361 164.781 70.0156 163.683 70.0156C162.464 70.0156 161.67 70.6504 161.664 71.5264C161.67 72.4912 162.743 72.853 163.441 73.0244L164.355 73.2783C165.339 73.5322 166.958 74.0972 166.958 75.8174C166.958 77.3154 165.752 78.4771 163.619 78.4834C161.639 78.4771 160.414 77.4551 160.306 75.9316H161.474C161.569 76.96 162.527 77.4487 163.619 77.4424C164.889 77.4487 165.841 76.7949 165.841 75.792C165.841 74.897 164.99 74.5542 164.025 74.2812L162.896 73.9766C161.455 73.5576 160.553 72.8213 160.56 71.5771C160.553 70.022 161.937 69 163.721 69C165.504 69 166.787 70.041 166.831 71.4375H165.714Z" fill="url(#paint25_linear_4151_18957)"/>
<path d="M169.738 69.127V78.3184H168.596V69.127H169.738Z" fill="#D7CAEE"/>
<path d="M169.738 69.127V78.3184H168.596V69.127H169.738Z" fill="url(#paint26_linear_4151_18957)"/>
<path d="M179.069 69.127V78.3184H177.978L173.001 71.1582H172.912V78.3184H171.77V69.127H172.874L177.851 76.2998H177.939V69.127H179.069Z" fill="#D7CAEE"/>
<path d="M179.069 69.127V78.3184H177.978L173.001 71.1582H172.912V78.3184H171.77V69.127H172.874L177.851 76.2998H177.939V69.127H179.069Z" fill="url(#paint27_linear_4151_18957)"/>
<path d="M187.372 71.9961C186.979 70.8154 186.083 70.0664 184.77 70.0664C183.145 70.0664 181.856 71.3486 181.85 73.7227C181.856 76.0903 183.145 77.3726 184.846 77.3789C186.395 77.3726 187.467 76.3442 187.486 74.7129H185.087V73.71H188.604V74.7002C188.604 76.979 187.036 78.4453 184.846 78.4453C182.389 78.4453 180.739 76.6299 180.745 73.7227C180.739 70.8154 182.408 69 184.77 69C186.712 69 188.21 70.2188 188.553 71.9961H187.372Z" fill="#D7CAEE"/>
<path d="M187.372 71.9961C186.979 70.8154 186.083 70.0664 184.77 70.0664C183.145 70.0664 181.856 71.3486 181.85 73.7227C181.856 76.0903 183.145 77.3726 184.846 77.3789C186.395 77.3726 187.467 76.3442 187.486 74.7129H185.087V73.71H188.604V74.7002C188.604 76.979 187.036 78.4453 184.846 78.4453C182.389 78.4453 180.739 76.6299 180.745 73.7227C180.739 70.8154 182.408 69 184.77 69C186.712 69 188.21 70.2188 188.553 71.9961H187.372Z" fill="url(#paint28_linear_4151_18957)"/>
<path d="M193.986 78.3184H192.793L196.157 69.127H197.363L200.728 78.3184H199.521L198.601 75.7285H194.907L193.986 78.3184ZM195.256 74.7256H198.252L196.792 70.6123H196.716L195.256 74.7256Z" fill="#D7CAEE"/>
<path d="M193.986 78.3184H192.793L196.157 69.127H197.363L200.728 78.3184H199.521L198.601 75.7285H194.907L193.986 78.3184ZM195.256 74.7256H198.252L196.792 70.6123H196.716L195.256 74.7256Z" fill="url(#paint29_linear_4151_18957)"/>
<path d="M203.114 69.127V78.3184H201.972V69.127H203.114Z" fill="#D7CAEE"/>
<path d="M203.114 69.127V78.3184H201.972V69.127H203.114Z" fill="url(#paint30_linear_4151_18957)"/>
<path d="M207.9 70.1426V69.127H214.832V70.1426H211.95V78.3184H210.795V70.1426H207.9Z" fill="#D7CAEE"/>
<path d="M207.9 70.1426V69.127H214.832V70.1426H211.95V78.3184H210.795V70.1426H207.9Z" fill="url(#paint31_linear_4151_18957)"/>
<path d="M216.355 78.3184V69.127H221.929V70.1426H217.498V73.2148H221.637V74.2178H217.498V77.3027H221.992V78.3184H216.355Z" fill="#D7CAEE"/>
<path d="M216.355 78.3184V69.127H221.929V70.1426H217.498V73.2148H221.637V74.2178H217.498V77.3027H221.992V78.3184H216.355Z" fill="url(#paint32_linear_4151_18957)"/>
<path d="M230.003 72.0215C229.736 70.752 228.651 70.0664 227.438 70.0664C225.775 70.0664 224.487 71.3486 224.48 73.7227C224.487 76.0903 225.775 77.3726 227.438 77.3789C228.651 77.3726 229.73 76.6934 230.003 75.4365H231.146C230.815 77.3154 229.305 78.4453 227.438 78.4453C225.077 78.4453 223.37 76.6299 223.376 73.7227C223.37 70.8154 225.077 69 227.438 69C229.298 69 230.803 70.1108 231.146 72.0215H230.003Z" fill="#D7CAEE"/>
<path d="M230.003 72.0215C229.736 70.752 228.651 70.0664 227.438 70.0664C225.775 70.0664 224.487 71.3486 224.48 73.7227C224.487 76.0903 225.775 77.3726 227.438 77.3789C228.651 77.3726 229.73 76.6934 230.003 75.4365H231.146C230.815 77.3154 229.305 78.4453 227.438 78.4453C225.077 78.4453 223.37 76.6299 223.376 73.7227C223.37 70.8154 225.077 69 227.438 69C229.298 69 230.803 70.1108 231.146 72.0215H230.003Z" fill="url(#paint33_linear_4151_18957)"/>
<path d="M232.745 78.3184V69.127H233.888V73.2148H238.75V69.127H239.905V78.3184H238.75V74.2178H233.888V78.3184H232.745Z" fill="#D7CAEE"/>
<path d="M232.745 78.3184V69.127H233.888V73.2148H238.75V69.127H239.905V78.3184H238.75V74.2178H233.888V78.3184H232.745Z" fill="url(#paint34_linear_4151_18957)"/>
<path d="M249.224 69.127V78.3184H248.132L243.155 71.1582H243.066V78.3184H241.924V69.127H243.028L248.005 76.2998H248.094V69.127H249.224Z" fill="#D7CAEE"/>
<path d="M249.224 69.127V78.3184H248.132L243.155 71.1582H243.066V78.3184H241.924V69.127H243.028L248.005 76.2998H248.094V69.127H249.224Z" fill="url(#paint35_linear_4151_18957)"/>
<path d="M259.024 73.7227C259.031 76.6299 257.317 78.4453 254.962 78.4453C252.601 78.4453 250.893 76.6299 250.899 73.7227C250.893 70.8154 252.601 69 254.962 69C257.317 69 259.031 70.8154 259.024 73.7227ZM252.004 73.7227C252.01 76.0903 253.299 77.3726 254.962 77.3789C256.625 77.3726 257.914 76.0903 257.92 73.7227C257.914 71.3486 256.625 70.0664 254.962 70.0664C253.299 70.0664 252.01 71.3486 252.004 73.7227Z" fill="#D7CAEE"/>
<path d="M259.024 73.7227C259.031 76.6299 257.317 78.4453 254.962 78.4453C252.601 78.4453 250.893 76.6299 250.899 73.7227C250.893 70.8154 252.601 69 254.962 69C257.317 69 259.031 70.8154 259.024 73.7227ZM252.004 73.7227C252.01 76.0903 253.299 77.3726 254.962 77.3789C256.625 77.3726 257.914 76.0903 257.92 73.7227C257.914 71.3486 256.625 70.0664 254.962 70.0664C253.299 70.0664 252.01 71.3486 252.004 73.7227Z" fill="url(#paint36_linear_4151_18957)"/>
<path d="M260.7 78.3184V69.127H261.843V77.3027H266.108V78.3184H260.7Z" fill="#D7CAEE"/>
<path d="M260.7 78.3184V69.127H261.843V77.3027H266.108V78.3184H260.7Z" fill="url(#paint37_linear_4151_18957)"/>
<path d="M275.033 73.7227C275.04 76.6299 273.326 78.4453 270.971 78.4453C268.609 78.4453 266.902 76.6299 266.908 73.7227C266.902 70.8154 268.609 69 270.971 69C273.326 69 275.04 70.8154 275.033 73.7227ZM268.013 73.7227C268.019 76.0903 269.308 77.3726 270.971 77.3789C272.634 77.3726 273.922 76.0903 273.929 73.7227C273.922 71.3486 272.634 70.0664 270.971 70.0664C269.308 70.0664 268.019 71.3486 268.013 73.7227Z" fill="#D7CAEE"/>
<path d="M275.033 73.7227C275.04 76.6299 273.326 78.4453 270.971 78.4453C268.609 78.4453 266.902 76.6299 266.908 73.7227C266.902 70.8154 268.609 69 270.971 69C273.326 69 275.04 70.8154 275.033 73.7227ZM268.013 73.7227C268.019 76.0903 269.308 77.3726 270.971 77.3789C272.634 77.3726 273.922 76.0903 273.929 73.7227C273.922 71.3486 272.634 70.0664 270.971 70.0664C269.308 70.0664 268.019 71.3486 268.013 73.7227Z" fill="url(#paint38_linear_4151_18957)"/>
<path d="M282.98 71.9961C282.587 70.8154 281.692 70.0664 280.378 70.0664C278.753 70.0664 277.464 71.3486 277.458 73.7227C277.464 76.0903 278.753 77.3726 280.454 77.3789C282.003 77.3726 283.076 76.3442 283.095 74.7129H280.695V73.71H284.212V74.7002C284.212 76.979 282.644 78.4453 280.454 78.4453C277.998 78.4453 276.347 76.6299 276.354 73.7227C276.347 70.8154 278.017 69 280.378 69C282.32 69 283.818 70.2188 284.161 71.9961H282.98Z" fill="#D7CAEE"/>
<path d="M282.98 71.9961C282.587 70.8154 281.692 70.0664 280.378 70.0664C278.753 70.0664 277.464 71.3486 277.458 73.7227C277.464 76.0903 278.753 77.3726 280.454 77.3789C282.003 77.3726 283.076 76.3442 283.095 74.7129H280.695V73.71H284.212V74.7002C284.212 76.979 282.644 78.4453 280.454 78.4453C277.998 78.4453 276.347 76.6299 276.354 73.7227C276.347 70.8154 278.017 69 280.378 69C282.32 69 283.818 70.2188 284.161 71.9961H282.98Z" fill="url(#paint39_linear_4151_18957)"/>
<path d="M284.847 69.127H286.154L288.681 73.3926H288.795L291.321 69.127H292.642L289.315 74.5479V78.3184H288.16V74.5479L284.847 69.127Z" fill="#D7CAEE"/>
<path d="M284.847 69.127H286.154L288.681 73.3926H288.795L291.321 69.127H292.642L289.315 74.5479V78.3184H288.16V74.5479L284.847 69.127Z" fill="url(#paint40_linear_4151_18957)"/>
<path d="M126.508 23.127H127.879L130.977 30.6934H131.091L134.188 23.127H135.56V32.3184H134.48V25.374H134.392L131.535 32.3184H130.52L127.663 25.374H127.587V32.3184H126.508V23.127Z" fill="#D7CAEE"/>
<path d="M126.508 23.127H127.879L130.977 30.6934H131.091L134.188 23.127H135.56V32.3184H134.48V25.374H134.392L131.535 32.3184H130.52L127.663 25.374H127.587V32.3184H126.508V23.127Z" fill="url(#paint41_linear_4151_18957)"/>
<path d="M137.997 32.3184H136.804L140.168 23.127H141.374L144.738 32.3184H143.532L142.612 29.7285H138.917L137.997 32.3184ZM139.267 28.7256H142.263L140.803 24.6123H140.727L139.267 28.7256Z" fill="#D7CAEE"/>
<path d="M137.997 32.3184H136.804L140.168 23.127H141.374L144.738 32.3184H143.532L142.612 29.7285H138.917L137.997 32.3184ZM139.267 28.7256H142.263L140.803 24.6123H140.727L139.267 28.7256Z" fill="url(#paint42_linear_4151_18957)"/>
<path d="M153.282 23.127V32.3184H152.19L147.214 25.1582H147.125V32.3184H145.982V23.127H147.087L152.063 30.2998H152.152V23.127H153.282Z" fill="#D7CAEE"/>
<path d="M153.282 23.127V32.3184H152.19L147.214 25.1582H147.125V32.3184H145.982V23.127H147.087L152.063 30.2998H152.152V23.127H153.282Z" fill="url(#paint43_linear_4151_18957)"/>
<path d="M161.331 23.127H162.474V29.208C162.474 31.0996 161.058 32.4771 158.894 32.4834C156.723 32.4771 155.313 31.0996 155.313 29.208V23.127H156.456V29.1191C156.45 30.4521 157.376 31.4106 158.894 31.417C160.411 31.4106 161.325 30.4521 161.331 29.1191V23.127Z" fill="#D7CAEE"/>
<path d="M161.331 23.127H162.474V29.208C162.474 31.0996 161.058 32.4771 158.894 32.4834C156.723 32.4771 155.313 31.0996 155.313 29.208V23.127H156.456V29.1191C156.45 30.4521 157.376 31.4106 158.894 31.417C160.411 31.4106 161.325 30.4521 161.331 29.1191V23.127Z" fill="url(#paint44_linear_4151_18957)"/>
<path d="M164.505 32.3184V23.127H170.04V24.1426H165.647V27.2148H169.621V28.2178H165.647V32.3184H164.505Z" fill="#D7CAEE"/>
<path d="M164.505 32.3184V23.127H170.04V24.1426H165.647V27.2148H169.621V28.2178H165.647V32.3184H164.505Z" fill="url(#paint45_linear_4151_18957)"/>
<path d="M170.992 32.3184H169.799L173.163 23.127H174.369L177.733 32.3184H176.527L175.607 29.7285H171.913L170.992 32.3184ZM172.262 28.7256H175.258L173.798 24.6123H173.722L172.262 28.7256Z" fill="#D7CAEE"/>
<path d="M170.992 32.3184H169.799L173.163 23.127H174.369L177.733 32.3184H176.527L175.607 29.7285H171.913L170.992 32.3184ZM172.262 28.7256H175.258L173.798 24.6123H173.722L172.262 28.7256Z" fill="url(#paint46_linear_4151_18957)"/>
<path d="M184.817 26.0215C184.551 24.752 183.465 24.0664 182.253 24.0664C180.59 24.0664 179.301 25.3486 179.295 27.7227C179.301 30.0903 180.59 31.3726 182.253 31.3789C183.465 31.3726 184.544 30.6934 184.817 29.4365H185.96C185.63 31.3154 184.119 32.4453 182.253 32.4453C179.892 32.4453 178.184 30.6299 178.19 27.7227C178.184 24.8154 179.892 23 182.253 23C184.113 23 185.617 24.1108 185.96 26.0215H184.817Z" fill="#D7CAEE"/>
<path d="M184.817 26.0215C184.551 24.752 183.465 24.0664 182.253 24.0664C180.59 24.0664 179.301 25.3486 179.295 27.7227C179.301 30.0903 180.59 31.3726 182.253 31.3789C183.465 31.3726 184.544 30.6934 184.817 29.4365H185.96C185.63 31.3154 184.119 32.4453 182.253 32.4453C179.892 32.4453 178.184 30.6299 178.19 27.7227C178.184 24.8154 179.892 23 182.253 23C184.113 23 185.617 24.1108 185.96 26.0215H184.817Z" fill="url(#paint47_linear_4151_18957)"/>
<path d="M187.052 24.1426V23.127H193.983V24.1426H191.102V32.3184H189.946V24.1426H187.052Z" fill="#D7CAEE"/>
<path d="M187.052 24.1426V23.127H193.983V24.1426H191.102V32.3184H189.946V24.1426H187.052Z" fill="url(#paint48_linear_4151_18957)"/>
<path d="M201.524 23.127H202.667V29.208C202.667 31.0996 201.251 32.4771 199.087 32.4834C196.916 32.4771 195.507 31.0996 195.507 29.208V23.127H196.649V29.1191C196.643 30.4521 197.57 31.4106 199.087 31.417C200.604 31.4106 201.518 30.4521 201.524 29.1191V23.127Z" fill="#D7CAEE"/>
<path d="M201.524 23.127H202.667V29.208C202.667 31.0996 201.251 32.4771 199.087 32.4834C196.916 32.4771 195.507 31.0996 195.507 29.208V23.127H196.649V29.1191C196.643 30.4521 197.57 31.4106 199.087 31.417C200.604 31.4106 201.518 30.4521 201.524 29.1191V23.127Z" fill="url(#paint49_linear_4151_18957)"/>
<path d="M204.698 32.3184V23.127H207.821C209.973 23.127 210.957 24.3203 210.957 25.958C210.957 27.1768 210.411 28.1289 209.243 28.5352L211.312 32.3184H209.979L208.056 28.7446C207.986 28.751 207.91 28.751 207.834 28.751H205.841V32.3184H204.698ZM205.841 27.71H207.783C209.25 27.71 209.821 27.0498 209.827 25.958C209.821 24.8599 209.25 24.1426 207.771 24.1426H205.841V27.71Z" fill="#D7CAEE"/>
<path d="M204.698 32.3184V23.127H207.821C209.973 23.127 210.957 24.3203 210.957 25.958C210.957 27.1768 210.411 28.1289 209.243 28.5352L211.312 32.3184H209.979L208.056 28.7446C207.986 28.751 207.91 28.751 207.834 28.751H205.841V32.3184H204.698ZM205.841 27.71H207.783C209.25 27.71 209.821 27.0498 209.827 25.958C209.821 24.8599 209.25 24.1426 207.771 24.1426H205.841V27.71Z" fill="url(#paint50_linear_4151_18957)"/>
<path d="M213.75 23.127V32.3184H212.607V23.127H213.75Z" fill="#D7CAEE"/>
<path d="M213.75 23.127V32.3184H212.607V23.127H213.75Z" fill="url(#paint51_linear_4151_18957)"/>
<path d="M223.081 23.127V32.3184H221.989L217.013 25.1582H216.924V32.3184H215.781V23.127H216.886L221.862 30.2998H221.951V23.127H223.081Z" fill="#D7CAEE"/>
<path d="M223.081 23.127V32.3184H221.989L217.013 25.1582H216.924V32.3184H215.781V23.127H216.886L221.862 30.2998H221.951V23.127H223.081Z" fill="url(#paint52_linear_4151_18957)"/>
<path d="M231.384 25.9961C230.99 24.8154 230.095 24.0664 228.781 24.0664C227.156 24.0664 225.868 25.3486 225.861 27.7227C225.868 30.0903 227.156 31.3726 228.857 31.3789C230.406 31.3726 231.479 30.3442 231.498 28.7129H229.099V27.71H232.615V28.7002C232.615 30.979 231.047 32.4453 228.857 32.4453C226.401 32.4453 224.75 30.6299 224.757 27.7227C224.75 24.8154 226.42 23 228.781 23C230.724 23 232.222 24.2188 232.564 25.9961H231.384Z" fill="#D7CAEE"/>
<path d="M231.384 25.9961C230.99 24.8154 230.095 24.0664 228.781 24.0664C227.156 24.0664 225.868 25.3486 225.861 27.7227C225.868 30.0903 227.156 31.3726 228.857 31.3789C230.406 31.3726 231.479 30.3442 231.498 28.7129H229.099V27.71H232.615V28.7002C232.615 30.979 231.047 32.4453 228.857 32.4453C226.401 32.4453 224.75 30.6299 224.757 27.7227C224.75 24.8154 226.42 23 228.781 23C230.724 23 232.222 24.2188 232.564 25.9961H231.384Z" fill="url(#paint53_linear_4151_18957)"/>
<path d="M3.36426 78.3184H0.507812V69.127H3.47852C6.16357 69.127 7.74414 70.8472 7.74414 73.71C7.74414 76.5791 6.16357 78.3184 3.36426 78.3184ZM1.65039 77.3027H3.28809C5.5415 77.3027 6.62695 75.938 6.62695 73.71C6.62695 71.4883 5.5415 70.1426 3.40234 70.1426H1.65039V77.3027Z" fill="#D7CAEE"/>
<path d="M3.36426 78.3184H0.507812V69.127H3.47852C6.16357 69.127 7.74414 70.8472 7.74414 73.71C7.74414 76.5791 6.16357 78.3184 3.36426 78.3184ZM1.65039 77.3027H3.28809C5.5415 77.3027 6.62695 75.938 6.62695 73.71C6.62695 71.4883 5.5415 70.1426 3.40234 70.1426H1.65039V77.3027Z" fill="url(#paint54_linear_4151_18957)"/>
<path d="M9.41992 78.3184V69.127H14.9932V70.1426H10.5625V73.2148H14.7012V74.2178H10.5625V77.3027H15.0566V78.3184H9.41992Z" fill="#D7CAEE"/>
<path d="M9.41992 78.3184V69.127H14.9932V70.1426H10.5625V73.2148H14.7012V74.2178H10.5625V77.3027H15.0566V78.3184H9.41992Z" fill="url(#paint55_linear_4151_18957)"/>
<path d="M17.2148 69.127L19.9189 76.833H20.0205L22.7373 69.127H23.9434L20.5791 78.3184H19.373L16.0088 69.127H17.2148Z" fill="#D7CAEE"/>
<path d="M17.2148 69.127L19.9189 76.833H20.0205L22.7373 69.127H23.9434L20.5791 78.3184H19.373L16.0088 69.127H17.2148Z" fill="url(#paint56_linear_4151_18957)"/>
<path d="M25.1875 78.3184V69.127H30.7607V70.1426H26.3301V73.2148H30.4688V74.2178H26.3301V77.3027H30.8242V78.3184H25.1875Z" fill="#D7CAEE"/>
<path d="M25.1875 78.3184V69.127H30.7607V70.1426H26.3301V73.2148H30.4688V74.2178H26.3301V77.3027H30.8242V78.3184H25.1875Z" fill="url(#paint57_linear_4151_18957)"/>
<path d="M32.5635 78.3184V69.127H33.7061V77.3027H37.9717V78.3184H32.5635Z" fill="#D7CAEE"/>
<path d="M32.5635 78.3184V69.127H33.7061V77.3027H37.9717V78.3184H32.5635Z" fill="url(#paint58_linear_4151_18957)"/>
<path d="M46.8965 73.7227C46.9028 76.6299 45.189 78.4453 42.834 78.4453C40.4727 78.4453 38.7651 76.6299 38.7715 73.7227C38.7651 70.8154 40.4727 69 42.834 69C45.189 69 46.9028 70.8154 46.8965 73.7227ZM39.876 73.7227C39.8823 76.0903 41.1709 77.3726 42.834 77.3789C44.4971 77.3726 45.7856 76.0903 45.792 73.7227C45.7856 71.3486 44.4971 70.0664 42.834 70.0664C41.1709 70.0664 39.8823 71.3486 39.876 73.7227Z" fill="#D7CAEE"/>
<path d="M46.8965 73.7227C46.9028 76.6299 45.189 78.4453 42.834 78.4453C40.4727 78.4453 38.7651 76.6299 38.7715 73.7227C38.7651 70.8154 40.4727 69 42.834 69C45.189 69 46.9028 70.8154 46.8965 73.7227ZM39.876 73.7227C39.8823 76.0903 41.1709 77.3726 42.834 77.3789C44.4971 77.3726 45.7856 76.0903 45.792 73.7227C45.7856 71.3486 44.4971 70.0664 42.834 70.0664C41.1709 70.0664 39.8823 71.3486 39.876 73.7227Z" fill="url(#paint59_linear_4151_18957)"/>
<path d="M48.5723 78.3184V69.127H51.6953C53.8472 69.127 54.8311 70.4092 54.8311 72.0469C54.8311 73.6782 53.8472 74.9795 51.708 74.9795H49.7148V78.3184H48.5723ZM49.7148 73.9639H51.6572C53.1235 73.9639 53.6948 73.1387 53.7012 72.0469C53.6948 70.9487 53.1235 70.1426 51.6445 70.1426H49.7148V73.9639Z" fill="#D7CAEE"/>
<path d="M48.5723 78.3184V69.127H51.6953C53.8472 69.127 54.8311 70.4092 54.8311 72.0469C54.8311 73.6782 53.8472 74.9795 51.708 74.9795H49.7148V78.3184H48.5723ZM49.7148 73.9639H51.6572C53.1235 73.9639 53.6948 73.1387 53.7012 72.0469C53.6948 70.9487 53.1235 70.1426 51.6445 70.1426H49.7148V73.9639Z" fill="url(#paint60_linear_4151_18957)"/>
<path d="M56.4307 69.127H57.8018L60.8994 76.6934H61.0137L64.1113 69.127H65.4824V78.3184H64.4033V71.374H64.3145L61.458 78.3184H60.4424L57.5859 71.374H57.5098V78.3184H56.4307V69.127Z" fill="#D7CAEE"/>
<path d="M56.4307 69.127H57.8018L60.8994 76.6934H61.0137L64.1113 69.127H65.4824V78.3184H64.4033V71.374H64.3145L61.458 78.3184H60.4424L57.5859 71.374H57.5098V78.3184H56.4307V69.127Z" fill="url(#paint61_linear_4151_18957)"/>
<path d="M67.5137 78.3184V69.127H73.0869V70.1426H68.6562V73.2148H72.7949V74.2178H68.6562V77.3027H73.1504V78.3184H67.5137Z" fill="#D7CAEE"/>
<path d="M67.5137 78.3184V69.127H73.0869V70.1426H68.6562V73.2148H72.7949V74.2178H68.6562V77.3027H73.1504V78.3184H67.5137Z" fill="url(#paint62_linear_4151_18957)"/>
<path d="M82.1895 69.127V78.3184H81.0977L76.1211 71.1582H76.0322V78.3184H74.8896V69.127H75.9941L80.9707 76.2998H81.0596V69.127H82.1895Z" fill="#D7CAEE"/>
<path d="M82.1895 69.127V78.3184H81.0977L76.1211 71.1582H76.0322V78.3184H74.8896V69.127H75.9941L80.9707 76.2998H81.0596V69.127H82.1895Z" fill="url(#paint63_linear_4151_18957)"/>
<path d="M83.7129 70.1426V69.127H90.6445V70.1426H87.7627V78.3184H86.6074V70.1426H83.7129Z" fill="#D7CAEE"/>
<path d="M83.7129 70.1426V69.127H90.6445V70.1426H87.7627V78.3184H86.6074V70.1426H83.7129Z" fill="url(#paint64_linear_4151_18957)"/>
<path d="M233.508 55.3184V46.127H236.631C238.783 46.127 239.767 47.4092 239.767 49.0469C239.767 50.6782 238.783 51.9795 236.644 51.9795H234.65V55.3184H233.508ZM234.65 50.9639H236.593C238.059 50.9639 238.63 50.1387 238.637 49.0469C238.63 47.9487 238.059 47.1426 236.58 47.1426H234.65V50.9639Z" fill="#D7CAEE"/>
<path d="M233.508 55.3184V46.127H236.631C238.783 46.127 239.767 47.4092 239.767 49.0469C239.767 50.6782 238.783 51.9795 236.644 51.9795H234.65V55.3184H233.508ZM234.65 50.9639H236.593C238.059 50.9639 238.63 50.1387 238.637 49.0469C238.63 47.9487 238.059 47.1426 236.58 47.1426H234.65V50.9639Z" fill="url(#paint65_linear_4151_18957)"/>
<path d="M241.366 55.3184V46.127H244.489C246.641 46.127 247.625 47.3203 247.625 48.958C247.625 50.1768 247.079 51.1289 245.911 51.5352L247.98 55.3184H246.647L244.724 51.7446C244.654 51.751 244.578 51.751 244.502 51.751H242.509V55.3184H241.366ZM242.509 50.71H244.451C245.917 50.71 246.489 50.0498 246.495 48.958C246.489 47.8599 245.917 47.1426 244.438 47.1426H242.509V50.71Z" fill="#D7CAEE"/>
<path d="M241.366 55.3184V46.127H244.489C246.641 46.127 247.625 47.3203 247.625 48.958C247.625 50.1768 247.079 51.1289 245.911 51.5352L247.98 55.3184H246.647L244.724 51.7446C244.654 51.751 244.578 51.751 244.502 51.751H242.509V55.3184H241.366ZM242.509 50.71H244.451C245.917 50.71 246.489 50.0498 246.495 48.958C246.489 47.8599 245.917 47.1426 244.438 47.1426H242.509V50.71Z" fill="url(#paint66_linear_4151_18957)"/>
<path d="M257.045 50.7227C257.051 53.6299 255.337 55.4453 252.982 55.4453C250.621 55.4453 248.914 53.6299 248.92 50.7227C248.914 47.8154 250.621 46 252.982 46C255.337 46 257.051 47.8154 257.045 50.7227ZM250.024 50.7227C250.031 53.0903 251.319 54.3726 252.982 54.3789C254.646 54.3726 255.934 53.0903 255.94 50.7227C255.934 48.3486 254.646 47.0664 252.982 47.0664C251.319 47.0664 250.031 48.3486 250.024 50.7227Z" fill="#D7CAEE"/>
<path d="M257.045 50.7227C257.051 53.6299 255.337 55.4453 252.982 55.4453C250.621 55.4453 248.914 53.6299 248.92 50.7227C248.914 47.8154 250.621 46 252.982 46C255.337 46 257.051 47.8154 257.045 50.7227ZM250.024 50.7227C250.031 53.0903 251.319 54.3726 252.982 54.3789C254.646 54.3726 255.934 53.0903 255.94 50.7227C255.934 48.3486 254.646 47.0664 252.982 47.0664C251.319 47.0664 250.031 48.3486 250.024 50.7227Z" fill="url(#paint67_linear_4151_18957)"/>
<path d="M261.577 55.3184H258.721V46.127H261.691C264.376 46.127 265.957 47.8472 265.957 50.71C265.957 53.5791 264.376 55.3184 261.577 55.3184ZM259.863 54.3027H261.501C263.754 54.3027 264.84 52.938 264.84 50.71C264.84 48.4883 263.754 47.1426 261.615 47.1426H259.863V54.3027Z" fill="#D7CAEE"/>
<path d="M261.577 55.3184H258.721V46.127H261.691C264.376 46.127 265.957 47.8472 265.957 50.71C265.957 53.5791 264.376 55.3184 261.577 55.3184ZM259.863 54.3027H261.501C263.754 54.3027 264.84 52.938 264.84 50.71C264.84 48.4883 263.754 47.1426 261.615 47.1426H259.863V54.3027Z" fill="url(#paint68_linear_4151_18957)"/>
<path d="M273.65 46.127H274.793V52.208C274.793 54.0996 273.377 55.4771 271.213 55.4834C269.042 55.4771 267.633 54.0996 267.633 52.208V46.127H268.775V52.1191C268.769 53.4521 269.696 54.4106 271.213 54.417C272.73 54.4106 273.644 53.4521 273.65 52.1191V46.127Z" fill="#D7CAEE"/>
<path d="M273.65 46.127H274.793V52.208C274.793 54.0996 273.377 55.4771 271.213 55.4834C269.042 55.4771 267.633 54.0996 267.633 52.208V46.127H268.775V52.1191C268.769 53.4521 269.696 54.4106 271.213 54.417C272.73 54.4106 273.644 53.4521 273.65 52.1191V46.127Z" fill="url(#paint69_linear_4151_18957)"/>
<path d="M283.096 49.0215C282.829 47.752 281.744 47.0664 280.531 47.0664C278.868 47.0664 277.58 48.3486 277.573 50.7227C277.58 53.0903 278.868 54.3726 280.531 54.3789C281.744 54.3726 282.823 53.6934 283.096 52.4365H284.238C283.908 54.3154 282.397 55.4453 280.531 55.4453C278.17 55.4453 276.462 53.6299 276.469 50.7227C276.462 47.8154 278.17 46 280.531 46C282.391 46 283.896 47.1108 284.238 49.0215H283.096Z" fill="#D7CAEE"/>
<path d="M283.096 49.0215C282.829 47.752 281.744 47.0664 280.531 47.0664C278.868 47.0664 277.58 48.3486 277.573 50.7227C277.58 53.0903 278.868 54.3726 280.531 54.3789C281.744 54.3726 282.823 53.6934 283.096 52.4365H284.238C283.908 54.3154 282.397 55.4453 280.531 55.4453C278.17 55.4453 276.462 53.6299 276.469 50.7227C276.462 47.8154 278.17 46 280.531 46C282.391 46 283.896 47.1108 284.238 49.0215H283.096Z" fill="url(#paint70_linear_4151_18957)"/>
<path d="M285.33 47.1426V46.127H292.262V47.1426H289.38V55.3184H288.225V47.1426H285.33Z" fill="#D7CAEE"/>
<path d="M285.33 47.1426V46.127H292.262V47.1426H289.38V55.3184H288.225V47.1426H285.33Z" fill="url(#paint71_linear_4151_18957)"/>
<path d="M119.65 0.126953V9.31836H118.508V0.126953H119.65Z" fill="#D7CAEE"/>
<path d="M119.65 0.126953V9.31836H118.508V0.126953H119.65Z" fill="url(#paint72_linear_4151_18957)"/>
<path d="M126.696 2.4375C126.601 1.53613 125.763 1.01562 124.665 1.01562C123.446 1.01562 122.653 1.65039 122.646 2.52637C122.653 3.49121 123.726 3.85303 124.424 4.02441L125.338 4.27832C126.322 4.53223 127.94 5.09717 127.94 6.81738C127.94 8.31543 126.734 9.47705 124.602 9.4834C122.621 9.47705 121.396 8.45508 121.288 6.93164H122.456C122.551 7.95996 123.51 8.44873 124.602 8.44238C125.871 8.44873 126.823 7.79492 126.823 6.79199C126.823 5.89697 125.973 5.5542 125.008 5.28125L123.878 4.97656C122.437 4.55762 121.536 3.82129 121.542 2.57715C121.536 1.02197 122.919 0 124.703 0C126.487 0 127.769 1.04102 127.813 2.4375H126.696Z" fill="#D7CAEE"/>
<path d="M126.696 2.4375C126.601 1.53613 125.763 1.01562 124.665 1.01562C123.446 1.01562 122.653 1.65039 122.646 2.52637C122.653 3.49121 123.726 3.85303 124.424 4.02441L125.338 4.27832C126.322 4.53223 127.94 5.09717 127.94 6.81738C127.94 8.31543 126.734 9.47705 124.602 9.4834C122.621 9.47705 121.396 8.45508 121.288 6.93164H122.456C122.551 7.95996 123.51 8.44873 124.602 8.44238C125.871 8.44873 126.823 7.79492 126.823 6.79199C126.823 5.89697 125.973 5.5542 125.008 5.28125L123.878 4.97656C122.437 4.55762 121.536 3.82129 121.542 2.57715C121.536 1.02197 122.919 0 124.703 0C126.487 0 127.769 1.04102 127.813 2.4375H126.696Z" fill="url(#paint73_linear_4151_18957)"/>
<path d="M131.914 9.31836H130.721L134.085 0.126953H135.291L138.655 9.31836H137.449L136.529 6.72852H132.834L131.914 9.31836ZM133.184 5.72559H136.18L134.72 1.6123H134.644L133.184 5.72559Z" fill="#D7CAEE"/>
<path d="M131.914 9.31836H130.721L134.085 0.126953H135.291L138.655 9.31836H137.449L136.529 6.72852H132.834L131.914 9.31836ZM133.184 5.72559H136.18L134.72 1.6123H134.644L133.184 5.72559Z" fill="url(#paint74_linear_4151_18957)"/>
<path d="M155.914 9.31836H154.721L158.085 0.126953H159.291L162.655 9.31836H161.449L160.529 6.72852H156.834L155.914 9.31836ZM157.184 5.72559H160.18L158.72 1.6123H158.644L157.184 5.72559Z" fill="#D7CAEE"/>
<path d="M155.914 9.31836H154.721L158.085 0.126953H159.291L162.655 9.31836H161.449L160.529 6.72852H156.834L155.914 9.31836ZM157.184 5.72559H160.18L158.72 1.6123H158.644L157.184 5.72559Z" fill="url(#paint75_linear_4151_18957)"/>
<path d="M169.739 2.99609C169.346 1.81543 168.451 1.06641 167.137 1.06641C165.512 1.06641 164.223 2.34863 164.217 4.72266C164.223 7.09033 165.512 8.37256 167.213 8.37891C168.762 8.37256 169.834 7.34424 169.854 5.71289H167.454V4.70996H170.971V5.7002C170.971 7.979 169.403 9.44531 167.213 9.44531C164.756 9.44531 163.106 7.62988 163.112 4.72266C163.106 1.81543 164.775 0 167.137 0C169.079 0 170.577 1.21875 170.92 2.99609H169.739Z" fill="#D7CAEE"/>
<path d="M169.739 2.99609C169.346 1.81543 168.451 1.06641 167.137 1.06641C165.512 1.06641 164.223 2.34863 164.217 4.72266C164.223 7.09033 165.512 8.37256 167.213 8.37891C168.762 8.37256 169.834 7.34424 169.854 5.71289H167.454V4.70996H170.971V5.7002C170.971 7.979 169.403 9.44531 167.213 9.44531C164.756 9.44531 163.106 7.62988 163.112 4.72266C163.106 1.81543 164.775 0 167.137 0C169.079 0 170.577 1.21875 170.92 2.99609H169.739Z" fill="url(#paint76_linear_4151_18957)"/>
<path d="M172.685 9.31836V0.126953H178.258V1.14258H173.827V4.21484H177.966V5.21777H173.827V8.30273H178.321V9.31836H172.685Z" fill="#D7CAEE"/>
<path d="M172.685 9.31836V0.126953H178.258V1.14258H173.827V4.21484H177.966V5.21777H173.827V8.30273H178.321V9.31836H172.685Z" fill="url(#paint77_linear_4151_18957)"/>
<path d="M187.36 0.126953V9.31836H186.269L181.292 2.1582H181.203V9.31836H180.061V0.126953H181.165L186.142 7.2998H186.23V0.126953H187.36Z" fill="#D7CAEE"/>
<path d="M187.36 0.126953V9.31836H186.269L181.292 2.1582H181.203V9.31836H180.061V0.126953H181.165L186.142 7.2998H186.23V0.126953H187.36Z" fill="url(#paint78_linear_4151_18957)"/>
<path d="M188.884 1.14258V0.126953H195.815V1.14258H192.934V9.31836H191.778V1.14258H188.884Z" fill="#D7CAEE"/>
<path d="M188.884 1.14258V0.126953H195.815V1.14258H192.934V9.31836H191.778V1.14258H188.884Z" fill="url(#paint79_linear_4151_18957)"/>
<path d="M198.481 0.126953V9.31836H197.339V0.126953H198.481Z" fill="#D7CAEE"/>
<path d="M198.481 0.126953V9.31836H197.339V0.126953H198.481Z" fill="url(#paint80_linear_4151_18957)"/>
<path d="M206.784 3.02148C206.518 1.75195 205.432 1.06641 204.22 1.06641C202.557 1.06641 201.268 2.34863 201.262 4.72266C201.268 7.09033 202.557 8.37256 204.22 8.37891C205.432 8.37256 206.511 7.69336 206.784 6.43652H207.927C207.597 8.31543 206.086 9.44531 204.22 9.44531C201.858 9.44531 200.151 7.62988 200.157 4.72266C200.151 1.81543 201.858 0 204.22 0C206.08 0 207.584 1.11084 207.927 3.02148H206.784Z" fill="#D7CAEE"/>
<path d="M206.784 3.02148C206.518 1.75195 205.432 1.06641 204.22 1.06641C202.557 1.06641 201.268 2.34863 201.262 4.72266C201.268 7.09033 202.557 8.37256 204.22 8.37891C205.432 8.37256 206.511 7.69336 206.784 6.43652H207.927C207.597 8.31543 206.086 9.44531 204.22 9.44531C201.858 9.44531 200.151 7.62988 200.157 4.72266C200.151 1.81543 201.858 0 204.22 0C206.08 0 207.584 1.11084 207.927 3.02148H206.784Z" fill="url(#paint81_linear_4151_18957)"/>
<path d="M213.195 9.31836H212.002L215.366 0.126953H216.572L219.937 9.31836H218.73L217.81 6.72852H214.116L213.195 9.31836ZM214.465 5.72559H217.461L216.001 1.6123H215.925L214.465 5.72559Z" fill="#D7CAEE"/>
<path d="M213.195 9.31836H212.002L215.366 0.126953H216.572L219.937 9.31836H218.73L217.81 6.72852H214.116L213.195 9.31836ZM214.465 5.72559H217.461L216.001 1.6123H215.925L214.465 5.72559Z" fill="url(#paint82_linear_4151_18957)"/>
<path d="M222.323 0.126953V9.31836H221.181V0.126953H222.323Z" fill="#D7CAEE"/>
<path d="M222.323 0.126953V9.31836H221.181V0.126953H222.323Z" fill="url(#paint83_linear_4151_18957)"/>
<path d="M227.617 9.31836V0.126953H230.74C232.892 0.126953 233.876 1.40918 233.876 3.04688C233.876 4.67822 232.892 5.97949 230.753 5.97949H228.76V9.31836H227.617ZM228.76 4.96387H230.702C232.168 4.96387 232.74 4.13867 232.746 3.04688C232.74 1.94873 232.168 1.14258 230.689 1.14258H228.76V4.96387Z" fill="#D7CAEE"/>
<path d="M227.617 9.31836V0.126953H230.74C232.892 0.126953 233.876 1.40918 233.876 3.04688C233.876 4.67822 232.892 5.97949 230.753 5.97949H228.76V9.31836H227.617ZM228.76 4.96387H230.702C232.168 4.96387 232.74 4.13867 232.746 3.04688C232.74 1.94873 232.168 1.14258 230.689 1.14258H228.76V4.96387Z" fill="url(#paint84_linear_4151_18957)"/>
<path d="M235.476 9.31836V0.126953H236.618V8.30273H240.884V9.31836H235.476Z" fill="#D7CAEE"/>
<path d="M235.476 9.31836V0.126953H236.618V8.30273H240.884V9.31836H235.476Z" fill="url(#paint85_linear_4151_18957)"/>
<path d="M243.372 9.31836H242.179L245.543 0.126953H246.749L250.113 9.31836H248.907L247.987 6.72852H244.292L243.372 9.31836ZM244.642 5.72559H247.638L246.178 1.6123H246.102L244.642 5.72559Z" fill="#D7CAEE"/>
<path d="M243.372 9.31836H242.179L245.543 0.126953H246.749L250.113 9.31836H248.907L247.987 6.72852H244.292L243.372 9.31836ZM244.642 5.72559H247.638L246.178 1.6123H246.102L244.642 5.72559Z" fill="url(#paint86_linear_4151_18957)"/>
<path d="M249.771 1.14258V0.126953H256.702V1.14258H253.82V9.31836H252.665V1.14258H249.771Z" fill="#D7CAEE"/>
<path d="M249.771 1.14258V0.126953H256.702V1.14258H253.82V9.31836H252.665V1.14258H249.771Z" fill="url(#paint87_linear_4151_18957)"/>
<path d="M258.226 9.31836V0.126953H263.761V1.14258H259.368V4.21484H263.342V5.21777H259.368V9.31836H258.226Z" fill="#D7CAEE"/>
<path d="M258.226 9.31836V0.126953H263.761V1.14258H259.368V4.21484H263.342V5.21777H259.368V9.31836H258.226Z" fill="url(#paint88_linear_4151_18957)"/>
<path d="M273.231 4.72266C273.238 7.62988 271.524 9.44531 269.169 9.44531C266.808 9.44531 265.1 7.62988 265.106 4.72266C265.1 1.81543 266.808 0 269.169 0C271.524 0 273.238 1.81543 273.231 4.72266ZM266.211 4.72266C266.217 7.09033 267.506 8.37256 269.169 8.37891C270.832 8.37256 272.121 7.09033 272.127 4.72266C272.121 2.34863 270.832 1.06641 269.169 1.06641C267.506 1.06641 266.217 2.34863 266.211 4.72266Z" fill="#D7CAEE"/>
<path d="M273.231 4.72266C273.238 7.62988 271.524 9.44531 269.169 9.44531C266.808 9.44531 265.1 7.62988 265.106 4.72266C265.1 1.81543 266.808 0 269.169 0C271.524 0 273.238 1.81543 273.231 4.72266ZM266.211 4.72266C266.217 7.09033 267.506 8.37256 269.169 8.37891C270.832 8.37256 272.121 7.09033 272.127 4.72266C272.121 2.34863 270.832 1.06641 269.169 1.06641C267.506 1.06641 266.217 2.34863 266.211 4.72266Z" fill="url(#paint89_linear_4151_18957)"/>
<path d="M274.907 9.31836V0.126953H278.03C280.182 0.126953 281.166 1.32031 281.166 2.95801C281.166 4.17676 280.62 5.12891 279.452 5.53516L281.521 9.31836H280.188L278.265 5.74463C278.195 5.75098 278.119 5.75098 278.043 5.75098H276.05V9.31836H274.907ZM276.05 4.70996H277.992C279.458 4.70996 280.03 4.0498 280.036 2.95801C280.03 1.85986 279.458 1.14258 277.979 1.14258H276.05V4.70996Z" fill="#D7CAEE"/>
<path d="M274.907 9.31836V0.126953H278.03C280.182 0.126953 281.166 1.32031 281.166 2.95801C281.166 4.17676 280.62 5.12891 279.452 5.53516L281.521 9.31836H280.188L278.265 5.74463C278.195 5.75098 278.119 5.75098 278.043 5.75098H276.05V9.31836H274.907ZM276.05 4.70996H277.992C279.458 4.70996 280.03 4.0498 280.036 2.95801C280.03 1.85986 279.458 1.14258 277.979 1.14258H276.05V4.70996Z" fill="url(#paint90_linear_4151_18957)"/>
<path d="M282.816 0.126953H284.188L287.285 7.69336H287.399L290.497 0.126953H291.868V9.31836H290.789V2.37402H290.7L287.844 9.31836H286.828L283.972 2.37402H283.896V9.31836H282.816V0.126953Z" fill="#D7CAEE"/>
<path d="M282.816 0.126953H284.188L287.285 7.69336H287.399L290.497 0.126953H291.868V9.31836H290.789V2.37402H290.7L287.844 9.31836H286.828L283.972 2.37402H283.896V9.31836H282.816V0.126953Z" fill="url(#paint91_linear_4151_18957)"/>
<path d="M15.0303 2.73828H19.928V7.63603H15.0303V2.73828Z" fill="#D7CAEE"/>
<path d="M15.0303 2.73828H19.928V7.63603H15.0303V2.73828Z" fill="url(#paint92_linear_4151_18957)"/>
<defs>
<linearGradient id="paint0_linear_4151_18957" x1="140.519" y1="-9.77665" x2="141.117" y2="63.8508" gradientUnits="userSpaceOnUse">
<stop stop-color="white"/>
<stop offset="1" stop-color="#9182AD"/>
</linearGradient>
<linearGradient id="paint1_linear_4151_18957" x1="140.519" y1="-9.77665" x2="141.117" y2="63.8508" gradientUnits="userSpaceOnUse">
<stop stop-color="white"/>
<stop offset="1" stop-color="#9182AD"/>
</linearGradient>
<linearGradient id="paint2_linear_4151_18957" x1="140.519" y1="-9.77665" x2="141.117" y2="63.8508" gradientUnits="userSpaceOnUse">
<stop stop-color="white"/>
<stop offset="1" stop-color="#9182AD"/>
</linearGradient>
<linearGradient id="paint3_linear_4151_18957" x1="140.519" y1="-9.77665" x2="141.117" y2="63.8508" gradientUnits="userSpaceOnUse">
<stop stop-color="white"/>
<stop offset="1" stop-color="#9182AD"/>
</linearGradient>
<linearGradient id="paint4_linear_4151_18957" x1="140.519" y1="-9.77665" x2="141.117" y2="63.8508" gradientUnits="userSpaceOnUse">
<stop stop-color="white"/>
<stop offset="1" stop-color="#9182AD"/>
</linearGradient>
<linearGradient id="paint5_linear_4151_18957" x1="140.519" y1="-9.77665" x2="141.117" y2="63.8508" gradientUnits="userSpaceOnUse">
<stop stop-color="white"/>
<stop offset="1" stop-color="#9182AD"/>
</linearGradient>
<linearGradient id="paint6_linear_4151_18957" x1="140.519" y1="-9.77665" x2="141.117" y2="63.8508" gradientUnits="userSpaceOnUse">
<stop stop-color="white"/>
<stop offset="1" stop-color="#9182AD"/>
</linearGradient>
<linearGradient id="paint7_linear_4151_18957" x1="140.519" y1="-9.77665" x2="141.117" y2="63.8508" gradientUnits="userSpaceOnUse">
<stop stop-color="white"/>
<stop offset="1" stop-color="#9182AD"/>
</linearGradient>
<linearGradient id="paint8_linear_4151_18957" x1="140.519" y1="-9.77665" x2="141.117" y2="63.8508" gradientUnits="userSpaceOnUse">
<stop stop-color="white"/>
<stop offset="1" stop-color="#9182AD"/>
</linearGradient>
<linearGradient id="paint9_linear_4151_18957" x1="140.519" y1="-9.77665" x2="141.117" y2="63.8508" gradientUnits="userSpaceOnUse">
<stop stop-color="white"/>
<stop offset="1" stop-color="#9182AD"/>
</linearGradient>
<linearGradient id="paint10_linear_4151_18957" x1="140.519" y1="-9.77665" x2="141.117" y2="63.8508" gradientUnits="userSpaceOnUse">
<stop stop-color="white"/>
<stop offset="1" stop-color="#9182AD"/>
</linearGradient>
<linearGradient id="paint11_linear_4151_18957" x1="140.519" y1="-9.77665" x2="141.117" y2="63.8508" gradientUnits="userSpaceOnUse">
<stop stop-color="white"/>
<stop offset="1" stop-color="#9182AD"/>
</linearGradient>
<linearGradient id="paint12_linear_4151_18957" x1="140.519" y1="-9.77665" x2="141.117" y2="63.8508" gradientUnits="userSpaceOnUse">
<stop stop-color="white"/>
<stop offset="1" stop-color="#9182AD"/>
</linearGradient>
<linearGradient id="paint13_linear_4151_18957" x1="140.519" y1="-9.77665" x2="141.117" y2="63.8508" gradientUnits="userSpaceOnUse">
<stop stop-color="white"/>
<stop offset="1" stop-color="#9182AD"/>
</linearGradient>
<linearGradient id="paint14_linear_4151_18957" x1="140.519" y1="-9.77665" x2="141.117" y2="63.8508" gradientUnits="userSpaceOnUse">
<stop stop-color="white"/>
<stop offset="1" stop-color="#9182AD"/>
</linearGradient>
<linearGradient id="paint15_linear_4151_18957" x1="140.519" y1="-9.77665" x2="141.117" y2="63.8508" gradientUnits="userSpaceOnUse">
<stop stop-color="white"/>
<stop offset="1" stop-color="#9182AD"/>
</linearGradient>
<linearGradient id="paint16_linear_4151_18957" x1="140.519" y1="-9.77665" x2="141.117" y2="63.8508" gradientUnits="userSpaceOnUse">
<stop stop-color="white"/>
<stop offset="1" stop-color="#9182AD"/>
</linearGradient>
<linearGradient id="paint17_linear_4151_18957" x1="140.519" y1="-9.77665" x2="141.117" y2="63.8508" gradientUnits="userSpaceOnUse">
<stop stop-color="white"/>
<stop offset="1" stop-color="#9182AD"/>
</linearGradient>
<linearGradient id="paint18_linear_4151_18957" x1="140.519" y1="-9.77665" x2="141.117" y2="63.8508" gradientUnits="userSpaceOnUse">
<stop stop-color="white"/>
<stop offset="1" stop-color="#9182AD"/>
</linearGradient>
<linearGradient id="paint19_linear_4151_18957" x1="140.519" y1="-9.77665" x2="141.117" y2="63.8508" gradientUnits="userSpaceOnUse">
<stop stop-color="white"/>
<stop offset="1" stop-color="#9182AD"/>
</linearGradient>
<linearGradient id="paint20_linear_4151_18957" x1="140.519" y1="-9.77665" x2="141.117" y2="63.8508" gradientUnits="userSpaceOnUse">
<stop stop-color="white"/>
<stop offset="1" stop-color="#9182AD"/>
</linearGradient>
<linearGradient id="paint21_linear_4151_18957" x1="140.519" y1="-9.77665" x2="141.117" y2="63.8508" gradientUnits="userSpaceOnUse">
<stop stop-color="white"/>
<stop offset="1" stop-color="#9182AD"/>
</linearGradient>
<linearGradient id="paint22_linear_4151_18957" x1="140.519" y1="-9.77665" x2="141.117" y2="63.8508" gradientUnits="userSpaceOnUse">
<stop stop-color="white"/>
<stop offset="1" stop-color="#9182AD"/>
</linearGradient>
<linearGradient id="paint23_linear_4151_18957" x1="140.519" y1="-9.77665" x2="141.117" y2="63.8508" gradientUnits="userSpaceOnUse">
<stop stop-color="white"/>
<stop offset="1" stop-color="#9182AD"/>
</linearGradient>
<linearGradient id="paint24_linear_4151_18957" x1="140.519" y1="-9.77665" x2="141.117" y2="63.8508" gradientUnits="userSpaceOnUse">
<stop stop-color="white"/>
<stop offset="1" stop-color="#9182AD"/>
</linearGradient>
<linearGradient id="paint25_linear_4151_18957" x1="140.519" y1="-9.77665" x2="141.117" y2="63.8508" gradientUnits="userSpaceOnUse">
<stop stop-color="white"/>
<stop offset="1" stop-color="#9182AD"/>
</linearGradient>
<linearGradient id="paint26_linear_4151_18957" x1="140.519" y1="-9.77665" x2="141.117" y2="63.8508" gradientUnits="userSpaceOnUse">
<stop stop-color="white"/>
<stop offset="1" stop-color="#9182AD"/>
</linearGradient>
<linearGradient id="paint27_linear_4151_18957" x1="140.519" y1="-9.77665" x2="141.117" y2="63.8508" gradientUnits="userSpaceOnUse">
<stop stop-color="white"/>
<stop offset="1" stop-color="#9182AD"/>
</linearGradient>
<linearGradient id="paint28_linear_4151_18957" x1="140.519" y1="-9.77665" x2="141.117" y2="63.8508" gradientUnits="userSpaceOnUse">
<stop stop-color="white"/>
<stop offset="1" stop-color="#9182AD"/>
</linearGradient>
<linearGradient id="paint29_linear_4151_18957" x1="140.519" y1="-9.77665" x2="141.117" y2="63.8508" gradientUnits="userSpaceOnUse">
<stop stop-color="white"/>
<stop offset="1" stop-color="#9182AD"/>
</linearGradient>
<linearGradient id="paint30_linear_4151_18957" x1="140.519" y1="-9.77665" x2="141.117" y2="63.8508" gradientUnits="userSpaceOnUse">
<stop stop-color="white"/>
<stop offset="1" stop-color="#9182AD"/>
</linearGradient>
<linearGradient id="paint31_linear_4151_18957" x1="140.519" y1="-9.77665" x2="141.117" y2="63.8508" gradientUnits="userSpaceOnUse">
<stop stop-color="white"/>
<stop offset="1" stop-color="#9182AD"/>
</linearGradient>
<linearGradient id="paint32_linear_4151_18957" x1="140.519" y1="-9.77665" x2="141.117" y2="63.8508" gradientUnits="userSpaceOnUse">
<stop stop-color="white"/>
<stop offset="1" stop-color="#9182AD"/>
</linearGradient>
<linearGradient id="paint33_linear_4151_18957" x1="140.519" y1="-9.77665" x2="141.117" y2="63.8508" gradientUnits="userSpaceOnUse">
<stop stop-color="white"/>
<stop offset="1" stop-color="#9182AD"/>
</linearGradient>
<linearGradient id="paint34_linear_4151_18957" x1="140.519" y1="-9.77665" x2="141.117" y2="63.8508" gradientUnits="userSpaceOnUse">
<stop stop-color="white"/>
<stop offset="1" stop-color="#9182AD"/>
</linearGradient>
<linearGradient id="paint35_linear_4151_18957" x1="140.519" y1="-9.77665" x2="141.117" y2="63.8508" gradientUnits="userSpaceOnUse">
<stop stop-color="white"/>
<stop offset="1" stop-color="#9182AD"/>
</linearGradient>
<linearGradient id="paint36_linear_4151_18957" x1="140.519" y1="-9.77665" x2="141.117" y2="63.8508" gradientUnits="userSpaceOnUse">
<stop stop-color="white"/>
<stop offset="1" stop-color="#9182AD"/>
</linearGradient>
<linearGradient id="paint37_linear_4151_18957" x1="140.519" y1="-9.77665" x2="141.117" y2="63.8508" gradientUnits="userSpaceOnUse">
<stop stop-color="white"/>
<stop offset="1" stop-color="#9182AD"/>
</linearGradient>
<linearGradient id="paint38_linear_4151_18957" x1="140.519" y1="-9.77665" x2="141.117" y2="63.8508" gradientUnits="userSpaceOnUse">
<stop stop-color="white"/>
<stop offset="1" stop-color="#9182AD"/>
</linearGradient>
<linearGradient id="paint39_linear_4151_18957" x1="140.519" y1="-9.77665" x2="141.117" y2="63.8508" gradientUnits="userSpaceOnUse">
<stop stop-color="white"/>
<stop offset="1" stop-color="#9182AD"/>
</linearGradient>
<linearGradient id="paint40_linear_4151_18957" x1="140.519" y1="-9.77665" x2="141.117" y2="63.8508" gradientUnits="userSpaceOnUse">
<stop stop-color="white"/>
<stop offset="1" stop-color="#9182AD"/>
</linearGradient>
<linearGradient id="paint41_linear_4151_18957" x1="140.519" y1="-9.77665" x2="141.117" y2="63.8508" gradientUnits="userSpaceOnUse">
<stop stop-color="white"/>
<stop offset="1" stop-color="#9182AD"/>
</linearGradient>
<linearGradient id="paint42_linear_4151_18957" x1="140.519" y1="-9.77665" x2="141.117" y2="63.8508" gradientUnits="userSpaceOnUse">
<stop stop-color="white"/>
<stop offset="1" stop-color="#9182AD"/>
</linearGradient>
<linearGradient id="paint43_linear_4151_18957" x1="140.519" y1="-9.77665" x2="141.117" y2="63.8508" gradientUnits="userSpaceOnUse">
<stop stop-color="white"/>
<stop offset="1" stop-color="#9182AD"/>
</linearGradient>
<linearGradient id="paint44_linear_4151_18957" x1="140.519" y1="-9.77665" x2="141.117" y2="63.8508" gradientUnits="userSpaceOnUse">
<stop stop-color="white"/>
<stop offset="1" stop-color="#9182AD"/>
</linearGradient>
<linearGradient id="paint45_linear_4151_18957" x1="140.519" y1="-9.77665" x2="141.117" y2="63.8508" gradientUnits="userSpaceOnUse">
<stop stop-color="white"/>
<stop offset="1" stop-color="#9182AD"/>
</linearGradient>
<linearGradient id="paint46_linear_4151_18957" x1="140.519" y1="-9.77665" x2="141.117" y2="63.8508" gradientUnits="userSpaceOnUse">
<stop stop-color="white"/>
<stop offset="1" stop-color="#9182AD"/>
</linearGradient>
<linearGradient id="paint47_linear_4151_18957" x1="140.519" y1="-9.77665" x2="141.117" y2="63.8508" gradientUnits="userSpaceOnUse">
<stop stop-color="white"/>
<stop offset="1" stop-color="#9182AD"/>
</linearGradient>
<linearGradient id="paint48_linear_4151_18957" x1="140.519" y1="-9.77665" x2="141.117" y2="63.8508" gradientUnits="userSpaceOnUse">
<stop stop-color="white"/>
<stop offset="1" stop-color="#9182AD"/>
</linearGradient>
<linearGradient id="paint49_linear_4151_18957" x1="140.519" y1="-9.77665" x2="141.117" y2="63.8508" gradientUnits="userSpaceOnUse">
<stop stop-color="white"/>
<stop offset="1" stop-color="#9182AD"/>
</linearGradient>
<linearGradient id="paint50_linear_4151_18957" x1="140.519" y1="-9.77665" x2="141.117" y2="63.8508" gradientUnits="userSpaceOnUse">
<stop stop-color="white"/>
<stop offset="1" stop-color="#9182AD"/>
</linearGradient>
<linearGradient id="paint51_linear_4151_18957" x1="140.519" y1="-9.77665" x2="141.117" y2="63.8508" gradientUnits="userSpaceOnUse">
<stop stop-color="white"/>
<stop offset="1" stop-color="#9182AD"/>
</linearGradient>
<linearGradient id="paint52_linear_4151_18957" x1="140.519" y1="-9.77665" x2="141.117" y2="63.8508" gradientUnits="userSpaceOnUse">
<stop stop-color="white"/>
<stop offset="1" stop-color="#9182AD"/>
</linearGradient>
<linearGradient id="paint53_linear_4151_18957" x1="140.519" y1="-9.77665" x2="141.117" y2="63.8508" gradientUnits="userSpaceOnUse">
<stop stop-color="white"/>
<stop offset="1" stop-color="#9182AD"/>
</linearGradient>
<linearGradient id="paint54_linear_4151_18957" x1="140.519" y1="-9.77665" x2="141.117" y2="63.8508" gradientUnits="userSpaceOnUse">
<stop stop-color="white"/>
<stop offset="1" stop-color="#9182AD"/>
</linearGradient>
<linearGradient id="paint55_linear_4151_18957" x1="140.519" y1="-9.77665" x2="141.117" y2="63.8508" gradientUnits="userSpaceOnUse">
<stop stop-color="white"/>
<stop offset="1" stop-color="#9182AD"/>
</linearGradient>
<linearGradient id="paint56_linear_4151_18957" x1="140.519" y1="-9.77665" x2="141.117" y2="63.8508" gradientUnits="userSpaceOnUse">
<stop stop-color="white"/>
<stop offset="1" stop-color="#9182AD"/>
</linearGradient>
<linearGradient id="paint57_linear_4151_18957" x1="140.519" y1="-9.77665" x2="141.117" y2="63.8508" gradientUnits="userSpaceOnUse">
<stop stop-color="white"/>
<stop offset="1" stop-color="#9182AD"/>
</linearGradient>
<linearGradient id="paint58_linear_4151_18957" x1="140.519" y1="-9.77665" x2="141.117" y2="63.8508" gradientUnits="userSpaceOnUse">
<stop stop-color="white"/>
<stop offset="1" stop-color="#9182AD"/>
</linearGradient>
<linearGradient id="paint59_linear_4151_18957" x1="140.519" y1="-9.77665" x2="141.117" y2="63.8508" gradientUnits="userSpaceOnUse">
<stop stop-color="white"/>
<stop offset="1" stop-color="#9182AD"/>
</linearGradient>
<linearGradient id="paint60_linear_4151_18957" x1="140.519" y1="-9.77665" x2="141.117" y2="63.8508" gradientUnits="userSpaceOnUse">
<stop stop-color="white"/>
<stop offset="1" stop-color="#9182AD"/>
</linearGradient>
<linearGradient id="paint61_linear_4151_18957" x1="140.519" y1="-9.77665" x2="141.117" y2="63.8508" gradientUnits="userSpaceOnUse">
<stop stop-color="white"/>
<stop offset="1" stop-color="#9182AD"/>
</linearGradient>
<linearGradient id="paint62_linear_4151_18957" x1="140.519" y1="-9.77665" x2="141.117" y2="63.8508" gradientUnits="userSpaceOnUse">
<stop stop-color="white"/>
<stop offset="1" stop-color="#9182AD"/>
</linearGradient>
<linearGradient id="paint63_linear_4151_18957" x1="140.519" y1="-9.77665" x2="141.117" y2="63.8508" gradientUnits="userSpaceOnUse">
<stop stop-color="white"/>
<stop offset="1" stop-color="#9182AD"/>
</linearGradient>
<linearGradient id="paint64_linear_4151_18957" x1="140.519" y1="-9.77665" x2="141.117" y2="63.8508" gradientUnits="userSpaceOnUse">
<stop stop-color="white"/>
<stop offset="1" stop-color="#9182AD"/>
</linearGradient>
<linearGradient id="paint65_linear_4151_18957" x1="140.519" y1="-9.77665" x2="141.117" y2="63.8508" gradientUnits="userSpaceOnUse">
<stop stop-color="white"/>
<stop offset="1" stop-color="#9182AD"/>
</linearGradient>
<linearGradient id="paint66_linear_4151_18957" x1="140.519" y1="-9.77665" x2="141.117" y2="63.8508" gradientUnits="userSpaceOnUse">
<stop stop-color="white"/>
<stop offset="1" stop-color="#9182AD"/>
</linearGradient>
<linearGradient id="paint67_linear_4151_18957" x1="140.519" y1="-9.77665" x2="141.117" y2="63.8508" gradientUnits="userSpaceOnUse">
<stop stop-color="white"/>
<stop offset="1" stop-color="#9182AD"/>
</linearGradient>
<linearGradient id="paint68_linear_4151_18957" x1="140.519" y1="-9.77665" x2="141.117" y2="63.8508" gradientUnits="userSpaceOnUse">
<stop stop-color="white"/>
<stop offset="1" stop-color="#9182AD"/>
</linearGradient>
<linearGradient id="paint69_linear_4151_18957" x1="140.519" y1="-9.77665" x2="141.117" y2="63.8508" gradientUnits="userSpaceOnUse">
<stop stop-color="white"/>
<stop offset="1" stop-color="#9182AD"/>
</linearGradient>
<linearGradient id="paint70_linear_4151_18957" x1="140.519" y1="-9.77665" x2="141.117" y2="63.8508" gradientUnits="userSpaceOnUse">
<stop stop-color="white"/>
<stop offset="1" stop-color="#9182AD"/>
</linearGradient>
<linearGradient id="paint71_linear_4151_18957" x1="140.519" y1="-9.77665" x2="141.117" y2="63.8508" gradientUnits="userSpaceOnUse">
<stop stop-color="white"/>
<stop offset="1" stop-color="#9182AD"/>
</linearGradient>
<linearGradient id="paint72_linear_4151_18957" x1="140.519" y1="-9.77665" x2="141.117" y2="63.8508" gradientUnits="userSpaceOnUse">
<stop stop-color="white"/>
<stop offset="1" stop-color="#9182AD"/>
</linearGradient>
<linearGradient id="paint73_linear_4151_18957" x1="140.519" y1="-9.77665" x2="141.117" y2="63.8508" gradientUnits="userSpaceOnUse">
<stop stop-color="white"/>
<stop offset="1" stop-color="#9182AD"/>
</linearGradient>
<linearGradient id="paint74_linear_4151_18957" x1="140.519" y1="-9.77665" x2="141.117" y2="63.8508" gradientUnits="userSpaceOnUse">
<stop stop-color="white"/>
<stop offset="1" stop-color="#9182AD"/>
</linearGradient>
<linearGradient id="paint75_linear_4151_18957" x1="140.519" y1="-9.77665" x2="141.117" y2="63.8508" gradientUnits="userSpaceOnUse">
<stop stop-color="white"/>
<stop offset="1" stop-color="#9182AD"/>
</linearGradient>
<linearGradient id="paint76_linear_4151_18957" x1="140.519" y1="-9.77665" x2="141.117" y2="63.8508" gradientUnits="userSpaceOnUse">
<stop stop-color="white"/>
<stop offset="1" stop-color="#9182AD"/>
</linearGradient>
<linearGradient id="paint77_linear_4151_18957" x1="140.519" y1="-9.77665" x2="141.117" y2="63.8508" gradientUnits="userSpaceOnUse">
<stop stop-color="white"/>
<stop offset="1" stop-color="#9182AD"/>
</linearGradient>
<linearGradient id="paint78_linear_4151_18957" x1="140.519" y1="-9.77665" x2="141.117" y2="63.8508" gradientUnits="userSpaceOnUse">
<stop stop-color="white"/>
<stop offset="1" stop-color="#9182AD"/>
</linearGradient>
<linearGradient id="paint79_linear_4151_18957" x1="140.519" y1="-9.77665" x2="141.117" y2="63.8508" gradientUnits="userSpaceOnUse">
<stop stop-color="white"/>
<stop offset="1" stop-color="#9182AD"/>
</linearGradient>
<linearGradient id="paint80_linear_4151_18957" x1="140.519" y1="-9.77665" x2="141.117" y2="63.8508" gradientUnits="userSpaceOnUse">
<stop stop-color="white"/>
<stop offset="1" stop-color="#9182AD"/>
</linearGradient>
<linearGradient id="paint81_linear_4151_18957" x1="140.519" y1="-9.77665" x2="141.117" y2="63.8508" gradientUnits="userSpaceOnUse">
<stop stop-color="white"/>
<stop offset="1" stop-color="#9182AD"/>
</linearGradient>
<linearGradient id="paint82_linear_4151_18957" x1="140.519" y1="-9.77665" x2="141.117" y2="63.8508" gradientUnits="userSpaceOnUse">
<stop stop-color="white"/>
<stop offset="1" stop-color="#9182AD"/>
</linearGradient>
<linearGradient id="paint83_linear_4151_18957" x1="140.519" y1="-9.77665" x2="141.117" y2="63.8508" gradientUnits="userSpaceOnUse">
<stop stop-color="white"/>
<stop offset="1" stop-color="#9182AD"/>
</linearGradient>
<linearGradient id="paint84_linear_4151_18957" x1="140.519" y1="-9.77665" x2="141.117" y2="63.8508" gradientUnits="userSpaceOnUse">
<stop stop-color="white"/>
<stop offset="1" stop-color="#9182AD"/>
</linearGradient>
<linearGradient id="paint85_linear_4151_18957" x1="140.519" y1="-9.77665" x2="141.117" y2="63.8508" gradientUnits="userSpaceOnUse">
<stop stop-color="white"/>
<stop offset="1" stop-color="#9182AD"/>
</linearGradient>
<linearGradient id="paint86_linear_4151_18957" x1="140.519" y1="-9.77665" x2="141.117" y2="63.8508" gradientUnits="userSpaceOnUse">
<stop stop-color="white"/>
<stop offset="1" stop-color="#9182AD"/>
</linearGradient>
<linearGradient id="paint87_linear_4151_18957" x1="140.519" y1="-9.77665" x2="141.117" y2="63.8508" gradientUnits="userSpaceOnUse">
<stop stop-color="white"/>
<stop offset="1" stop-color="#9182AD"/>
</linearGradient>
<linearGradient id="paint88_linear_4151_18957" x1="140.519" y1="-9.77665" x2="141.117" y2="63.8508" gradientUnits="userSpaceOnUse">
<stop stop-color="white"/>
<stop offset="1" stop-color="#9182AD"/>
</linearGradient>
<linearGradient id="paint89_linear_4151_18957" x1="140.519" y1="-9.77665" x2="141.117" y2="63.8508" gradientUnits="userSpaceOnUse">
<stop stop-color="white"/>
<stop offset="1" stop-color="#9182AD"/>
</linearGradient>
<linearGradient id="paint90_linear_4151_18957" x1="140.519" y1="-9.77665" x2="141.117" y2="63.8508" gradientUnits="userSpaceOnUse">
<stop stop-color="white"/>
<stop offset="1" stop-color="#9182AD"/>
</linearGradient>
<linearGradient id="paint91_linear_4151_18957" x1="140.519" y1="-9.77665" x2="141.117" y2="63.8508" gradientUnits="userSpaceOnUse">
<stop stop-color="white"/>
<stop offset="1" stop-color="#9182AD"/>
</linearGradient>
<linearGradient id="paint92_linear_4151_18957" x1="140.519" y1="-9.77665" x2="141.117" y2="63.8508" gradientUnits="userSpaceOnUse">
<stop stop-color="white"/>
<stop offset="1" stop-color="#9182AD"/>
</linearGradient>
</defs>
</svg>
