<svg width="192" height="52" viewBox="0 0 192 52" fill="none" xmlns="http://www.w3.org/2000/svg">
<path d="M21.5248 0.0841141V6.17398H20.8085L17.5434 1.42994H17.4851V6.17398H16.7355V0.0841141H17.4601L20.7252 4.83656H20.7835V0.0841141H21.5248Z" fill="white" fill-opacity="0.6"/>
<path d="M23.1241 6.17398H22.3411L24.5484 0.0841141H25.3397L27.5469 6.17398H26.7556L26.1518 4.45805H23.7279L23.1241 6.17398ZM23.957 3.79355H25.9227L24.9648 1.06825H24.9149L23.957 3.79355Z" fill="white" fill-opacity="0.6"/>
<path d="M28.3632 6.17398V0.0841141H30.4122C31.824 0.0841141 32.4695 0.874787 32.4695 1.95986C32.4695 2.76735 32.1114 3.39821 31.3451 3.66738L32.7028 6.17398H31.8282L30.5663 3.80616C30.5205 3.81037 30.4705 3.81037 30.4205 3.81037H29.1128V6.17398H28.3632ZM29.1128 3.12063H30.3872C31.3492 3.12063 31.7241 2.68324 31.7282 1.95986C31.7241 1.23227 31.3492 0.757027 30.3789 0.757027H29.1128V3.12063Z" fill="white" fill-opacity="0.6"/>
<path d="M38.3417 0.0841141V6.17398H37.6254L34.3603 1.42994H34.302V6.17398H33.5523V0.0841141H34.277L37.5421 4.83656H37.6004V0.0841141H38.3417Z" fill="white" fill-opacity="0.6"/>
<path d="M40.424 0.0841141V6.17398H39.6744V0.0841141H40.424Z" fill="white" fill-opacity="0.6"/>
<path d="M42.0232 6.17398H41.2403L43.4476 0.0841141H44.2388L46.4461 6.17398H45.6548L45.0509 4.45805H42.6271L42.0232 6.17398ZM42.8562 3.79355H44.8219L43.864 1.06825H43.814L42.8562 3.79355Z" fill="white" fill-opacity="0.6"/>
<path d="M49.403 6.17398V0.0841141H50.1526V5.50106H52.9513V6.17398H49.403Z" fill="white" fill-opacity="0.6"/>
<path d="M54.5838 6.17398H53.8009L56.0081 0.0841141H56.7994L59.0067 6.17398H58.2154L57.6115 4.45805H55.1877L54.5838 6.17398ZM55.4168 3.79355H57.3825L56.4246 1.06825H56.3746L55.4168 3.79355Z" fill="white" fill-opacity="0.6"/>
<path d="M59.823 6.17398V0.0841141H61.9386C63.2047 0.0841141 63.8002 0.80329 63.796 1.69911C63.8002 2.48137 63.3379 2.83044 62.8132 2.97764V3.03652C63.3754 3.07017 64.0334 3.59167 64.0376 4.55899C64.0334 5.47162 63.4379 6.17398 62.0136 6.17398H59.823ZM60.5726 5.50106H62.0052C62.9506 5.50106 63.3171 5.08049 63.3129 4.55057C63.3171 3.93234 62.8215 3.40662 62.0469 3.40662H60.5726V5.50106ZM60.5726 2.75053H61.9136C62.5675 2.75474 63.0797 2.34258 63.0797 1.70752C63.0797 1.1776 62.7257 0.757027 61.9386 0.757027H60.5726V2.75053Z" fill="white" fill-opacity="0.6"/>
<path d="M68.3938 1.61499C68.3313 1.01778 67.7816 0.672913 67.0611 0.672913C66.2615 0.672913 65.7409 1.09348 65.7368 1.67387C65.7409 2.31314 66.4448 2.55286 66.9029 2.66642L67.5026 2.83465C68.1481 3.00287 69.2101 3.37718 69.2101 4.51693C69.2101 5.50948 68.4188 6.27912 67.0195 6.28333C65.7201 6.27912 64.9163 5.602 64.8455 4.59263H65.6118C65.6743 5.27396 66.3032 5.5978 67.0195 5.59359C67.8524 5.5978 68.4771 5.16461 68.4771 4.50011C68.4771 3.9071 67.919 3.67999 67.286 3.49915L66.5447 3.29727C65.5993 3.0197 65.0079 2.53184 65.0121 1.70752C65.0079 0.677119 65.9158 0 67.0861 0C68.2564 0 69.0976 0.689736 69.1268 1.61499H68.3938Z" fill="white" fill-opacity="0.6"/>
<path d="M0 15.9959V15.323H4.5478V15.9959H2.65705V21.4129H1.89908V15.9959H0Z" fill="white" fill-opacity="0.6"/>
<path d="M5.54731 21.4129V15.323H6.29695V18.0315H9.48707V15.323H10.245V21.4129H9.48707V18.696H6.29695V21.4129H5.54731Z" fill="white" fill-opacity="0.6"/>
<path d="M11.8359 21.4129H11.053L13.2602 15.323H14.0515L16.2588 21.4129H15.4675L14.8636 19.6969H12.4398L11.8359 21.4129ZM12.6689 19.0324H14.6346L13.6767 16.3071H13.6267L12.6689 19.0324Z" fill="white" fill-opacity="0.6"/>
<path d="M16.0339 15.9959V15.323H20.5817V15.9959H18.691V21.4129H17.933V15.9959H16.0339Z" fill="white" fill-opacity="0.6"/>
<path d="M22.3071 15.9959V15.323H26.8549V15.9959H24.9642V21.4129H24.2062V15.9959H22.3071Z" fill="white" fill-opacity="0.6"/>
<path d="M27.8545 21.4129V15.323H29.9035C31.3153 15.323 31.9608 16.1137 31.9608 17.1988C31.9608 18.0062 31.6026 18.6371 30.8364 18.9063L32.194 21.4129H31.3195L30.0576 19.0451C30.0118 19.0493 29.9618 19.0493 29.9118 19.0493H28.6041V21.4129H27.8545ZM28.6041 18.3595H29.8785C30.8405 18.3595 31.2153 17.9221 31.2195 17.1988C31.2153 16.4712 30.8405 15.9959 29.8702 15.9959H28.6041V18.3595Z" fill="white" fill-opacity="0.6"/>
<path d="M33.3102 21.4129H32.5272L34.7345 15.323H35.5257L37.733 21.4129H36.9417L36.3379 19.6969H33.914L33.3102 21.4129ZM34.1431 19.0324H36.1088L35.1509 16.3071H35.101L34.1431 19.0324Z" fill="white" fill-opacity="0.6"/>
<path d="M43.3386 15.323V21.4129H42.6223L39.3572 16.6688H39.2989V21.4129H38.5493V15.323H39.2739L42.539 20.0755H42.5973V15.323H43.3386Z" fill="white" fill-opacity="0.6"/>
<path d="M47.9614 16.8539C47.8989 16.2567 47.3492 15.9118 46.6287 15.9118C45.8291 15.9118 45.3085 16.3324 45.3044 16.9128C45.3085 17.552 46.0123 17.7918 46.4705 17.9053L47.0702 18.0735C47.7157 18.2418 48.7777 18.6161 48.7777 19.7558C48.7777 20.7484 47.9864 21.518 46.5871 21.5222C45.2877 21.518 44.4839 20.8409 44.4131 19.8315H45.1794C45.2419 20.5128 45.8707 20.8367 46.5871 20.8325C47.42 20.8367 48.0447 20.4035 48.0447 19.739C48.0447 19.146 47.4866 18.9189 46.8536 18.738L46.1123 18.5362C45.1669 18.2586 44.5755 17.7707 44.5797 16.9464C44.5755 15.916 45.4834 15.2389 46.6537 15.2389C47.824 15.2389 48.6652 15.9286 48.6944 16.8539H47.9614Z" fill="white" fill-opacity="0.6"/>
<path d="M49.8521 21.4129V15.323H53.4837V15.9959H50.6018V18.0315H53.2089V18.696H50.6018V21.4129H49.8521Z" fill="white" fill-opacity="0.6"/>
<path d="M59.6974 18.3679C59.7015 20.2942 58.5771 21.497 57.032 21.497C55.4828 21.497 54.3625 20.2942 54.3666 18.3679C54.3625 16.4417 55.4828 15.2389 57.032 15.2389C58.5771 15.2389 59.7015 16.4417 59.6974 18.3679ZM55.0913 18.3679C55.0954 19.9367 55.9409 20.7862 57.032 20.7904C58.1231 20.7862 58.9686 19.9367 58.9727 18.3679C58.9686 16.795 58.1231 15.9455 57.032 15.9455C55.9409 15.9455 55.0954 16.795 55.0913 18.3679Z" fill="white" fill-opacity="0.6"/>
<path d="M60.7969 21.4129V15.323H62.8459C64.2577 15.323 64.9032 16.1137 64.9032 17.1988C64.9032 18.0062 64.545 18.6371 63.7787 18.9063L65.1364 21.4129H64.2618L63 19.0451C62.9541 19.0493 62.9042 19.0493 62.8542 19.0493H61.5465V21.4129H60.7969ZM61.5465 18.3595H62.8209C63.7829 18.3595 64.1577 17.9221 64.1619 17.1988C64.1577 16.4712 63.7829 15.9959 62.8125 15.9959H61.5465V18.3595Z" fill="white" fill-opacity="0.6"/>
<path d="M65.986 15.323H66.8856L68.9179 20.3362H68.9929L71.0252 15.323H71.9248V21.4129H71.2168V16.8118H71.1585L69.2844 21.4129H68.6181L66.744 16.8118H66.694V21.4129H65.986V15.323Z" fill="white" fill-opacity="0.6"/>
<path d="M76.5476 16.8539C76.4851 16.2567 75.9354 15.9118 75.2149 15.9118C74.4153 15.9118 73.8947 16.3324 73.8905 16.9128C73.8947 17.552 74.5985 17.7918 75.0566 17.9053L75.6563 18.0735C76.3018 18.2418 77.3638 18.6161 77.3638 19.7558C77.3638 20.7484 76.5725 21.518 75.1732 21.5222C73.8739 21.518 73.0701 20.8409 72.9993 19.8315H73.7656C73.828 20.5128 74.4569 20.8367 75.1732 20.8325C76.0062 20.8367 76.6309 20.4035 76.6309 19.739C76.6309 19.146 76.0728 18.9189 75.4398 18.738L74.6985 18.5362C73.7531 18.2586 73.1617 17.7707 73.1659 16.9464C73.1617 15.916 74.0696 15.2389 75.2399 15.2389C76.4101 15.2389 77.2514 15.9286 77.2805 16.8539H76.5476Z" fill="white" fill-opacity="0.6"/>
<path d="M103.351 45.8008H104.101V49.8299C104.101 51.0832 103.172 51.9958 101.752 52C100.328 51.9958 99.4032 51.0832 99.4032 49.8299V45.8008H100.153V49.771C100.149 50.6542 100.757 51.2892 101.752 51.2934C102.747 51.2892 103.347 50.6542 103.351 49.771V45.8008Z" fill="white" fill-opacity="0.6"/>
<path d="M108.724 47.3317C108.661 46.7345 108.111 46.3896 107.391 46.3896C106.591 46.3896 106.071 46.8102 106.067 47.3905C106.071 48.0298 106.775 48.2695 107.233 48.3831L107.832 48.5513C108.478 48.7196 109.54 49.0939 109.54 50.2336C109.54 51.2262 108.749 51.9958 107.349 52C106.05 51.9958 105.246 51.3187 105.175 50.3093H105.942C106.004 50.9906 106.633 51.3145 107.349 51.3103C108.182 51.3145 108.807 50.8813 108.807 50.2168C108.807 49.6238 108.249 49.3967 107.616 49.2158L106.875 49.014C105.929 48.7364 105.338 48.2485 105.342 47.4242C105.338 46.3938 106.246 45.7167 107.416 45.7167C108.586 45.7167 109.427 46.4064 109.457 47.3317H108.724Z" fill="white" fill-opacity="0.6"/>
<path d="M111.364 45.8008V51.8907H110.614V45.8008H111.364Z" fill="white" fill-opacity="0.6"/>
<path d="M117.486 45.8008V51.8907H116.77L113.505 47.1466H113.446V51.8907H112.697V45.8008H113.421L116.686 50.5532H116.745V45.8008H117.486Z" fill="white" fill-opacity="0.6"/>
<path d="M122.933 47.7018C122.675 46.9195 122.088 46.4232 121.226 46.4232C120.16 46.4232 119.314 47.2728 119.31 48.8457C119.314 50.4145 120.16 51.264 121.276 51.2682C122.292 51.264 122.996 50.5827 123.008 49.5018H121.434V48.8373H123.741V49.4934C123.741 51.0033 122.713 51.9748 121.276 51.9748C119.664 51.9748 118.581 50.7719 118.586 48.8457C118.581 46.9195 119.677 45.7167 121.226 45.7167C122.5 45.7167 123.483 46.5242 123.708 47.7018H122.933Z" fill="white" fill-opacity="0.6"/>
<path d="M127.273 51.8907H126.49L128.697 45.8008H129.489L131.696 51.8907H130.905L130.301 50.1747H127.877L127.273 51.8907ZM128.106 49.5102H130.072L129.114 46.7849H129.064L128.106 49.5102Z" fill="white" fill-opacity="0.6"/>
<path d="M133.262 45.8008V51.8907H132.512V45.8008H133.262Z" fill="white" fill-opacity="0.6"/>
<path d="M136.402 46.4737V45.8008H140.95V46.4737H139.059V51.8907H138.301V46.4737H136.402Z" fill="white" fill-opacity="0.6"/>
<path d="M141.949 51.8907V45.8008H145.606V46.4737H142.699V48.5093H145.414V49.1738H142.699V51.2177H145.647V51.8907H141.949Z" fill="white" fill-opacity="0.6"/>
<path d="M150.903 47.7186C150.728 46.8775 150.016 46.4232 149.221 46.4232C148.13 46.4232 147.284 47.2728 147.28 48.8457C147.284 50.4145 148.13 51.264 149.221 51.2682C150.016 51.264 150.724 50.814 150.903 49.9813H151.653C151.436 51.2262 150.445 51.9748 149.221 51.9748C147.671 51.9748 146.551 50.7719 146.555 48.8457C146.551 46.9195 147.671 45.7167 149.221 45.7167C150.441 45.7167 151.428 46.4527 151.653 47.7186H150.903Z" fill="white" fill-opacity="0.6"/>
<path d="M152.702 51.8907V45.8008H153.452V48.5093H156.642V45.8008H157.4V51.8907H156.642V49.1738H153.452V51.8907H152.702Z" fill="white" fill-opacity="0.6"/>
<path d="M163.514 45.8008V51.8907H162.797L159.532 47.1466H159.474V51.8907H158.724V45.8008H159.449L162.714 50.5532H162.772V45.8008H163.514Z" fill="white" fill-opacity="0.6"/>
<path d="M169.944 48.8457C169.948 50.7719 168.824 51.9748 167.279 51.9748C165.729 51.9748 164.609 50.7719 164.613 48.8457C164.609 46.9195 165.729 45.7167 167.279 45.7167C168.824 45.7167 169.948 46.9195 169.944 48.8457ZM165.338 48.8457C165.342 50.4145 166.188 51.264 167.279 51.2682C168.37 51.264 169.215 50.4145 169.219 48.8457C169.215 47.2728 168.37 46.4232 167.279 46.4232C166.188 46.4232 165.342 47.2728 165.338 48.8457Z" fill="white" fill-opacity="0.6"/>
<path d="M171.043 51.8907V45.8008H171.793V51.2177H174.592V51.8907H171.043Z" fill="white" fill-opacity="0.6"/>
<path d="M180.447 48.8457C180.451 50.7719 179.327 51.9748 177.782 51.9748C176.233 51.9748 175.112 50.7719 175.117 48.8457C175.112 46.9195 176.233 45.7167 177.782 45.7167C179.327 45.7167 180.451 46.9195 180.447 48.8457ZM175.841 48.8457C175.845 50.4145 176.691 51.264 177.782 51.2682C178.873 51.264 179.718 50.4145 179.723 48.8457C179.718 47.2728 178.873 46.4232 177.782 46.4232C176.691 46.4232 175.845 47.2728 175.841 48.8457Z" fill="white" fill-opacity="0.6"/>
<path d="M185.661 47.7018C185.403 46.9195 184.816 46.4232 183.954 46.4232C182.888 46.4232 182.042 47.2728 182.038 48.8457C182.042 50.4145 182.888 51.264 184.004 51.2682C185.02 51.264 185.724 50.5827 185.736 49.5018H184.162V48.8373H186.469V49.4934C186.469 51.0033 185.441 51.9748 184.004 51.9748C182.392 51.9748 181.309 50.7719 181.314 48.8457C181.309 46.9195 182.405 45.7167 183.954 45.7167C185.228 45.7167 186.211 46.5242 186.436 47.7018H185.661Z" fill="white" fill-opacity="0.6"/>
<path d="M186.886 45.8008H187.744L189.401 48.627H189.476L191.134 45.8008H192L189.818 49.3925V51.8907H189.06V49.3925L186.886 45.8008Z" fill="white" fill-opacity="0.6"/>
<path d="M83.0008 15.323H83.9004L85.9328 20.3362H86.0077L88.0401 15.323H88.9396V21.4129H88.2316V16.8118H88.1733L86.2992 21.4129H85.6329L83.7588 16.8118H83.7088V21.4129H83.0008V15.323Z" fill="white" fill-opacity="0.6"/>
<path d="M90.5389 21.4129H89.7559L91.9632 15.323H92.7545L94.9617 21.4129H94.1704L93.5666 19.6969H91.1427L90.5389 21.4129ZM91.3718 19.0324H93.3375L92.3796 16.3071H92.3297L91.3718 19.0324Z" fill="white" fill-opacity="0.6"/>
<path d="M100.567 15.323V21.4129H99.851L96.5859 16.6688H96.5276V21.4129H95.778V15.323H96.5026L99.7677 20.0755H99.826V15.323H100.567Z" fill="white" fill-opacity="0.6"/>
<path d="M105.848 15.323H106.598V19.3521C106.598 20.6054 105.669 21.518 104.249 21.5222C102.825 21.518 101.9 20.6054 101.9 19.3521V15.323H102.65V19.2932C102.646 20.1764 103.254 20.8115 104.249 20.8157C105.244 20.8115 105.844 20.1764 105.848 19.2932V15.323Z" fill="white" fill-opacity="0.6"/>
<path d="M107.93 21.4129V15.323H111.562V15.9959H108.68V18.0315H111.287V18.696H108.68V21.4129H107.93Z" fill="white" fill-opacity="0.6"/>
<path d="M112.187 21.4129H111.404L113.611 15.323H114.402L116.61 21.4129H115.818L115.214 19.6969H112.791L112.187 21.4129ZM113.02 19.0324H114.985L114.027 16.3071H113.978L113.02 19.0324Z" fill="white" fill-opacity="0.6"/>
<path d="M121.257 17.2408C121.082 16.3997 120.37 15.9455 119.575 15.9455C118.484 15.9455 117.638 16.795 117.634 18.3679C117.638 19.9367 118.484 20.7862 119.575 20.7904C120.37 20.7862 121.078 20.3362 121.257 19.5035H122.007C121.79 20.7484 120.799 21.497 119.575 21.497C118.026 21.497 116.905 20.2942 116.909 18.3679C116.905 16.4417 118.026 15.2389 119.575 15.2389C120.795 15.2389 121.782 15.9749 122.007 17.2408H121.257Z" fill="white" fill-opacity="0.6"/>
<path d="M122.723 15.9959V15.323H127.271V15.9959H125.38V21.4129H124.622V15.9959H122.723Z" fill="white" fill-opacity="0.6"/>
<path d="M132.219 15.323H132.968V19.3521C132.968 20.6054 132.04 21.518 130.619 21.5222C129.195 21.518 128.271 20.6054 128.271 19.3521V15.323H129.02V19.2932C129.016 20.1764 129.624 20.8115 130.619 20.8157C131.615 20.8115 132.215 20.1764 132.219 19.2932V15.323Z" fill="white" fill-opacity="0.6"/>
<path d="M134.301 21.4129V15.323H136.35C137.762 15.323 138.407 16.1137 138.407 17.1988C138.407 18.0062 138.049 18.6371 137.283 18.9063L138.641 21.4129H137.766L136.504 19.0451C136.458 19.0493 136.408 19.0493 136.358 19.0493H135.051V21.4129H134.301ZM135.051 18.3595H136.325C137.287 18.3595 137.662 17.9221 137.666 17.1988C137.662 16.4712 137.287 15.9959 136.317 15.9959H135.051V18.3595Z" fill="white" fill-opacity="0.6"/>
<path d="M140.24 15.323V21.4129H139.49V15.323H140.24Z" fill="white" fill-opacity="0.6"/>
<path d="M146.362 15.323V21.4129H145.646L142.38 16.6688H142.322V21.4129H141.572V15.323H142.297L145.562 20.0755H145.621V15.323H146.362Z" fill="white" fill-opacity="0.6"/>
<path d="M151.809 17.224C151.551 16.4417 150.964 15.9455 150.102 15.9455C149.036 15.9455 148.19 16.795 148.186 18.3679C148.19 19.9367 149.036 20.7862 150.152 20.7904C151.168 20.7862 151.872 20.1049 151.884 19.024H150.31V18.3595H152.617V19.0156C152.617 20.5255 151.588 21.497 150.152 21.497C148.54 21.497 147.457 20.2942 147.461 18.3679C147.457 16.4417 148.552 15.2389 150.102 15.2389C151.376 15.2389 152.359 16.0464 152.584 17.224H151.809Z" fill="white" fill-opacity="0.6"/>
<path d="M2.20726 51.8907H0.333172V45.8008H2.28223C4.04388 45.8008 5.08087 46.9405 5.08087 48.8373C5.08087 50.7383 4.04388 51.8907 2.20726 51.8907ZM1.08281 51.2177H2.15729C3.63574 51.2177 4.3479 50.3135 4.3479 48.8373C4.3479 47.3653 3.63574 46.4737 2.23225 46.4737H1.08281V51.2177Z" fill="white" fill-opacity="0.6"/>
<path d="M6.18034 51.8907V45.8008H9.8369V46.4737H6.92998V48.5093H9.64533V49.1738H6.92998V51.2177H9.87855V51.8907H6.18034Z" fill="white" fill-opacity="0.6"/>
<path d="M11.2945 45.8008L13.0687 50.9065H13.1353L14.9178 45.8008H15.7091L13.5018 51.8907H12.7105L10.5032 45.8008H11.2945Z" fill="white" fill-opacity="0.6"/>
<path d="M16.5253 51.8907V45.8008H20.1819V46.4737H17.275V48.5093H19.9903V49.1738H17.275V51.2177H20.2235V51.8907H16.5253Z" fill="white" fill-opacity="0.6"/>
<path d="M21.3647 51.8907V45.8008H22.1143V51.2177H24.9129V51.8907H21.3647Z" fill="white" fill-opacity="0.6"/>
<path d="M30.7684 48.8457C30.7726 50.7719 29.6481 51.9748 28.1031 51.9748C26.5538 51.9748 25.4335 50.7719 25.4377 48.8457C25.4335 46.9195 26.5538 45.7167 28.1031 45.7167C29.6481 45.7167 30.7726 46.9195 30.7684 48.8457ZM26.1623 48.8457C26.1665 50.4145 27.0119 51.264 28.1031 51.2682C29.1942 51.264 30.0396 50.4145 30.0438 48.8457C30.0396 47.2728 29.1942 46.4232 28.1031 46.4232C27.0119 46.4232 26.1665 47.2728 26.1623 48.8457Z" fill="white" fill-opacity="0.6"/>
<path d="M31.8679 51.8907V45.8008H33.9169C35.3287 45.8008 35.9743 46.6503 35.9743 47.7354C35.9743 48.8163 35.3287 49.6785 33.9252 49.6785H32.6175V51.8907H31.8679ZM32.6175 49.0055H33.8919C34.854 49.0055 35.2288 48.4588 35.2329 47.7354C35.2288 47.0078 34.854 46.4737 33.8836 46.4737H32.6175V49.0055Z" fill="white" fill-opacity="0.6"/>
<path d="M37.0237 45.8008H37.9233L39.9557 50.814H40.0306L42.063 45.8008H42.9625V51.8907H42.2545V47.2896H42.1962L40.3221 51.8907H39.6558L37.7817 47.2896H37.7317V51.8907H37.0237V45.8008Z" fill="white" fill-opacity="0.6"/>
<path d="M44.2952 51.8907V45.8008H47.9518V46.4737H45.0449V48.5093H47.7602V49.1738H45.0449V51.2177H47.9934V51.8907H44.2952Z" fill="white" fill-opacity="0.6"/>
<path d="M53.9239 45.8008V51.8907H53.2076L49.9425 47.1466H49.8842V51.8907H49.1345V45.8008H49.8592L53.1243 50.5532H53.1826V45.8008H53.9239Z" fill="white" fill-opacity="0.6"/>
<path d="M54.9234 46.4737V45.8008H59.4712V46.4737H57.5805V51.8907H56.8225V46.4737H54.9234Z" fill="white" fill-opacity="0.6"/>
<path d="M153.203 36.6518V30.5619H155.252C156.664 30.5619 157.309 31.4115 157.309 32.4965C157.309 33.5774 156.664 34.4396 155.26 34.4396H153.952V36.6518H153.203ZM153.952 33.7666H155.227C156.189 33.7666 156.564 33.2199 156.568 32.4965C156.564 31.7689 156.189 31.2348 155.218 31.2348H153.952V33.7666Z" fill="white" fill-opacity="0.6"/>
<path d="M158.359 36.6518V30.5619H160.408C161.819 30.5619 162.465 31.3526 162.465 32.4376C162.465 33.2451 162.107 33.876 161.34 34.1452L162.698 36.6518H161.824L160.562 34.2839C160.516 34.2882 160.466 34.2882 160.416 34.2882H159.108V36.6518H158.359ZM159.108 33.5984H160.383C161.345 33.5984 161.719 33.161 161.724 32.4376C161.719 31.7101 161.345 31.2348 160.374 31.2348H159.108V33.5984Z" fill="white" fill-opacity="0.6"/>
<path d="M168.645 33.6068C168.649 35.533 167.525 36.7359 165.98 36.7359C164.431 36.7359 163.31 35.533 163.315 33.6068C163.31 31.6806 164.431 30.4778 165.98 30.4778C167.525 30.4778 168.649 31.6806 168.645 33.6068ZM164.039 33.6068C164.043 35.1756 164.889 36.0251 165.98 36.0293C167.071 36.0251 167.916 35.1756 167.921 33.6068C167.916 32.0339 167.071 31.1843 165.98 31.1843C164.889 31.1843 164.043 32.0339 164.039 33.6068Z" fill="white" fill-opacity="0.6"/>
<path d="M171.619 36.6518H169.745V30.5619H171.694C173.455 30.5619 174.492 31.7016 174.492 33.5984C174.492 35.4994 173.455 36.6518 171.619 36.6518ZM170.494 35.9788H171.569C173.047 35.9788 173.759 35.0746 173.759 33.5984C173.759 32.1264 173.047 31.2348 171.644 31.2348H170.494V35.9788Z" fill="white" fill-opacity="0.6"/>
<path d="M179.54 30.5619H180.29V34.591C180.29 35.8443 179.361 36.7569 177.941 36.7611C176.516 36.7569 175.592 35.8443 175.592 34.591V30.5619H176.342V34.5321C176.337 35.4153 176.945 36.0503 177.941 36.0546C178.936 36.0503 179.536 35.4153 179.54 34.5321V30.5619Z" fill="white" fill-opacity="0.6"/>
<path d="M185.737 32.4797C185.562 31.6386 184.85 31.1843 184.054 31.1843C182.963 31.1843 182.118 32.0339 182.114 33.6068C182.118 35.1756 182.963 36.0251 184.054 36.0293C184.85 36.0251 185.558 35.5751 185.737 34.7424H186.487C186.27 35.9873 185.279 36.7359 184.054 36.7359C182.505 36.7359 181.385 35.533 181.389 33.6068C181.385 31.6806 182.505 30.4778 184.054 30.4778C185.275 30.4778 186.262 31.2138 186.487 32.4797H185.737Z" fill="white" fill-opacity="0.6"/>
<path d="M187.203 31.2348V30.5619H191.751V31.2348H189.86V36.6518H189.102V31.2348H187.203Z" fill="white" fill-opacity="0.6"/>
<path d="M78.5017 0.0841141V6.17398H77.7521V0.0841141H78.5017Z" fill="white" fill-opacity="0.6"/>
<path d="M83.1245 1.61499C83.062 1.01778 82.5123 0.672913 81.7918 0.672913C80.9922 0.672913 80.4716 1.09348 80.4675 1.67387C80.4716 2.31314 81.1754 2.55286 81.6336 2.66642L82.2333 2.83465C82.8788 3.00287 83.9408 3.37718 83.9408 4.51693C83.9408 5.50948 83.1495 6.27912 81.7502 6.28333C80.4508 6.27912 79.647 5.602 79.5762 4.59263H80.3425C80.405 5.27396 81.0339 5.5978 81.7502 5.59359C82.5831 5.5978 83.2078 5.16461 83.2078 4.50011C83.2078 3.9071 82.6497 3.67999 82.0167 3.49915L81.2754 3.29727C80.33 3.0197 79.7386 2.53184 79.7428 1.70752C79.7386 0.677119 80.6465 0 81.8168 0C82.9871 0 83.8283 0.689736 83.8575 1.61499H83.1245Z" fill="white" fill-opacity="0.6"/>
<path d="M86.5478 6.17398H85.7649L87.9722 0.0841141H88.7634L90.9707 6.17398H90.1794L89.5755 4.45805H87.1517L86.5478 6.17398ZM87.3808 3.79355H89.3465L88.3886 1.06825H88.3386L87.3808 3.79355Z" fill="white" fill-opacity="0.6"/>
<path d="M102.294 6.17398H101.511L103.718 0.0841141H104.51L106.717 6.17398H105.926L105.322 4.45805H102.898L102.294 6.17398ZM103.127 3.79355H105.093L104.135 1.06825H104.085L103.127 3.79355Z" fill="white" fill-opacity="0.6"/>
<path d="M111.365 1.98509C111.106 1.20283 110.519 0.706559 109.657 0.706559C108.591 0.706559 107.746 1.55611 107.741 3.12905C107.746 4.69777 108.591 5.54733 109.707 5.55153C110.723 5.54733 111.427 4.866 111.44 3.78514H109.865V3.12063H112.173V3.77672C112.173 5.28657 111.144 6.25809 109.707 6.25809C108.095 6.25809 107.013 5.05526 107.017 3.12905C107.013 1.20283 108.108 0 109.657 0C110.932 0 111.914 0.807496 112.139 1.98509H111.365Z" fill="white" fill-opacity="0.6"/>
<path d="M113.297 6.17398V0.0841141H116.954V0.757027H114.047V2.79259H116.762V3.45709H114.047V5.50106H116.995V6.17398H113.297Z" fill="white" fill-opacity="0.6"/>
<path d="M122.926 0.0841141V6.17398H122.209L118.944 1.42994H118.886V6.17398H118.136V0.0841141H118.861L122.126 4.83656H122.184V0.0841141H122.926Z" fill="white" fill-opacity="0.6"/>
<path d="M123.925 0.757027V0.0841141H128.473V0.757027H126.582V6.17398H125.824V0.757027H123.925Z" fill="white" fill-opacity="0.6"/>
<path d="M130.222 0.0841141V6.17398H129.473V0.0841141H130.222Z" fill="white" fill-opacity="0.6"/>
<path d="M135.67 2.00192C135.495 1.16077 134.783 0.706559 133.987 0.706559C132.896 0.706559 132.05 1.55611 132.046 3.12905C132.05 4.69777 132.896 5.54733 133.987 5.55153C134.783 5.54733 135.49 5.09732 135.67 4.26459H136.419C136.203 5.50948 135.211 6.25809 133.987 6.25809C132.438 6.25809 131.318 5.05526 131.322 3.12905C131.318 1.20283 132.438 0 133.987 0C135.207 0 136.194 0.735999 136.419 2.00192H135.67Z" fill="white" fill-opacity="0.6"/>
<path d="M139.876 6.17398H139.093L141.3 0.0841141H142.091L144.299 6.17398H143.507L142.904 4.45805H140.48L139.876 6.17398ZM140.709 3.79355H142.675L141.717 1.06825H141.667L140.709 3.79355Z" fill="white" fill-opacity="0.6"/>
<path d="M145.865 0.0841141V6.17398H145.115V0.0841141H145.865Z" fill="white" fill-opacity="0.6"/>
<path d="M149.338 6.17398V0.0841141H151.387C152.799 0.0841141 153.444 0.933667 153.444 2.01874C153.444 3.09961 152.799 3.96178 151.395 3.96178H150.088V6.17398H149.338ZM150.088 3.28886H151.362C152.324 3.28886 152.699 2.74212 152.703 2.01874C152.699 1.29115 152.324 0.757027 151.354 0.757027H150.088V3.28886Z" fill="white" fill-opacity="0.6"/>
<path d="M154.494 6.17398V0.0841141H155.243V5.50106H158.042V6.17398H154.494Z" fill="white" fill-opacity="0.6"/>
<path d="M159.675 6.17398H158.892L161.099 0.0841141H161.89L164.097 6.17398H163.306L162.702 4.45805H160.279L159.675 6.17398ZM160.508 3.79355H162.473L161.515 1.06825H161.465L160.508 3.79355Z" fill="white" fill-opacity="0.6"/>
<path d="M163.873 0.757027V0.0841141H168.42V0.757027H166.53V6.17398H165.772V0.757027H163.873Z" fill="white" fill-opacity="0.6"/>
<path d="M169.42 6.17398V0.0841141H173.051V0.757027H170.17V2.79259H172.777V3.45709H170.17V6.17398H169.42Z" fill="white" fill-opacity="0.6"/>
<path d="M179.265 3.12905C179.269 5.05526 178.145 6.25809 176.6 6.25809C175.051 6.25809 173.93 5.05526 173.934 3.12905C173.93 1.20283 175.051 0 176.6 0C178.145 0 179.269 1.20283 179.265 3.12905ZM174.659 3.12905C174.663 4.69777 175.509 5.54733 176.6 5.55153C177.691 5.54733 178.536 4.69777 178.54 3.12905C178.536 1.55611 177.691 0.706559 176.6 0.706559C175.509 0.706559 174.663 1.55611 174.659 3.12905Z" fill="white" fill-opacity="0.6"/>
<path d="M180.365 6.17398V0.0841141H182.414C183.825 0.0841141 184.471 0.874787 184.471 1.95986C184.471 2.76735 184.113 3.39821 183.346 3.66738L184.704 6.17398H183.83L182.568 3.80616C182.522 3.81037 182.472 3.81037 182.422 3.81037H181.114V6.17398H180.365ZM181.114 3.12063H182.389C183.351 3.12063 183.725 2.68324 183.73 1.95986C183.725 1.23227 183.351 0.757027 182.38 0.757027H181.114V3.12063Z" fill="white" fill-opacity="0.6"/>
<path d="M185.554 0.0841141H186.453L188.486 5.09732H188.561L190.593 0.0841141H191.493V6.17398H190.785V1.57293H190.726L188.852 6.17398H188.186L186.312 1.57293H186.262V6.17398H185.554V0.0841141Z" fill="white" fill-opacity="0.6"/>
<path d="M9.86125 1.81428H13.0746V5.05933H9.86125V1.81428Z" fill="white" fill-opacity="0.6"/>
</svg>
