<svg width="158" height="48" viewBox="0 0 158 48" fill="none" xmlns="http://www.w3.org/2000/svg">
<path d="M5.97959 2.42063V9H5.06175L1.72663 4.1927H1.6721V9H0.672477V2.42063H1.5994L4.93453 7.23702H4.99814V2.42063H5.97959ZM7.88797 9H6.82473L9.18749 2.42063H10.3416L12.7134 9H11.6502L11.0504 7.26428H8.48775L7.88797 9ZM8.77855 6.42823H10.7596L9.78726 3.62019H9.74183L8.77855 6.42823ZM13.5495 9V2.42063H15.8941C17.4208 2.42063 18.1751 3.27486 18.1751 4.4835C18.1751 5.36953 17.7752 6.04201 16.9755 6.33736L18.4295 9H17.2936L15.9577 6.51911H15.8941H14.5491V9H13.5495ZM14.5491 5.65579H15.7941C16.7665 5.65579 17.1663 5.22868 17.1663 4.4835C17.1663 3.73832 16.7665 3.27486 15.7941 3.27486H14.5491V5.65579ZM24.5908 2.42063V9H23.673L20.3379 4.1927H20.2834V9H19.2837V2.42063H20.2107L23.5458 7.23702H23.6094V2.42063H24.5908ZM26.9354 2.42063V9H25.9358V2.42063H26.9354ZM28.8347 9H27.7715L30.1342 2.42063H31.2883L33.6602 9H32.597L31.9972 7.26428H29.4345L28.8347 9ZM29.7253 6.42823H31.7064L30.734 3.62019H30.6886L29.7253 6.42823ZM36.7681 9V2.42063H37.7678V8.13669H40.7394V9H36.7681ZM42.6568 9H41.5936L43.9564 2.42063H45.1105L47.4823 9H46.4191L45.8193 7.26428H43.2566L42.6568 9ZM43.5474 6.42823H45.5285L44.5561 3.62019H44.5107L43.5474 6.42823ZM48.3184 9V2.42063H50.7266C52.126 2.42063 52.8076 3.1749 52.8076 4.14726C52.8076 4.96514 52.3078 5.38316 51.6989 5.53765V5.60127C52.3532 5.63762 53.0621 6.21013 53.0621 7.22793C53.0621 8.23665 52.3714 9 50.8356 9H48.3184ZM50.7447 8.14577C51.6898 8.14577 52.0715 7.72775 52.0715 7.18249C52.0715 6.55546 51.5717 6.04655 50.7811 6.04655H49.318V8.14577H50.7447ZM50.6448 5.26503C51.3082 5.26503 51.8262 4.85609 51.8262 4.22905C51.8262 3.6838 51.4536 3.27486 50.663 3.27486H49.318V5.26503H50.6448ZM57.7149 4.15635C57.6513 3.54748 57.1151 3.19307 56.3608 3.19307C55.552 3.19307 55.0431 3.60201 55.0431 4.16544C55.0431 4.79248 55.7247 5.02875 56.2427 5.15598L56.8788 5.32864C57.724 5.52857 58.769 5.99203 58.7781 7.18249C58.769 8.29117 57.8875 9.10905 56.3336 9.10905C54.8614 9.10905 53.9345 8.37296 53.8708 7.17341H54.8705C54.9341 7.89132 55.5611 8.23665 56.3336 8.23665C57.1696 8.23665 57.7785 7.80953 57.7876 7.16432C57.7785 6.59181 57.2423 6.35553 56.5426 6.17378L55.7611 5.96477C54.7069 5.67397 54.0435 5.1378 54.0435 4.21996C54.0435 3.08402 55.0613 2.32976 56.3881 2.32976C57.724 2.32976 58.66 3.09311 58.6872 4.15635H57.7149Z" fill="#515151"/>
<path d="M5.97959 13.4714V20.0508H5.06175L1.72663 15.2435H1.6721V20.0508H0.672477V13.4714H1.5994L4.93453 18.2878H4.99814V13.4714H5.97959ZM7.88797 20.0508H6.82473L9.18749 13.4714H10.3416L12.7134 20.0508H11.6502L11.0504 18.3151H8.48775L7.88797 20.0508ZM8.77855 17.479H10.7596L9.78726 14.671H9.74183L8.77855 17.479ZM13.5495 20.0508V13.4714H15.8941C17.4208 13.4714 18.1751 14.3256 18.1751 15.5343C18.1751 16.4203 17.7752 17.0928 16.9755 17.3881L18.4295 20.0508H17.2936L15.9577 17.5699H15.8941H14.5491V20.0508H13.5495ZM14.5491 16.7066H15.7941C16.7665 16.7066 17.1663 16.2795 17.1663 15.5343C17.1663 14.7891 16.7665 14.3256 15.7941 14.3256H14.5491V16.7066ZM24.5908 13.4714V20.0508H23.673L20.3379 15.2435H20.2834V20.0508H19.2837V13.4714H20.2107L23.5458 18.2878H23.6094V13.4714H24.5908ZM26.9354 13.4714V20.0508H25.9358V13.4714H26.9354ZM28.8347 20.0508H27.7715L30.1342 13.4714H31.2883L33.6602 20.0508H32.597L31.9972 18.3151H29.4345L28.8347 20.0508ZM29.7253 17.479H31.7064L30.734 14.671H30.6886L29.7253 17.479Z" fill="#515151"/>
<path d="M77.5167 2.42063V9H76.5989L73.2637 4.1927H73.2092V9H72.2096V2.42063H73.1365L76.4716 7.23702H76.5352V2.42063H77.5167ZM79.4251 9H78.3618L80.7246 2.42063H81.8787L84.2506 9H83.1873L82.5875 7.26428H80.0249L79.4251 9ZM80.3157 6.42823H82.2967L81.3244 3.62019H81.2789L80.3157 6.42823ZM85.0866 9V2.42063H87.4312C88.9579 2.42063 89.7122 3.27486 89.7122 4.4835C89.7122 5.36953 89.3123 6.04201 88.5126 6.33736L89.9666 9H88.8307L87.4948 6.51911H87.4312H86.0862V9H85.0866ZM86.0862 5.65579H87.3312C88.3036 5.65579 88.7034 5.22868 88.7034 4.4835C88.7034 3.73832 88.3036 3.27486 87.3312 3.27486H86.0862V5.65579ZM96.128 2.42063V9H95.2101L91.875 4.1927H91.8205V9H90.8208V2.42063H91.7478L95.0829 7.23702H95.1465V2.42063H96.128ZM98.4725 2.42063V9H97.4729V2.42063H98.4725ZM100.372 9H99.3086L101.671 2.42063H102.825L105.197 9H104.134L103.534 7.26428H100.972L100.372 9ZM101.262 6.42823H103.243L102.271 3.62019H102.226L101.262 6.42823ZM108.305 9V2.42063H109.305V8.13669H112.276V9H108.305ZM114.194 9H113.131L115.493 2.42063H116.648L119.019 9H117.956L117.356 7.26428H114.794L114.194 9ZM115.085 6.42823H117.066L116.093 3.62019H116.048L115.085 6.42823ZM119.855 9V2.42063H122.264C123.663 2.42063 124.345 3.1749 124.345 4.14726C124.345 4.96514 123.845 5.38316 123.236 5.53765V5.60127C123.89 5.63762 124.599 6.21013 124.599 7.22793C124.599 8.23665 123.909 9 122.373 9H119.855ZM122.282 8.14577C123.227 8.14577 123.609 7.72775 123.609 7.18249C123.609 6.55546 123.109 6.04655 122.318 6.04655H120.855V8.14577H122.282ZM122.182 5.26503C122.845 5.26503 123.363 4.85609 123.363 4.22905C123.363 3.6838 122.991 3.27486 122.2 3.27486H120.855V5.26503H122.182ZM129.252 4.15635C129.188 3.54748 128.652 3.19307 127.898 3.19307C127.089 3.19307 126.58 3.60201 126.58 4.16544C126.58 4.79248 127.262 5.02875 127.78 5.15598L128.416 5.32864C129.261 5.52857 130.306 5.99203 130.315 7.18249C130.306 8.29117 129.425 9.10905 127.871 9.10905C126.398 9.10905 125.472 8.37296 125.408 7.17341H126.408C126.471 7.89132 127.098 8.23665 127.871 8.23665C128.707 8.23665 129.316 7.80953 129.325 7.16432C129.316 6.59181 128.779 6.35553 128.08 6.17378L127.298 5.96477C126.244 5.67397 125.581 5.1378 125.581 4.21996C125.581 3.08402 126.598 2.32976 127.925 2.32976C129.261 2.32976 130.197 3.09311 130.224 4.15635H129.252Z" fill="#515151"/>
<path d="M5.97959 39.4206V46H5.06175L1.72663 41.1927H1.6721V46H0.672477V39.4206H1.5994L4.93453 44.237H4.99814V39.4206H5.97959ZM7.88797 46H6.82473L9.18749 39.4206H10.3416L12.7134 46H11.6502L11.0504 44.2643H8.48775L7.88797 46ZM8.77855 43.4282H10.7596L9.78726 40.6202H9.74183L8.77855 43.4282ZM13.5495 46V39.4206H15.8941C17.4208 39.4206 18.1751 40.2749 18.1751 41.4835C18.1751 42.3695 17.7752 43.042 16.9755 43.3374L18.4295 46H17.2936L15.9577 43.5191H15.8941H14.5491V46H13.5495ZM14.5491 42.6558H15.7941C16.7665 42.6558 17.1663 42.2287 17.1663 41.4835C17.1663 40.7383 16.7665 40.2749 15.7941 40.2749H14.5491V42.6558ZM24.5908 39.4206V46H23.673L20.3379 41.1927H20.2834V46H19.2837V39.4206H20.2107L23.5458 44.237H23.6094V39.4206H24.5908ZM26.9354 39.4206V46H25.9358V39.4206H26.9354ZM28.8347 46H27.7715L30.1342 39.4206H31.2883L33.6602 46H32.597L31.9972 44.2643H29.4345L28.8347 46ZM29.7253 43.4282H31.7064L30.734 40.6202H30.6886L29.7253 43.4282ZM36.7681 46V39.4206H37.7678V45.1367H40.7394V46H36.7681ZM42.6568 46H41.5936L43.9564 39.4206H45.1105L47.4823 46H46.4191L45.8193 44.2643H43.2566L42.6568 46ZM43.5474 43.4282H45.5285L44.5561 40.6202H44.5107L43.5474 43.4282ZM48.3184 46V39.4206H50.7266C52.126 39.4206 52.8076 40.1749 52.8076 41.1473C52.8076 41.9651 52.3078 42.3832 51.6989 42.5377V42.6013C52.3532 42.6376 53.0621 43.2101 53.0621 44.2279C53.0621 45.2366 52.3714 46 50.8356 46H48.3184ZM50.7447 45.1458C51.6898 45.1458 52.0715 44.7277 52.0715 44.1825C52.0715 43.5555 51.5717 43.0466 50.7811 43.0466H49.318V45.1458H50.7447ZM50.6448 42.265C51.3082 42.265 51.8262 41.8561 51.8262 41.229C51.8262 40.6838 51.4536 40.2749 50.663 40.2749H49.318V42.265H50.6448ZM57.7149 41.1563C57.6513 40.5475 57.1151 40.1931 56.3608 40.1931C55.552 40.1931 55.0431 40.602 55.0431 41.1654C55.0431 41.7925 55.7247 42.0288 56.2427 42.156L56.8788 42.3286C57.724 42.5286 58.769 42.992 58.7781 44.1825C58.769 45.2912 57.8875 46.1091 56.3336 46.1091C54.8614 46.1091 53.9345 45.373 53.8708 44.1734H54.8705C54.9341 44.8913 55.5611 45.2366 56.3336 45.2366C57.1696 45.2366 57.7785 44.8095 57.7876 44.1643C57.7785 43.5918 57.2423 43.3555 56.5426 43.1738L55.7611 42.9648C54.7069 42.674 54.0435 42.1378 54.0435 41.22C54.0435 40.084 55.0613 39.3298 56.3881 39.3298C57.724 39.3298 58.66 40.0931 58.6872 41.1563H57.7149Z" fill="#515151"/>
<path d="M44.3644 13.4714V20.0508H43.4465L40.1114 15.2435H40.0569V20.0508H39.0572V13.4714H39.9842L43.3193 18.2878H43.3829V13.4714H44.3644ZM46.2727 20.0508H45.2095L47.5723 13.4714H48.7264L51.0982 20.0508H50.035L49.4352 18.3151H46.8725L46.2727 20.0508ZM47.1633 17.479H49.1444L48.172 14.671H48.1266L47.1633 17.479ZM51.9343 20.0508V13.4714H54.2788C55.8056 13.4714 56.5598 14.3256 56.5598 15.5343C56.5598 16.4203 56.16 17.0928 55.3603 17.3881L56.8143 20.0508H55.6783L54.3425 17.5699H54.2788H52.9339V20.0508H51.9343ZM52.9339 16.7066H54.1789C55.1513 16.7066 55.5511 16.2795 55.5511 15.5343C55.5511 14.7891 55.1513 14.3256 54.1789 14.3256H52.9339V16.7066ZM62.9756 13.4714V20.0508H62.0578L58.7226 15.2435H58.6681V20.0508H57.6685V13.4714H58.5954L61.9305 18.2878H61.9942V13.4714H62.9756ZM65.3202 13.4714V20.0508H64.3206V13.4714H65.3202ZM67.2195 20.0508H66.1562L68.519 13.4714H69.6731L72.045 20.0508H70.9817L70.3819 18.3151H67.8193L67.2195 20.0508ZM68.1101 17.479H70.0911L69.1188 14.671H69.0733L68.1101 17.479ZM75.1529 20.0508V13.4714H76.1525V19.1875H79.1241V20.0508H75.1529ZM81.0416 20.0508H79.9784L82.3411 13.4714H83.4952L85.8671 20.0508H84.8038L84.2041 18.3151H81.6414L81.0416 20.0508ZM81.9322 17.479H83.9133L82.9409 14.671H82.8955L81.9322 17.479ZM86.7031 20.0508V13.4714H89.1113C90.5108 13.4714 91.1924 14.2257 91.1924 15.198C91.1924 16.0159 90.6926 16.4339 90.0837 16.5884V16.652C90.738 16.6884 91.4468 17.2609 91.4468 18.2787C91.4468 19.2874 90.7562 20.0508 89.2204 20.0508H86.7031ZM89.1295 19.1966C90.0746 19.1966 90.4563 18.7785 90.4563 18.2333C90.4563 17.6062 89.9565 17.0973 89.1659 17.0973H87.7028V19.1966H89.1295ZM89.0295 16.3158C89.6929 16.3158 90.2109 15.9069 90.2109 15.2798C90.2109 14.7346 89.8383 14.3256 89.0477 14.3256H87.7028V16.3158H89.0295ZM96.0996 15.2071C96.036 14.5983 95.4999 14.2439 94.7456 14.2439C93.9368 14.2439 93.4279 14.6528 93.4279 15.2162C93.4279 15.8433 94.1095 16.0795 94.6275 16.2068L95.2636 16.3794C96.1087 16.5793 97.1538 17.0428 97.1629 18.2333C97.1538 19.342 96.2723 20.1598 94.7183 20.1598C93.2462 20.1598 92.3192 19.4237 92.2556 18.2242H93.2552C93.3189 18.9421 93.9459 19.2874 94.7183 19.2874C95.5544 19.2874 96.1633 18.8603 96.1723 18.2151C96.1633 17.6426 95.6271 17.4063 94.9273 17.2246L94.1458 17.0155C93.0917 16.7247 92.4283 16.1886 92.4283 15.2707C92.4283 14.1348 93.4461 13.3805 94.7729 13.3805C96.1087 13.3805 97.0447 14.1439 97.072 15.2071H96.0996Z" fill="#515151"/>
<path d="M134.44 20.0508V13.4714H135.44V19.1875H138.411V20.0508H134.44ZM140.329 20.0508H139.266L141.628 13.4714H142.782L145.154 20.0508H144.091L143.491 18.3151H140.929L140.329 20.0508ZM141.219 17.479H143.2L142.228 14.671H142.183L141.219 17.479ZM145.99 20.0508V13.4714H148.398C149.798 13.4714 150.48 14.2257 150.48 15.198C150.48 16.0159 149.98 16.4339 149.371 16.5884V16.652C150.025 16.6884 150.734 17.2609 150.734 18.2787C150.734 19.2874 150.043 20.0508 148.508 20.0508H145.99ZM148.417 19.1966C149.362 19.1966 149.743 18.7785 149.743 18.2333C149.743 17.6062 149.244 17.0973 148.453 17.0973H146.99V19.1966H148.417ZM148.317 16.3158C148.98 16.3158 149.498 15.9069 149.498 15.2798C149.498 14.7346 149.125 14.3256 148.335 14.3256H146.99V16.3158H148.317ZM155.387 15.2071C155.323 14.5983 154.787 14.2439 154.033 14.2439C153.224 14.2439 152.715 14.6528 152.715 15.2162C152.715 15.8433 153.397 16.0795 153.915 16.2068L154.551 16.3794C155.396 16.5793 156.441 17.0428 156.45 18.2333C156.441 19.342 155.559 20.1598 154.005 20.1598C152.533 20.1598 151.606 19.4237 151.543 18.2242H152.542C152.606 18.9421 153.233 19.2874 154.005 19.2874C154.842 19.2874 155.45 18.8603 155.46 18.2151C155.45 17.6426 154.914 17.4063 154.215 17.2246L153.433 17.0155C152.379 16.7247 151.715 16.1886 151.715 15.2707C151.715 14.1348 152.733 13.3805 154.06 13.3805C155.396 13.3805 156.332 14.1439 156.359 15.2071H155.387Z" fill="#515151"/>
</svg>
