<svg width="75" height="88" viewBox="0 0 75 88" fill="none" xmlns="http://www.w3.org/2000/svg">
<path d="M4.66797 4.29492L0.078125 6.51172V5.45703L3.42773 3.92383V3.875L0.078125 2.35156V1.28711L4.66797 3.51367V4.29492ZM16.8555 0.28125V7.35156H15.8691L12.2852 2.18555H12.2266V7.35156H11.1523V0.28125H12.1484L15.7324 5.45703H15.8008V0.28125H16.8555ZM17.9688 5.85742C17.9688 4.64648 18.9941 4.33398 19.9512 4.26562C20.3027 4.24121 21.0986 4.19727 21.3477 4.1875L21.3379 3.76758C21.3379 3.17188 20.9766 2.82031 20.2637 2.82031C19.6484 2.82031 19.2773 3.10352 19.1699 3.49414H18.1348C18.2324 2.61523 19.0527 1.98047 20.3027 1.98047C21.1426 1.98047 22.3828 2.29297 22.3828 3.82617V7.35156H21.3672V6.62891H21.3281C21.123 7.0293 20.6348 7.46875 19.7559 7.46875C18.75 7.46875 17.9688 6.89258 17.9688 5.85742ZM18.9844 5.86719C18.9844 6.375 19.4043 6.63867 19.9902 6.63867C20.8398 6.63867 21.3477 6.07227 21.3477 5.4375V4.94922L20.0977 5.03711C19.4141 5.08594 18.9844 5.33984 18.9844 5.86719ZM23.6426 7.35156V2.04883H24.6484V2.88867H24.707C24.9023 2.32227 25.4297 1.9707 26.0547 1.9707C26.1816 1.9707 26.3867 1.98047 26.4941 1.99023V2.98633C26.4062 2.9668 26.1621 2.92773 25.9473 2.92773C25.2246 2.92773 24.6875 3.42578 24.6875 4.11914V7.35156H23.6426ZM28.3203 4.20703V7.35156H27.2754V2.04883H28.2812V2.91797H28.3398C28.5938 2.35156 29.1113 1.98047 29.9023 1.98047C30.9961 1.98047 31.709 2.66406 31.709 3.98242V7.35156H30.6738V4.10938C30.6738 3.33789 30.2539 2.87891 29.5508 2.87891C28.8379 2.87891 28.3203 3.35742 28.3203 4.20703ZM32.9785 7.35156V2.04883H34.0234V7.35156H32.9785ZM33.5059 1.22852C33.1445 1.22852 32.8418 0.955078 32.8418 0.613281C32.8418 0.271484 33.1445 -0.00195312 33.5059 -0.00195312C33.8574 -0.00195312 34.1602 0.271484 34.1602 0.613281C34.1602 0.955078 33.8574 1.22852 33.5059 1.22852ZM35.0488 5.85742C35.0488 4.64648 36.0742 4.33398 37.0312 4.26562C37.3828 4.24121 38.1787 4.19727 38.4277 4.1875L38.418 3.76758C38.418 3.17188 38.0566 2.82031 37.3438 2.82031C36.7285 2.82031 36.3574 3.10352 36.25 3.49414H35.2148C35.3125 2.61523 36.1328 1.98047 37.3828 1.98047C38.2227 1.98047 39.4629 2.29297 39.4629 3.82617V7.35156H38.4473V6.62891H38.4082C38.2031 7.0293 37.7148 7.46875 36.8359 7.46875C35.8301 7.46875 35.0488 6.89258 35.0488 5.85742ZM36.0645 5.86719C36.0645 6.375 36.4844 6.63867 37.0703 6.63867C37.9199 6.63867 38.4277 6.07227 38.4277 5.4375V4.94922L37.1777 5.03711C36.4941 5.08594 36.0645 5.33984 36.0645 5.86719ZM43.252 7.35156V0.28125H44.3262V6.42383H47.5195V7.35156H43.252ZM48.291 5.85742C48.291 4.64648 49.3164 4.33398 50.2734 4.26562C50.625 4.24121 51.4209 4.19727 51.6699 4.1875L51.6602 3.76758C51.6602 3.17188 51.2988 2.82031 50.5859 2.82031C49.9707 2.82031 49.5996 3.10352 49.4922 3.49414H48.457C48.5547 2.61523 49.375 1.98047 50.625 1.98047C51.4648 1.98047 52.7051 2.29297 52.7051 3.82617V7.35156H51.6895V6.62891H51.6504C51.4453 7.0293 50.957 7.46875 50.0781 7.46875C49.0723 7.46875 48.291 6.89258 48.291 5.85742ZM49.3066 5.86719C49.3066 6.375 49.7266 6.63867 50.3125 6.63867C51.1621 6.63867 51.6699 6.07227 51.6699 5.4375V4.94922L50.4199 5.03711C49.7363 5.08594 49.3066 5.33984 49.3066 5.86719ZM54.0527 7.35156V0.28125H55.0879V2.9082H55.1465C55.3418 2.57617 55.6934 1.98047 56.6699 1.98047C57.9492 1.98047 58.9062 2.98633 58.9062 4.71484C58.9062 6.42383 57.9688 7.45898 56.6797 7.45898C55.7129 7.45898 55.3418 6.87305 55.1465 6.52148H55.0684V7.35156H54.0527ZM55.0684 4.69531C55.0684 5.80859 55.5664 6.57031 56.4453 6.57031C57.3633 6.57031 57.8418 5.75977 57.8418 4.69531C57.8418 3.65039 57.373 2.86914 56.4453 2.86914C55.5566 2.86914 55.0684 3.5918 55.0684 4.69531ZM62.9199 3.49414C62.8223 3.07422 62.4902 2.80078 61.9141 2.80078C61.3184 2.80078 60.8887 3.11328 60.8984 3.51367C60.8887 3.82617 61.1426 4.05078 61.7285 4.1875L62.5684 4.38281C63.5449 4.59766 64.0137 5.06641 64.0234 5.81836C64.0137 6.77539 63.2129 7.45898 61.8555 7.45898C60.5859 7.45898 59.8242 6.89258 59.6973 5.90625H60.7617C60.8496 6.38477 61.2207 6.61914 61.8457 6.61914C62.5195 6.61914 62.9492 6.3457 62.959 5.89648C62.9492 5.55469 62.6953 5.33008 62.1387 5.20312L61.3086 5.02734C60.3516 4.8125 59.8535 4.30469 59.8535 3.57227C59.8535 2.625 60.6738 1.98047 61.9043 1.98047C63.0859 1.98047 63.8184 2.58594 63.9258 3.49414H62.9199ZM68.1641 7.41992C67.7832 7.41992 67.4609 7.10742 67.4707 6.72656C67.4609 6.3457 67.7832 6.0332 68.1641 6.0332C68.5352 6.0332 68.8574 6.3457 68.8574 6.72656C68.8574 7.10742 68.5352 7.41992 68.1641 7.41992ZM70.8008 7.41992C70.4199 7.41992 70.0977 7.10742 70.1074 6.72656C70.0977 6.3457 70.4199 6.0332 70.8008 6.0332C71.1719 6.0332 71.4941 6.3457 71.4941 6.72656C71.4941 7.10742 71.1719 7.41992 70.8008 7.41992ZM73.4375 7.41992C73.0566 7.41992 72.7344 7.10742 72.7441 6.72656C72.7344 6.3457 73.0566 6.0332 73.4375 6.0332C73.8086 6.0332 74.1309 6.3457 74.1309 6.72656C74.1309 7.10742 73.8086 7.41992 73.4375 7.41992ZM4.66797 20.2949L0.078125 22.5117V21.457L3.42773 19.9238V19.875L0.078125 18.3516V17.2871L4.66797 19.5137V20.2949ZM16.8555 16.2812V23.3516H15.8691L12.2852 18.1855H12.2266V23.3516H11.1523V16.2812H12.1484L15.7324 21.457H15.8008V16.2812H16.8555ZM17.9688 21.8574C17.9688 20.6465 18.9941 20.334 19.9512 20.2656C20.3027 20.2412 21.0986 20.1973 21.3477 20.1875L21.3379 19.7676C21.3379 19.1719 20.9766 18.8203 20.2637 18.8203C19.6484 18.8203 19.2773 19.1035 19.1699 19.4941H18.1348C18.2324 18.6152 19.0527 17.9805 20.3027 17.9805C21.1426 17.9805 22.3828 18.293 22.3828 19.8262V23.3516H21.3672V22.6289H21.3281C21.123 23.0293 20.6348 23.4688 19.7559 23.4688C18.75 23.4688 17.9688 22.8926 17.9688 21.8574ZM18.9844 21.8672C18.9844 22.375 19.4043 22.6387 19.9902 22.6387C20.8398 22.6387 21.3477 22.0723 21.3477 21.4375V20.9492L20.0977 21.0371C19.4141 21.0859 18.9844 21.3398 18.9844 21.8672ZM23.6426 23.3516V18.0488H24.6484V18.8887H24.707C24.9023 18.3223 25.4297 17.9707 26.0547 17.9707C26.1816 17.9707 26.3867 17.9805 26.4941 17.9902V18.9863C26.4062 18.9668 26.1621 18.9277 25.9473 18.9277C25.2246 18.9277 24.6875 19.4258 24.6875 20.1191V23.3516H23.6426ZM28.3203 20.207V23.3516H27.2754V18.0488H28.2812V18.918H28.3398C28.5938 18.3516 29.1113 17.9805 29.9023 17.9805C30.9961 17.9805 31.709 18.6641 31.709 19.9824V23.3516H30.6738V20.1094C30.6738 19.3379 30.2539 18.8789 29.5508 18.8789C28.8379 18.8789 28.3203 19.3574 28.3203 20.207ZM32.9785 23.3516V18.0488H34.0234V23.3516H32.9785ZM33.5059 17.2285C33.1445 17.2285 32.8418 16.9551 32.8418 16.6133C32.8418 16.2715 33.1445 15.998 33.5059 15.998C33.8574 15.998 34.1602 16.2715 34.1602 16.6133C34.1602 16.9551 33.8574 17.2285 33.5059 17.2285ZM35.0488 21.8574C35.0488 20.6465 36.0742 20.334 37.0312 20.2656C37.3828 20.2412 38.1787 20.1973 38.4277 20.1875L38.418 19.7676C38.418 19.1719 38.0566 18.8203 37.3438 18.8203C36.7285 18.8203 36.3574 19.1035 36.25 19.4941H35.2148C35.3125 18.6152 36.1328 17.9805 37.3828 17.9805C38.2227 17.9805 39.4629 18.293 39.4629 19.8262V23.3516H38.4473V22.6289H38.4082C38.2031 23.0293 37.7148 23.4688 36.8359 23.4688C35.8301 23.4688 35.0488 22.8926 35.0488 21.8574ZM36.0645 21.8672C36.0645 22.375 36.4844 22.6387 37.0703 22.6387C37.9199 22.6387 38.4277 22.0723 38.4277 21.4375V20.9492L37.1777 21.0371C36.4941 21.0859 36.0645 21.3398 36.0645 21.8672ZM43.8477 23.4199C43.4668 23.4199 43.1445 23.1074 43.1543 22.7266C43.1445 22.3457 43.4668 22.0332 43.8477 22.0332C44.2188 22.0332 44.541 22.3457 44.541 22.7266C44.541 23.1074 44.2188 23.4199 43.8477 23.4199ZM46.4844 23.4199C46.1035 23.4199 45.7812 23.1074 45.791 22.7266C45.7812 22.3457 46.1035 22.0332 46.4844 22.0332C46.8555 22.0332 47.1777 22.3457 47.1777 22.7266C47.1777 23.1074 46.8555 23.4199 46.4844 23.4199ZM49.1211 23.4199C48.7402 23.4199 48.418 23.1074 48.4277 22.7266C48.418 22.3457 48.7402 22.0332 49.1211 22.0332C49.4922 22.0332 49.8145 22.3457 49.8145 22.7266C49.8145 23.1074 49.4922 23.4199 49.1211 23.4199ZM4.66797 36.2949L0.078125 38.5117V37.457L3.42773 35.9238V35.875L0.078125 34.3516V33.2871L4.66797 35.5137V36.2949ZM11.1523 39.3516V32.2812H15.5859V33.209H12.2266V35.3477H15.3516V36.2656H12.2266V38.4238H15.625V39.3516H11.1523ZM21.3672 34.0488L19.4434 39.3516H18.3203L16.3965 34.0488H17.5195L18.8574 38.1211H18.9062L20.2441 34.0488H21.3672ZM24.3164 39.459C22.7539 39.459 21.7969 38.3848 21.7969 36.7344C21.7969 35.1035 22.7734 33.9805 24.248 33.9805C25.459 33.9805 26.6016 34.7324 26.6016 36.6465V37.0176H22.832C22.8613 38.0234 23.4521 38.5996 24.3262 38.5996C24.9219 38.5996 25.3027 38.3457 25.4785 38.0234H26.5332C26.2988 38.8828 25.4785 39.459 24.3164 39.459ZM22.8418 36.2363H25.5762C25.5762 35.4258 25.0586 34.8398 24.2578 34.8398C23.4229 34.8398 22.8809 35.4844 22.8418 36.2363ZM28.6816 36.207V39.3516H27.6367V34.0488H28.6426V34.918H28.7012C28.9551 34.3516 29.4727 33.9805 30.2637 33.9805C31.3574 33.9805 32.0703 34.6641 32.0703 35.9824V39.3516H31.0352V36.1094C31.0352 35.3379 30.6152 34.8789 29.9121 34.8789C29.1992 34.8789 28.6816 35.3574 28.6816 36.207ZM35.8203 34.0488V34.8789H34.7363V37.7891C34.7363 38.3848 35.0391 38.4922 35.3711 38.502C35.5176 38.502 35.752 38.4824 35.8984 38.4727V39.3809C35.752 39.4004 35.5273 39.4199 35.2441 39.4199C34.4238 39.4199 33.6914 38.9707 33.7012 38.0039V34.8789H32.9199V34.0488H33.7012V32.7793H34.7363V34.0488H35.8203ZM39.7266 35.4941C39.6289 35.0742 39.2969 34.8008 38.7207 34.8008C38.125 34.8008 37.6953 35.1133 37.7051 35.5137C37.6953 35.8262 37.9492 36.0508 38.5352 36.1875L39.375 36.3828C40.3516 36.5977 40.8203 37.0664 40.8301 37.8184C40.8203 38.7754 40.0195 39.459 38.6621 39.459C37.3926 39.459 36.6309 38.8926 36.5039 37.9062H37.5684C37.6562 38.3848 38.0273 38.6191 38.6523 38.6191C39.3262 38.6191 39.7559 38.3457 39.7656 37.8965C39.7559 37.5547 39.502 37.3301 38.9453 37.2031L38.1152 37.0273C37.1582 36.8125 36.6602 36.3047 36.6602 35.5723C36.6602 34.625 37.4805 33.9805 38.7109 33.9805C39.8926 33.9805 40.625 34.5859 40.7324 35.4941H39.7266ZM42.5293 39.4199C42.1484 39.4199 41.8262 39.1074 41.8359 38.7266C41.8262 38.3457 42.1484 38.0332 42.5293 38.0332C42.9004 38.0332 43.2227 38.3457 43.2227 38.7266C43.2227 39.1074 42.9004 39.4199 42.5293 39.4199ZM45.166 39.4199C44.7852 39.4199 44.4629 39.1074 44.4727 38.7266C44.4629 38.3457 44.7852 38.0332 45.166 38.0332C45.5371 38.0332 45.8594 38.3457 45.8594 38.7266C45.8594 39.1074 45.5371 39.4199 45.166 39.4199ZM0 68.2363L0.683594 67.5527L2.43164 69.2617L6.12305 65.5898L6.81641 66.2734L2.43164 70.6484L0 68.2363ZM15.5762 66.5859C15.4004 65.6777 14.6484 65.1699 13.75 65.1699C12.5293 65.1699 11.6211 66.1074 11.6211 67.8164C11.6211 69.5352 12.5391 70.4629 13.75 70.4629C14.6387 70.4629 15.3906 69.9648 15.5762 69.0664L16.6602 69.0762C16.4355 70.4727 15.293 71.4492 13.7402 71.4492C11.8945 71.4492 10.5566 70.0723 10.5566 67.8164C10.5566 65.5508 11.9043 64.1836 13.7402 64.1836C15.2344 64.1836 16.416 65.0625 16.6602 66.5859H15.5762ZM19.9805 71.459C18.4766 71.459 17.5 70.3652 17.5 68.7246C17.5 67.0742 18.4766 65.9805 19.9805 65.9805C21.4746 65.9805 22.4512 67.0742 22.4512 68.7246C22.4512 70.3652 21.4746 71.459 19.9805 71.459ZM19.9805 70.5898C20.9375 70.5898 21.3965 69.7402 21.3965 68.7246C21.3965 67.709 20.9375 66.8398 19.9805 66.8398C19.0039 66.8398 18.5449 67.709 18.5449 68.7246C18.5449 69.7402 19.0039 70.5898 19.9805 70.5898ZM24.5215 68.207V71.3516H23.4766V66.0488H24.4824V66.918H24.541C24.7949 66.3516 25.3125 65.9805 26.1035 65.9805C27.1973 65.9805 27.9102 66.6641 27.9102 67.9824V71.3516H26.875V68.1094C26.875 67.3379 26.4551 66.8789 25.752 66.8789C25.0391 66.8789 24.5215 67.3574 24.5215 68.207ZM31.709 66.0488V66.8789H30.5664V71.3516H29.5215V66.8789H28.7012V66.0488H29.5215V65.4336C29.5215 64.4863 30.127 63.9492 31.1035 63.9492C31.3574 63.9492 31.6113 63.9785 31.8164 64.0176V64.8867C31.6211 64.8574 31.4746 64.8477 31.377 64.8477C30.8203 64.8477 30.5664 65.0723 30.5664 65.5898V66.0488H31.709ZM34.7266 71.459C33.1641 71.459 32.207 70.3848 32.207 68.7344C32.207 67.1035 33.1836 65.9805 34.6582 65.9805C35.8691 65.9805 37.0117 66.7324 37.0117 68.6465V69.0176H33.2422C33.2715 70.0234 33.8623 70.5996 34.7363 70.5996C35.332 70.5996 35.7129 70.3457 35.8887 70.0234H36.9434C36.709 70.8828 35.8887 71.459 34.7266 71.459ZM33.252 68.2363H35.9863C35.9863 67.4258 35.4688 66.8398 34.668 66.8398C33.833 66.8398 33.291 67.4844 33.252 68.2363ZM38.0469 71.3516V66.0488H39.0527V66.8887H39.1113C39.3066 66.3223 39.834 65.9707 40.459 65.9707C40.5859 65.9707 40.791 65.9805 40.8984 65.9902V66.9863C40.8105 66.9668 40.5664 66.9277 40.3516 66.9277C39.6289 66.9277 39.0918 67.4258 39.0918 68.1191V71.3516H38.0469ZM43.7891 71.459C42.2266 71.459 41.2695 70.3848 41.2695 68.7344C41.2695 67.1035 42.2461 65.9805 43.7207 65.9805C44.9316 65.9805 46.0742 66.7324 46.0742 68.6465V69.0176H42.3047C42.334 70.0234 42.9248 70.5996 43.7988 70.5996C44.3945 70.5996 44.7754 70.3457 44.9512 70.0234H46.0059C45.7715 70.8828 44.9512 71.459 43.7891 71.459ZM42.3145 68.2363H45.0488C45.0488 67.4258 44.5312 66.8398 43.7305 66.8398C42.8955 66.8398 42.3535 67.4844 42.3145 68.2363ZM48.1543 68.207V71.3516H47.1094V66.0488H48.1152V66.918H48.1738C48.4277 66.3516 48.9453 65.9805 49.7363 65.9805C50.8301 65.9805 51.543 66.6641 51.543 67.9824V71.3516H50.5078V68.1094C50.5078 67.3379 50.0879 66.8789 49.3848 66.8789C48.6719 66.8789 48.1543 67.3574 48.1543 68.207ZM55.0586 71.459C53.5156 71.459 52.5781 70.3164 52.5781 68.7246C52.5781 67.1035 53.5449 65.9805 55.0391 65.9805C56.25 65.9805 57.1289 66.6934 57.2363 67.7676H56.2207C56.1133 67.2695 55.7129 66.8496 55.0586 66.8496C54.1992 66.8496 53.623 67.5625 53.623 68.6953C53.623 69.8574 54.1895 70.5703 55.0586 70.5703C55.6445 70.5703 56.0938 70.248 56.2207 69.6719H57.2363C57.1191 70.6973 56.3086 71.459 55.0586 71.459ZM60.5078 71.459C58.9453 71.459 57.9883 70.3848 57.9883 68.7344C57.9883 67.1035 58.9648 65.9805 60.4395 65.9805C61.6504 65.9805 62.793 66.7324 62.793 68.6465V69.0176H59.0234C59.0527 70.0234 59.6436 70.5996 60.5176 70.5996C61.1133 70.5996 61.4941 70.3457 61.6699 70.0234H62.7246C62.4902 70.8828 61.6699 71.459 60.5078 71.459ZM59.0332 68.2363H61.7676C61.7676 67.4258 61.25 66.8398 60.4492 66.8398C59.6143 66.8398 59.0723 67.4844 59.0332 68.2363ZM0 84.2363L0.683594 83.5527L2.43164 85.2617L6.12305 81.5898L6.81641 82.2734L2.43164 86.6484L0 84.2363ZM10.791 87.3516V80.2812H15.2246V81.209H11.8652V83.3477H14.9902V84.2656H11.8652V86.4238H15.2637V87.3516H10.791ZM17.2852 82.0488L18.4473 84.1094L19.6191 82.0488H20.7617L19.1113 84.6953L20.7715 87.3516H19.6387L18.4473 85.3691L17.2656 87.3516H16.123L17.7637 84.6953L16.1328 82.0488H17.2852ZM22.7539 84.207V87.3516H21.709V80.2812H22.7344V82.918H22.8027C23.0566 82.3418 23.5449 81.9805 24.375 81.9805C25.4688 81.9805 26.1914 82.6543 26.1914 83.9824V87.3516H25.1465V84.1094C25.1465 83.3281 24.7266 82.8789 24.0234 82.8789C23.291 82.8789 22.7539 83.3574 22.7539 84.207ZM27.4512 87.3516V82.0488H28.4961V87.3516H27.4512ZM27.9785 81.2285C27.6172 81.2285 27.3145 80.9551 27.3145 80.6133C27.3145 80.2715 27.6172 79.998 27.9785 79.998C28.3301 79.998 28.6328 80.2715 28.6328 80.6133C28.6328 80.9551 28.3301 81.2285 27.9785 81.2285ZM29.8535 87.3516V80.2812H30.8887V82.9082H30.9473C31.1426 82.5762 31.4941 81.9805 32.4707 81.9805C33.75 81.9805 34.707 82.9863 34.707 84.7148C34.707 86.4238 33.7695 87.459 32.4805 87.459C31.5137 87.459 31.1426 86.873 30.9473 86.5215H30.8691V87.3516H29.8535ZM30.8691 84.6953C30.8691 85.8086 31.3672 86.5703 32.2461 86.5703C33.1641 86.5703 33.6426 85.7598 33.6426 84.6953C33.6426 83.6504 33.1738 82.8691 32.2461 82.8691C31.3574 82.8691 30.8691 83.5918 30.8691 84.6953ZM35.7422 87.3516V82.0488H36.7871V87.3516H35.7422ZM36.2695 81.2285C35.9082 81.2285 35.6055 80.9551 35.6055 80.6133C35.6055 80.2715 35.9082 79.998 36.2695 79.998C36.6211 79.998 36.9238 80.2715 36.9238 80.6133C36.9238 80.9551 36.6211 81.2285 36.2695 81.2285ZM40.5371 82.0488V82.8789H39.4531V85.7891C39.4531 86.3848 39.7559 86.4922 40.0879 86.502C40.2344 86.502 40.4688 86.4824 40.6152 86.4727V87.3809C40.4688 87.4004 40.2441 87.4199 39.9609 87.4199C39.1406 87.4199 38.4082 86.9707 38.418 86.0039V82.8789H37.6367V82.0488H38.418V80.7793H39.4531V82.0488H40.5371ZM41.5527 87.3516V82.0488H42.5977V87.3516H41.5527ZM42.0801 81.2285C41.7188 81.2285 41.416 80.9551 41.416 80.6133C41.416 80.2715 41.7188 79.998 42.0801 79.998C42.4316 79.998 42.7344 80.2715 42.7344 80.6133C42.7344 80.9551 42.4316 81.2285 42.0801 81.2285ZM46.1133 87.459C44.6094 87.459 43.6328 86.3652 43.6328 84.7246C43.6328 83.0742 44.6094 81.9805 46.1133 81.9805C47.6074 81.9805 48.584 83.0742 48.584 84.7246C48.584 86.3652 47.6074 87.459 46.1133 87.459ZM46.1133 86.5898C47.0703 86.5898 47.5293 85.7402 47.5293 84.7246C47.5293 83.709 47.0703 82.8398 46.1133 82.8398C45.1367 82.8398 44.6777 83.709 44.6777 84.7246C44.6777 85.7402 45.1367 86.5898 46.1133 86.5898ZM50.6543 84.207V87.3516H49.6094V82.0488H50.6152V82.918H50.6738C50.9277 82.3516 51.4453 81.9805 52.2363 81.9805C53.3301 81.9805 54.043 82.6641 54.043 83.9824V87.3516H53.0078V84.1094C53.0078 83.3379 52.5879 82.8789 51.8848 82.8789C51.1719 82.8789 50.6543 83.3574 50.6543 84.207Z" fill="#2F2F2F"/>
</svg>
