<svg width="230" height="61" viewBox="0 0 230 61" fill="none" xmlns="http://www.w3.org/2000/svg">
<g clip-path="url(#clip0_4151_19007)">
<path d="M7.85469 3.31787V12H6.82338L2.12256 5.23658H2.03862V12H0.959351V3.31787H2.00265L6.70346 10.0933H6.78741V3.31787H7.85469ZM10.1571 12H9.02989L12.2077 3.31787H13.347L16.5248 12H15.3856L14.5222 9.55366H11.0325L10.1571 12ZM11.3563 8.6063H14.1864L12.8073 4.72092H12.7354L11.3563 8.6063ZM17.7 12V3.31787H20.65C22.6886 3.31787 23.612 4.44511 23.612 5.99206C23.612 7.13729 23.0964 8.04268 21.9931 8.42642L23.9478 12H22.6886L20.8779 8.61829L20.662 8.63028H18.7793V12H17.7ZM18.7793 7.64695H20.6141C21.9931 7.64695 22.5447 7.02337 22.5447 5.99206C22.5447 4.94877 21.9931 4.27723 20.6021 4.27723H18.7793V7.64695ZM32.0663 3.31787V12H31.035L26.3342 5.23658H26.2502V12H25.171V3.31787H26.2143L30.9151 10.0933H30.999V3.31787H32.0663ZM35.0643 3.31787V12H33.985V3.31787H35.0643ZM37.3667 12H36.2395L39.4173 3.31787H40.5566L43.7344 12H42.5952L41.7318 9.55366H38.2421L37.3667 12ZM38.5659 8.6063H41.396L40.0169 4.72092H39.945L38.5659 8.6063ZM47.9915 12V3.31787H49.0708V11.0406H53.1001V12H47.9915ZM55.4505 12H54.3232L57.5011 3.31787H58.6403L61.8182 12H60.6789L59.8155 9.55366H56.3259L55.4505 12ZM56.6497 8.6063H59.4798L58.1007 4.72092H58.0287L56.6497 8.6063ZM62.9934 12V3.31787H66.0393C67.8621 3.31787 68.7135 4.33718 68.7135 5.62032C68.7135 6.73556 68.054 7.23922 67.2985 7.44308V7.52703C68.1019 7.57499 69.0613 8.31849 69.0613 9.69756C69.0613 11.0047 68.1979 12 66.1472 12H62.9934ZM66.1353 11.0406C67.4903 11.0406 68.018 10.4411 68.018 9.68557C68.018 8.79817 67.3105 8.05467 66.1952 8.05467H64.0726V11.0406H66.1353ZM66.0033 7.1193C66.9387 7.1193 67.6822 6.54369 67.6822 5.63231C67.6822 4.87682 67.1785 4.27723 66.0393 4.27723H64.0726V7.1193H66.0033ZM75.333 5.5004C75.2371 4.64897 74.4576 4.15731 73.4143 4.15731C72.2631 4.15731 71.5076 4.7569 71.5076 5.58434C71.5076 6.49572 72.5269 6.8315 73.1865 6.99938L74.0499 7.23922C74.9853 7.47906 76.5082 8.01869 76.5082 9.6376C76.5082 11.0526 75.369 12.1559 73.3544 12.1559C71.4836 12.1559 70.3204 11.1846 70.2245 9.74553H71.3277C71.4237 10.7169 72.3231 11.1726 73.3544 11.1726C74.5536 11.1726 75.453 10.561 75.453 9.61361C75.453 8.77418 74.6495 8.4504 73.7381 8.18658L72.6708 7.89877C71.3038 7.50304 70.4643 6.80751 70.4643 5.63231C70.4643 4.1693 71.7714 3.19796 73.4503 3.19796C75.1292 3.19796 76.3404 4.18129 76.3883 5.5004H75.333Z" fill="white"/>
<path d="M1.34309 35H0.215854L3.3937 26.3179H4.53293L7.71078 35H6.57155L5.70814 32.5537H2.2185L1.34309 35ZM2.54228 31.6063H5.37237L3.9933 27.7209H3.92135L2.54228 31.6063ZM9.96526 26.3179V35H8.88599V26.3179H9.96526Z" fill="white"/>
<path d="M47.6961 28.5004C47.6002 27.649 46.8207 27.1573 45.7774 27.1573C44.6262 27.1573 43.8707 27.7569 43.8707 28.5843C43.8707 29.4957 44.89 29.8315 45.5496 29.9994L46.413 30.2392C47.3484 30.4791 48.8714 31.0187 48.8714 32.6376C48.8714 34.0526 47.7321 35.1559 45.7175 35.1559C43.8468 35.1559 42.6835 34.1846 42.5876 32.7455H43.6909C43.7868 33.7169 44.6862 34.1726 45.7175 34.1726C46.9167 34.1726 47.8161 33.561 47.8161 32.6136C47.8161 31.7742 47.0126 31.4504 46.1012 31.1866L45.0339 30.8988C43.6669 30.503 42.8274 29.8075 42.8274 28.6323C42.8274 27.1693 44.1346 26.198 45.8134 26.198C47.4923 26.198 48.7035 27.1813 48.7514 28.5004H47.6961ZM57.7573 30.6589C57.7573 33.4051 56.1384 35.1199 53.9199 35.1199C51.6894 35.1199 50.0825 33.4051 50.0825 30.6589C50.0825 27.9128 51.6894 26.198 53.9199 26.198C56.1384 26.198 57.7573 27.9128 57.7573 30.6589ZM56.714 30.6589C56.714 28.4165 55.4909 27.2053 53.9199 27.2053C52.349 27.2053 51.1258 28.4165 51.1258 30.6589C51.1258 32.9014 52.349 34.1126 53.9199 34.1126C55.4909 34.1126 56.714 32.9014 56.714 30.6589ZM59.3403 35V26.3179H60.4195V34.0406H64.4488V35H59.3403ZM71.572 26.3179H72.6513V32.062C72.6513 33.8488 71.3202 35.1559 69.2695 35.1559C67.2189 35.1559 65.8878 33.8488 65.8878 32.062V26.3179H66.9671V31.978C66.9671 33.2372 67.8425 34.1486 69.2695 34.1486C70.7086 34.1486 71.572 33.2372 71.572 31.978V26.3179ZM74.0903 27.2772V26.3179H80.6379V27.2772H77.9157V35H76.8244V27.2772H74.0903ZM83.1562 26.3179V35H82.0769V26.3179H83.1562ZM92.4139 30.6589C92.4139 33.4051 90.795 35.1199 88.5765 35.1199C86.346 35.1199 84.7391 33.4051 84.7391 30.6589C84.7391 27.9128 86.346 26.198 88.5765 26.198C90.795 26.198 92.4139 27.9128 92.4139 30.6589ZM91.3706 30.6589C91.3706 28.4165 90.1474 27.2053 88.5765 27.2053C87.0055 27.2053 85.7824 28.4165 85.7824 30.6589C85.7824 32.9014 87.0055 34.1126 88.5765 34.1126C90.1474 34.1126 91.3706 32.9014 91.3706 30.6589ZM100.892 26.3179V35H99.8609L95.16 28.2366H95.0761V35H93.9968V26.3179H95.0401L99.7409 33.0933H99.8249V26.3179H100.892ZM107.548 28.5004C107.452 27.649 106.672 27.1573 105.629 27.1573C104.478 27.1573 103.722 27.7569 103.722 28.5843C103.722 29.4957 104.742 29.8315 105.401 29.9994L106.265 30.2392C107.2 30.4791 108.723 31.0187 108.723 32.6376C108.723 34.0526 107.584 35.1559 105.569 35.1559C103.698 35.1559 102.535 34.1846 102.439 32.7455H103.542C103.638 33.7169 104.538 34.1726 105.569 34.1726C106.768 34.1726 107.668 33.561 107.668 32.6136C107.668 31.7742 106.864 31.4504 105.953 31.1866L104.885 30.8988C103.518 30.503 102.679 29.8075 102.679 28.6323C102.679 27.1693 103.986 26.198 105.665 26.198C107.344 26.198 108.555 27.1813 108.603 28.5004H107.548Z" fill="white"/>
<path d="M197.696 28.5004C197.6 27.649 196.821 27.1573 195.777 27.1573C194.626 27.1573 193.871 27.7569 193.871 28.5843C193.871 29.4957 194.89 29.8315 195.55 29.9994L196.413 30.2392C197.348 30.4791 198.871 31.0187 198.871 32.6376C198.871 34.0526 197.732 35.1559 195.717 35.1559C193.847 35.1559 192.684 34.1846 192.588 32.7455H193.691C193.787 33.7169 194.686 34.1726 195.717 34.1726C196.917 34.1726 197.816 33.561 197.816 32.6136C197.816 31.7742 197.013 31.4504 196.101 31.1866L195.034 30.8988C193.667 30.503 192.827 29.8075 192.827 28.6323C192.827 27.1693 194.135 26.198 195.813 26.198C197.492 26.198 198.703 27.1813 198.751 28.5004H197.696ZM207.757 30.6589C207.757 33.4051 206.138 35.1199 203.92 35.1199C201.689 35.1199 200.083 33.4051 200.083 30.6589C200.083 27.9128 201.689 26.198 203.92 26.198C206.138 26.198 207.757 27.9128 207.757 30.6589ZM206.714 30.6589C206.714 28.4165 205.491 27.2053 203.92 27.2053C202.349 27.2053 201.126 28.4165 201.126 30.6589C201.126 32.9014 202.349 34.1126 203.92 34.1126C205.491 34.1126 206.714 32.9014 206.714 30.6589ZM209.34 35V26.3179H210.42V34.0406H214.449V35H209.34ZM215.468 26.3179L218.022 33.5969H218.118L220.685 26.3179H221.824L218.646 35H217.507L214.329 26.3179H215.468ZM222.999 35V26.3179H228.263V27.2772H224.078V30.1793H227.988V31.1266H224.078V34.0406H228.323V35H222.999Z" fill="white"/>
<path d="M118.48 27.2772V26.3179H125.027V27.2772H122.305V35H121.214V27.2772H118.48ZM126.466 35V26.3179H127.546V30.1793H132.138V26.3179H133.23V35H132.138V31.1266H127.546V35H126.466ZM135.52 35H134.393L137.571 26.3179H138.71L141.888 35H140.749L139.885 32.5537H136.396L135.52 35ZM136.719 31.6063H139.549L138.17 27.7209H138.098L136.719 31.6063ZM141.564 27.2772V26.3179H148.112V27.2772H145.389V35H144.298V27.2772H141.564Z" fill="white"/>
<path d="M6.88334 52.052C6.63151 50.8528 5.60021 50.2053 4.46098 50.2053C2.89004 50.2053 1.66687 51.4165 1.66687 53.6589C1.66687 55.9014 2.89004 57.1126 4.46098 57.1126C5.60021 57.1126 6.61952 56.465 6.88334 55.2778H7.96261C7.65082 57.0526 6.22379 58.1199 4.46098 58.1199C2.23049 58.1199 0.623578 56.4051 0.623578 53.6589C0.623578 50.9128 2.23049 49.198 4.46098 49.198C6.2118 49.198 7.63883 50.2532 7.96261 52.052H6.88334ZM15.1577 49.3179H16.237V55.062C16.237 56.8488 14.9059 58.1559 12.8553 58.1559C10.8047 58.1559 9.47359 56.8488 9.47359 55.062V49.3179H10.5529V54.978C10.5529 56.2372 11.4283 57.1486 12.8553 57.1486C14.2943 57.1486 15.1577 56.2372 15.1577 54.978V49.3179ZM22.8925 51.5004C22.7966 50.649 22.0171 50.1573 20.9738 50.1573C19.8226 50.1573 19.0671 50.7569 19.0671 51.5843C19.0671 52.4957 20.0864 52.8315 20.746 52.9994L21.6094 53.2392C22.5447 53.4791 24.0677 54.0187 24.0677 55.6376C24.0677 57.0526 22.9285 58.1559 20.9139 58.1559C19.0431 58.1559 17.8799 57.1846 17.784 55.7455H18.8872C18.9832 56.7169 19.8825 57.1726 20.9139 57.1726C22.113 57.1726 23.0124 56.561 23.0124 55.6136C23.0124 54.7742 22.209 54.4504 21.2976 54.1866L20.2303 53.8988C18.8632 53.503 18.0238 52.8075 18.0238 51.6323C18.0238 50.1693 19.3309 49.198 21.0098 49.198C22.6886 49.198 23.8998 50.1813 23.9478 51.5004H22.8925ZM25.135 50.2772V49.3179H31.6826V50.2772H28.9604V58H27.8691V50.2772H25.135ZM40.1009 53.6589C40.1009 56.4051 38.482 58.1199 36.2635 58.1199C34.033 58.1199 32.4261 56.4051 32.4261 53.6589C32.4261 50.9128 34.033 49.198 36.2635 49.198C38.482 49.198 40.1009 50.9128 40.1009 53.6589ZM39.0576 53.6589C39.0576 51.4165 37.8344 50.2053 36.2635 50.2053C34.6925 50.2053 33.4694 51.4165 33.4694 53.6589C33.4694 55.9014 34.6925 57.1126 36.2635 57.1126C37.8344 57.1126 39.0576 55.9014 39.0576 53.6589ZM41.6838 49.3179H42.9789L45.9049 56.465H46.0129L48.9389 49.3179H50.234V58H49.2147V51.4404H49.1308L46.4326 58H45.4732L42.7751 51.4404H42.7031V58H41.6838V49.3179ZM52.1527 58V49.3179H57.4172V50.2772H53.232V53.1793H57.1413V54.1266H53.232V57.0406H57.4771V58H52.1527ZM59.12 58V49.3179H62.07C64.1086 49.3179 65.032 50.4451 65.032 51.9921C65.032 53.1373 64.5163 54.0427 63.4131 54.4264L65.3678 58H64.1086L62.2978 54.6183L62.082 54.6303H60.1993V58H59.12ZM60.1993 53.6469H62.034C63.4131 53.6469 63.9647 53.0234 63.9647 51.9921C63.9647 50.9488 63.4131 50.2772 62.022 50.2772H60.1993V53.6469ZM71.3277 51.5004C71.2318 50.649 70.4523 50.1573 69.409 50.1573C68.2578 50.1573 67.5023 50.7569 67.5023 51.5843C67.5023 52.4957 68.5216 52.8315 69.1812 52.9994L70.0446 53.2392C70.98 53.4791 72.5029 54.0187 72.5029 55.6376C72.5029 57.0526 71.3637 58.1559 69.3491 58.1559C67.4783 58.1559 66.3151 57.1846 66.2192 55.7455H67.3224C67.4184 56.7169 68.3178 57.1726 69.3491 57.1726C70.5483 57.1726 71.4477 56.561 71.4477 55.6136C71.4477 54.7742 70.6442 54.4504 69.7328 54.1866L68.6655 53.8988C67.2985 53.503 66.459 52.8075 66.459 51.6323C66.459 50.1693 67.7661 49.198 69.445 49.198C71.1239 49.198 72.3351 50.1813 72.383 51.5004H71.3277ZM74.7934 49.3179V52.3158H73.846V49.3179H74.7934Z" fill="white"/>
<path d="M164.959 58V49.3179H167.909C169.948 49.3179 170.871 50.5291 170.871 52.076C170.871 53.611 169.948 54.8461 167.921 54.8461H166.039V58H164.959ZM166.039 53.8868H167.873C169.252 53.8868 169.804 53.1073 169.804 52.076C169.804 51.0327 169.252 50.2772 167.861 50.2772H166.039V53.8868ZM172.382 58V49.3179H175.332C177.371 49.3179 178.294 50.4451 178.294 51.9921C178.294 53.1373 177.779 54.0427 176.675 54.4264L178.63 58H177.371L175.56 54.6183L175.344 54.6303H173.462V58H172.382ZM173.462 53.6469H175.296C176.675 53.6469 177.227 53.0234 177.227 51.9921C177.227 50.9488 176.675 50.2772 175.284 50.2772H173.462V53.6469ZM187.192 53.6589C187.192 56.4051 185.573 58.1199 183.355 58.1199C181.124 58.1199 179.518 56.4051 179.518 53.6589C179.518 50.9128 181.124 49.198 183.355 49.198C185.573 49.198 187.192 50.9128 187.192 53.6589ZM186.149 53.6589C186.149 51.4165 184.926 50.2053 183.355 50.2053C181.784 50.2053 180.561 51.4165 180.561 53.6589C180.561 55.9014 181.784 57.1126 183.355 57.1126C184.926 57.1126 186.149 55.9014 186.149 53.6589ZM188.775 58V49.3179H191.821C193.644 49.3179 194.495 50.3372 194.495 51.6203C194.495 52.7356 193.836 53.2392 193.08 53.4431V53.527C193.884 53.575 194.843 54.3185 194.843 55.6976C194.843 57.0047 193.98 58 191.929 58H188.775ZM191.917 57.0406C193.272 57.0406 193.8 56.4411 193.8 55.6856C193.8 54.7982 193.092 54.0547 191.977 54.0547H189.855V57.0406H191.917ZM191.785 53.1193C192.721 53.1193 193.464 52.5437 193.464 51.6323C193.464 50.8768 192.96 50.2772 191.821 50.2772H189.855V53.1193H191.785ZM196.378 58V49.3179H197.457V57.0406H201.487V58H196.378ZM202.926 58V49.3179H208.19V50.2772H204.005V53.1793H207.914V54.1266H204.005V57.0406H208.25V58H202.926ZM209.893 49.3179H211.188L214.114 56.465H214.222L217.148 49.3179H218.443V58H217.424V51.4404H217.34L214.642 58H213.682L210.984 51.4404H210.912V58H209.893V49.3179ZM225.099 51.5004C225.003 50.649 224.223 50.1573 223.18 50.1573C222.029 50.1573 221.273 50.7569 221.273 51.5843C221.273 52.4957 222.293 52.8315 222.952 52.9994L223.816 53.2392C224.751 53.4791 226.274 54.0187 226.274 55.6376C226.274 57.0526 225.135 58.1559 223.12 58.1559C221.249 58.1559 220.086 57.1846 219.99 55.7455H221.093C221.189 56.7169 222.089 57.1726 223.12 57.1726C224.319 57.1726 225.219 56.561 225.219 55.6136C225.219 54.7742 224.415 54.4504 223.504 54.1866L222.436 53.8988C221.069 53.503 220.23 52.8075 220.23 51.6323C220.23 50.1693 221.537 49.198 223.216 49.198C224.895 49.198 226.106 50.1813 226.154 51.5004H225.099ZM228.42 58.072C228.001 58.072 227.641 57.7242 227.653 57.2925C227.641 56.8728 228.001 56.525 228.42 56.525C228.84 56.525 229.188 56.8728 229.188 57.2925C229.188 57.7242 228.84 58.072 228.42 58.072Z" fill="white"/>
<path d="M118.959 12V3.31787H121.909C123.948 3.31787 124.871 4.52905 124.871 6.07601C124.871 7.61097 123.948 8.84613 121.921 8.84613H120.039V12H118.959ZM120.039 7.88678H121.873C123.252 7.88678 123.804 7.10731 123.804 6.07601C123.804 5.03271 123.252 4.27723 121.861 4.27723H120.039V7.88678ZM126.382 12V3.31787H129.332C131.371 3.31787 132.294 4.44511 132.294 5.99206C132.294 7.13729 131.779 8.04268 130.675 8.42642L132.63 12H131.371L129.56 8.61829L129.344 8.63028H127.462V12H126.382ZM127.462 7.64695H129.296C130.675 7.64695 131.227 7.02337 131.227 5.99206C131.227 4.94877 130.675 4.27723 129.284 4.27723H127.462V7.64695ZM141.192 7.65894C141.192 10.4051 139.573 12.1199 137.355 12.1199C135.124 12.1199 133.518 10.4051 133.518 7.65894C133.518 4.9128 135.124 3.19796 137.355 3.19796C139.573 3.19796 141.192 4.9128 141.192 7.65894ZM140.149 7.65894C140.149 5.41645 138.926 4.20527 137.355 4.20527C135.784 4.20527 134.561 5.41645 134.561 7.65894C134.561 9.90142 135.784 11.1126 137.355 11.1126C138.926 11.1126 140.149 9.90142 140.149 7.65894ZM142.751 3.31787L145.306 10.5969H145.401L147.968 3.31787H149.107L145.929 12H144.79L141.612 3.31787H142.751ZM151.361 3.31787V12H150.282V3.31787H151.361ZM155.978 12H153.28V3.31787H156.086C158.617 3.31787 160.116 4.94877 160.116 7.64695C160.116 10.3571 158.617 12 155.978 12ZM154.359 11.0406H155.906C158.041 11.0406 159.06 9.75752 159.06 7.64695C159.06 5.54837 158.041 4.27723 156.014 4.27723H154.359V11.0406ZM161.698 12V3.31787H166.963V4.27723H162.778V7.17926H166.687V8.12662H162.778V11.0406H167.023V12H161.698ZM173.403 5.5004C173.307 4.64897 172.527 4.15731 171.484 4.15731C170.333 4.15731 169.577 4.7569 169.577 5.58434C169.577 6.49572 170.596 6.8315 171.256 6.99938L172.119 7.23922C173.055 7.47906 174.578 8.01869 174.578 9.6376C174.578 11.0526 173.438 12.1559 171.424 12.1559C169.553 12.1559 168.39 11.1846 168.294 9.74553H169.397C169.493 10.7169 170.393 11.1726 171.424 11.1726C172.623 11.1726 173.522 10.561 173.522 9.61361C173.522 8.77418 172.719 8.4504 171.808 8.18658L170.74 7.89877C169.373 7.50304 168.534 6.80751 168.534 5.63231C168.534 4.1693 169.841 3.19796 171.52 3.19796C173.199 3.19796 174.41 4.18129 174.458 5.5004H173.403Z" fill="white"/>
</g>
<defs>
<clipPath id="clip0_4151_19007">
<rect width="230" height="61" fill="white"/>
</clipPath>
</defs>
</svg>
