<svg width="243" height="27" viewBox="0 0 243 27" fill="none" xmlns="http://www.w3.org/2000/svg">
<g opacity="0.4">
<path d="M27.2424 0.105143V7.71747H26.3358L22.2034 1.78743H22.1296V7.71747H21.1809V0.105143H22.098L26.2304 6.0457H26.3042V0.105143H27.2424Z" fill="#D7CAEE"/>
<path d="M27.2424 0.105143V7.71747H26.3358L22.2034 1.78743H22.1296V7.71747H21.1809V0.105143H22.098L26.2304 6.0457H26.3042V0.105143H27.2424Z" fill="url(#paint0_linear_5095_11767)"/>
<path d="M29.2664 7.71747H28.2755L31.069 0.105143H32.0705L34.8641 7.71747H33.8626L33.0983 5.57256H30.0307L29.2664 7.71747ZM30.3206 4.74193H32.8084L31.5961 1.33531H31.5329L30.3206 4.74193Z" fill="#D7CAEE"/>
<path d="M29.2664 7.71747H28.2755L31.069 0.105143H32.0705L34.8641 7.71747H33.8626L33.0983 5.57256H30.0307L29.2664 7.71747ZM30.3206 4.74193H32.8084L31.5961 1.33531H31.5329L30.3206 4.74193Z" fill="url(#paint1_linear_5095_11767)"/>
<path d="M35.8972 7.71747V0.105143H38.4904C40.2773 0.105143 41.0943 1.09348 41.0943 2.44982C41.0943 3.45919 40.641 4.24776 39.6711 4.58422L41.3894 7.71747H40.2825L38.6855 4.75771C38.6275 4.76296 38.5642 4.76296 38.501 4.76296H36.8459V7.71747H35.8972ZM36.8459 3.90079H38.4588C39.6764 3.90079 40.1508 3.35405 40.156 2.44982C40.1508 1.54034 39.6764 0.946284 38.4483 0.946284H36.8459V3.90079Z" fill="#D7CAEE"/>
<path d="M35.8972 7.71747V0.105143H38.4904C40.2773 0.105143 41.0943 1.09348 41.0943 2.44982C41.0943 3.45919 40.641 4.24776 39.6711 4.58422L41.3894 7.71747H40.2825L38.6855 4.75771C38.6275 4.76296 38.5642 4.76296 38.501 4.76296H36.8459V7.71747H35.8972ZM36.8459 3.90079H38.4588C39.6764 3.90079 40.1508 3.35405 40.156 2.44982C40.1508 1.54034 39.6764 0.946284 38.4483 0.946284H36.8459V3.90079Z" fill="url(#paint2_linear_5095_11767)"/>
<path d="M48.5262 0.105143V7.71747H47.6196L43.4872 1.78743H43.4134V7.71747H42.4647V0.105143H43.3818L47.5142 6.0457H47.588V0.105143H48.5262Z" fill="#D7CAEE"/>
<path d="M48.5262 0.105143V7.71747H47.6196L43.4872 1.78743H43.4134V7.71747H42.4647V0.105143H43.3818L47.5142 6.0457H47.588V0.105143H48.5262Z" fill="url(#paint3_linear_5095_11767)"/>
<path d="M51.1617 0.105143V7.71747H50.2129V0.105143H51.1617Z" fill="#D7CAEE"/>
<path d="M51.1617 0.105143V7.71747H50.2129V0.105143H51.1617Z" fill="url(#paint4_linear_5095_11767)"/>
<path d="M53.1857 7.71747H52.1947L54.9883 0.105143H55.9898L58.7834 7.71747H57.7819L57.0176 5.57256H53.95L53.1857 7.71747ZM54.2398 4.74193H56.7277L55.5154 1.33531H55.4522L54.2398 4.74193Z" fill="#D7CAEE"/>
<path d="M53.1857 7.71747H52.1947L54.9883 0.105143H55.9898L58.7834 7.71747H57.7819L57.0176 5.57256H53.95L53.1857 7.71747ZM54.2398 4.74193H56.7277L55.5154 1.33531H55.4522L54.2398 4.74193Z" fill="url(#paint5_linear_5095_11767)"/>
<path d="M62.5257 7.71747V0.105143H63.4744V6.87633H67.0165V7.71747H62.5257Z" fill="#D7CAEE"/>
<path d="M62.5257 7.71747V0.105143H63.4744V6.87633H67.0165V7.71747H62.5257Z" fill="url(#paint6_linear_5095_11767)"/>
<path d="M69.0827 7.71747H68.0917L70.8853 0.105143H71.8868L74.6803 7.71747H73.6789L72.9146 5.57256H69.8469L69.0827 7.71747ZM70.1368 4.74193H72.6247L71.4124 1.33531H71.3491L70.1368 4.74193Z" fill="#D7CAEE"/>
<path d="M69.0827 7.71747H68.0917L70.8853 0.105143H71.8868L74.6803 7.71747H73.6789L72.9146 5.57256H69.8469L69.0827 7.71747ZM70.1368 4.74193H72.6247L71.4124 1.33531H71.3491L70.1368 4.74193Z" fill="url(#paint7_linear_5095_11767)"/>
<path d="M75.7134 7.71747V0.105143H78.3911C79.9934 0.105143 80.7471 1.00411 80.7419 2.12388C80.7471 3.10171 80.1621 3.53805 79.4979 3.72205V3.79565C80.2095 3.83771 81.0423 4.48959 81.0476 5.69873C81.0423 6.83953 80.2886 7.71747 78.4859 7.71747H75.7134ZM76.6622 6.87633H78.4754C79.6719 6.87633 80.1357 6.35062 80.1304 5.68822C80.1357 4.91542 79.5085 4.25828 78.5281 4.25828H76.6622V6.87633ZM76.6622 3.43816H78.3594C79.187 3.44342 79.8353 2.92822 79.8353 2.1344C79.8353 1.472 79.3873 0.946284 78.3911 0.946284H76.6622V3.43816Z" fill="#D7CAEE"/>
<path d="M75.7134 7.71747V0.105143H78.3911C79.9934 0.105143 80.7471 1.00411 80.7419 2.12388C80.7471 3.10171 80.1621 3.53805 79.4979 3.72205V3.79565C80.2095 3.83771 81.0423 4.48959 81.0476 5.69873C81.0423 6.83953 80.2886 7.71747 78.4859 7.71747H75.7134ZM76.6622 6.87633H78.4754C79.6719 6.87633 80.1357 6.35062 80.1304 5.68822C80.1357 4.91542 79.5085 4.25828 78.5281 4.25828H76.6622V6.87633ZM76.6622 3.43816H78.3594C79.187 3.44342 79.8353 2.92822 79.8353 2.1344C79.8353 1.472 79.3873 0.946284 78.3911 0.946284H76.6622V3.43816Z" fill="url(#paint8_linear_5095_11767)"/>
<path d="M86.5609 2.01874C86.4819 1.27223 85.7861 0.841141 84.8742 0.841141C83.8622 0.841141 83.2034 1.36685 83.1981 2.09234C83.2034 2.89142 84.0941 3.19108 84.6739 3.33302L85.433 3.54331C86.2499 3.75359 87.594 4.22148 87.594 5.64616C87.594 6.88684 86.5926 7.8489 84.8215 7.85416C83.177 7.8489 82.1597 7.0025 82.0701 5.74079H83.04C83.119 6.59244 83.9149 6.99724 84.8215 6.99199C85.8757 6.99724 86.6663 6.45576 86.6663 5.62513C86.6663 4.88388 85.96 4.59999 85.1589 4.37393L84.2206 4.12159C83.0242 3.77462 82.2757 3.16479 82.281 2.1344C82.2757 0.846398 83.4247 0 84.9059 0C86.387 0 87.4517 0.86217 87.4886 2.01874H86.5609Z" fill="#D7CAEE"/>
<path d="M86.5609 2.01874C86.4819 1.27223 85.7861 0.841141 84.8742 0.841141C83.8622 0.841141 83.2034 1.36685 83.1981 2.09234C83.2034 2.89142 84.0941 3.19108 84.6739 3.33302L85.433 3.54331C86.2499 3.75359 87.594 4.22148 87.594 5.64616C87.594 6.88684 86.5926 7.8489 84.8215 7.85416C83.177 7.8489 82.1597 7.0025 82.0701 5.74079H83.04C83.119 6.59244 83.9149 6.99724 84.8215 6.99199C85.8757 6.99724 86.6663 6.45576 86.6663 5.62513C86.6663 4.88388 85.96 4.59999 85.1589 4.37393L84.2206 4.12159C83.0242 3.77462 82.2757 3.16479 82.281 2.1344C82.2757 0.846398 83.4247 0 84.9059 0C86.387 0 87.4517 0.86217 87.4886 2.01874H86.5609Z" fill="url(#paint9_linear_5095_11767)"/>
<path d="M0 19.9949V19.1538H5.75581V19.9949H3.36283V26.7661H2.40352V19.9949H0Z" fill="#D7CAEE"/>
<path d="M0 19.9949V19.1538H5.75581V19.9949H3.36283V26.7661H2.40352V19.9949H0Z" fill="url(#paint10_linear_5095_11767)"/>
<path d="M7.02082 26.7661V19.1538H7.96958V22.5394H12.0071V19.1538H12.9664V26.7661H12.0071V23.37H7.96958V26.7661H7.02082Z" fill="#D7CAEE"/>
<path d="M7.02082 26.7661V19.1538H7.96958V22.5394H12.0071V19.1538H12.9664V26.7661H12.0071V23.37H7.96958V26.7661H7.02082Z" fill="url(#paint11_linear_5095_11767)"/>
<path d="M14.9799 26.7661H13.9889L16.7825 19.1538H17.784L20.5775 26.7661H19.5761L18.8118 24.6212H15.7441L14.9799 26.7661ZM16.034 23.7905H18.5219L17.3096 20.3839H17.2463L16.034 23.7905Z" fill="#D7CAEE"/>
<path d="M14.9799 26.7661H13.9889L16.7825 19.1538H17.784L20.5775 26.7661H19.5761L18.8118 24.6212H15.7441L14.9799 26.7661ZM16.034 23.7905H18.5219L17.3096 20.3839H17.2463L16.034 23.7905Z" fill="url(#paint12_linear_5095_11767)"/>
<path d="M20.2929 19.9949V19.1538H26.0487V19.9949H23.6557V26.7661H22.6964V19.9949H20.2929Z" fill="#D7CAEE"/>
<path d="M20.2929 19.9949V19.1538H26.0487V19.9949H23.6557V26.7661H22.6964V19.9949H20.2929Z" fill="url(#paint13_linear_5095_11767)"/>
<path d="M28.2325 19.9949V19.1538H33.9883V19.9949H31.5953V26.7661H30.636V19.9949H28.2325Z" fill="#D7CAEE"/>
<path d="M28.2325 19.9949V19.1538H33.9883V19.9949H31.5953V26.7661H30.636V19.9949H28.2325Z" fill="url(#paint14_linear_5095_11767)"/>
<path d="M35.2533 26.7661V19.1538H37.8466C39.6334 19.1538 40.4504 20.1421 40.4504 21.4984C40.4504 22.5078 39.9971 23.2964 39.0273 23.6328L40.7456 26.7661H39.6387L38.0416 23.8063C37.9836 23.8116 37.9204 23.8116 37.8571 23.8116H36.2021V26.7661H35.2533ZM36.2021 22.9494H37.815C39.0325 22.9494 39.5069 22.4027 39.5122 21.4984C39.5069 20.589 39.0325 19.9949 37.8044 19.9949H36.2021V22.9494Z" fill="#D7CAEE"/>
<path d="M35.2533 26.7661V19.1538H37.8466C39.6334 19.1538 40.4504 20.1421 40.4504 21.4984C40.4504 22.5078 39.9971 23.2964 39.0273 23.6328L40.7456 26.7661H39.6387L38.0416 23.8063C37.9836 23.8116 37.9204 23.8116 37.8571 23.8116H36.2021V26.7661H35.2533ZM36.2021 22.9494H37.815C39.0325 22.9494 39.5069 22.4027 39.5122 21.4984C39.5069 20.589 39.0325 19.9949 37.8044 19.9949H36.2021V22.9494Z" fill="url(#paint15_linear_5095_11767)"/>
<path d="M42.1582 26.7661H41.1672L43.9608 19.1538H44.9623L47.7558 26.7661H46.7544L45.9901 24.6212H42.9224L42.1582 26.7661ZM43.2123 23.7905H45.7002L44.4879 20.3839H44.4246L43.2123 23.7905Z" fill="#D7CAEE"/>
<path d="M42.1582 26.7661H41.1672L43.9608 19.1538H44.9623L47.7558 26.7661H46.7544L45.9901 24.6212H42.9224L42.1582 26.7661ZM43.2123 23.7905H45.7002L44.4879 20.3839H44.4246L43.2123 23.7905Z" fill="url(#paint16_linear_5095_11767)"/>
<path d="M54.8505 19.1538V26.7661H53.9439L49.8115 20.836H49.7377V26.7661H48.7889V19.1538H49.7061L53.8385 25.0943H53.9122V19.1538H54.8505Z" fill="#D7CAEE"/>
<path d="M54.8505 19.1538V26.7661H53.9439L49.8115 20.836H49.7377V26.7661H48.7889V19.1538H49.7061L53.8385 25.0943H53.9122V19.1538H54.8505Z" fill="url(#paint17_linear_5095_11767)"/>
<path d="M60.7011 21.0674C60.6221 20.3208 59.9263 19.8898 59.0145 19.8898C58.0025 19.8898 57.3436 20.4155 57.3383 21.141C57.3436 21.94 58.2344 22.2397 58.8142 22.3816L59.5732 22.5919C60.3902 22.8022 61.7342 23.2701 61.7342 24.6948C61.7342 25.9355 60.7328 26.8975 58.9618 26.9028C57.3172 26.8975 56.3 26.0511 56.2104 24.7894H57.1802C57.2593 25.6411 58.0552 26.0459 58.9618 26.0406C60.0159 26.0459 60.8066 25.5044 60.8066 24.6737C60.8066 23.9325 60.1003 23.6486 59.2991 23.4226L58.3609 23.1702C57.1644 22.8232 56.4159 22.2134 56.4212 21.183C56.4159 19.895 57.565 19.0486 59.0461 19.0486C60.5272 19.0486 61.5919 19.9108 61.6288 21.0674H60.7011Z" fill="#D7CAEE"/>
<path d="M60.7011 21.0674C60.6221 20.3208 59.9263 19.8898 59.0145 19.8898C58.0025 19.8898 57.3436 20.4155 57.3383 21.141C57.3436 21.94 58.2344 22.2397 58.8142 22.3816L59.5732 22.5919C60.3902 22.8022 61.7342 23.2701 61.7342 24.6948C61.7342 25.9355 60.7328 26.8975 58.9618 26.9028C57.3172 26.8975 56.3 26.0511 56.2104 24.7894H57.1802C57.2593 25.6411 58.0552 26.0459 58.9618 26.0406C60.0159 26.0459 60.8066 25.5044 60.8066 24.6737C60.8066 23.9325 60.1003 23.6486 59.2991 23.4226L58.3609 23.1702C57.1644 22.8232 56.4159 22.2134 56.4212 21.183C56.4159 19.895 57.565 19.0486 59.0461 19.0486C60.5272 19.0486 61.5919 19.9108 61.6288 21.0674H60.7011Z" fill="url(#paint18_linear_5095_11767)"/>
<path d="M63.0941 26.7661V19.1538H67.6903V19.9949H64.0429V22.5394H67.3425V23.37H64.0429V26.7661H63.0941Z" fill="#D7CAEE"/>
<path d="M63.0941 26.7661V19.1538H67.6903V19.9949H64.0429V22.5394H67.3425V23.37H64.0429V26.7661H63.0941Z" fill="url(#paint19_linear_5095_11767)"/>
<path d="M75.5545 22.9599C75.5598 25.3677 74.1366 26.8712 72.1811 26.8712C70.2204 26.8712 68.8025 25.3677 68.8078 22.9599C68.8025 20.5522 70.2204 19.0486 72.1811 19.0486C74.1366 19.0486 75.5598 20.5522 75.5545 22.9599ZM69.7249 22.9599C69.7302 24.9208 70.8002 25.9828 72.1811 25.988C73.5621 25.9828 74.6321 24.9208 74.6374 22.9599C74.6321 20.9938 73.5621 19.9318 72.1811 19.9318C70.8002 19.9318 69.7302 20.9938 69.7249 22.9599Z" fill="#D7CAEE"/>
<path d="M75.5545 22.9599C75.5598 25.3677 74.1366 26.8712 72.1811 26.8712C70.2204 26.8712 68.8025 25.3677 68.8078 22.9599C68.8025 20.5522 70.2204 19.0486 72.1811 19.0486C74.1366 19.0486 75.5598 20.5522 75.5545 22.9599ZM69.7249 22.9599C69.7302 24.9208 70.8002 25.9828 72.1811 25.988C73.5621 25.9828 74.6321 24.9208 74.6374 22.9599C74.6321 20.9938 73.5621 19.9318 72.1811 19.9318C70.8002 19.9318 69.7302 20.9938 69.7249 22.9599Z" fill="url(#paint20_linear_5095_11767)"/>
<path d="M76.946 26.7661V19.1538H79.5393C81.3261 19.1538 82.1431 20.1421 82.1431 21.4984C82.1431 22.5078 81.6898 23.2964 80.72 23.6328L82.4383 26.7661H81.3314L79.7343 23.8063C79.6763 23.8116 79.6131 23.8116 79.5498 23.8116H77.8948V26.7661H76.946ZM77.8948 22.9494H79.5077C80.7252 22.9494 81.1996 22.4027 81.2049 21.4984C81.1996 20.589 80.7252 19.9949 79.4971 19.9949H77.8948V22.9494Z" fill="#D7CAEE"/>
<path d="M76.946 26.7661V19.1538H79.5393C81.3261 19.1538 82.1431 20.1421 82.1431 21.4984C82.1431 22.5078 81.6898 23.2964 80.72 23.6328L82.4383 26.7661H81.3314L79.7343 23.8063C79.6763 23.8116 79.6131 23.8116 79.5498 23.8116H77.8948V26.7661H76.946ZM77.8948 22.9494H79.5077C80.7252 22.9494 81.1996 22.4027 81.2049 21.4984C81.1996 20.589 80.7252 19.9949 79.4971 19.9949H77.8948V22.9494Z" fill="url(#paint21_linear_5095_11767)"/>
<path d="M83.5135 19.1538H84.6521L87.2242 25.4203H87.3191L89.8913 19.1538H91.0298V26.7661H90.1338V21.0148H90.06L87.6881 26.7661H86.8447L84.4728 21.0148H84.4096V26.7661H83.5135V19.1538Z" fill="#D7CAEE"/>
<path d="M83.5135 19.1538H84.6521L87.2242 25.4203H87.3191L89.8913 19.1538H91.0298V26.7661H90.1338V21.0148H90.06L87.6881 26.7661H86.8447L84.4728 21.0148H84.4096V26.7661H83.5135V19.1538Z" fill="url(#paint22_linear_5095_11767)"/>
<path d="M96.8805 21.0674C96.8014 20.3208 96.1057 19.8898 95.1938 19.8898C94.1818 19.8898 93.5229 20.4155 93.5177 21.141C93.5229 21.94 94.4137 22.2397 94.9935 22.3816L95.7525 22.5919C96.5695 22.8022 97.9136 23.2701 97.9136 24.6948C97.9136 25.9355 96.9121 26.8975 95.1411 26.9028C93.4966 26.8975 92.4793 26.0511 92.3897 24.7894H93.3596C93.4386 25.6411 94.2345 26.0459 95.1411 26.0406C96.1953 26.0459 96.9859 25.5044 96.9859 24.6737C96.9859 23.9325 96.2796 23.6486 95.4784 23.4226L94.5402 23.1702C93.3437 22.8232 92.5953 22.2134 92.6005 21.183C92.5953 19.895 93.7443 19.0486 95.2254 19.0486C96.7066 19.0486 97.7713 19.9108 97.8082 21.0674H96.8805Z" fill="#D7CAEE"/>
<path d="M96.8805 21.0674C96.8014 20.3208 96.1057 19.8898 95.1938 19.8898C94.1818 19.8898 93.5229 20.4155 93.5177 21.141C93.5229 21.94 94.4137 22.2397 94.9935 22.3816L95.7525 22.5919C96.5695 22.8022 97.9136 23.2701 97.9136 24.6948C97.9136 25.9355 96.9121 26.8975 95.1411 26.9028C93.4966 26.8975 92.4793 26.0511 92.3897 24.7894H93.3596C93.4386 25.6411 94.2345 26.0459 95.1411 26.0406C96.1953 26.0459 96.9859 25.5044 96.9859 24.6737C96.9859 23.9325 96.2796 23.6486 95.4784 23.4226L94.5402 23.1702C93.3437 22.8232 92.5953 22.2134 92.6005 21.183C92.5953 19.895 93.7443 19.0486 95.2254 19.0486C96.7066 19.0486 97.7713 19.9108 97.8082 21.0674H96.8805Z" fill="url(#paint23_linear_5095_11767)"/>
<path d="M105.048 19.1538H106.186L108.759 25.4203H108.854L111.426 19.1538H112.564V26.7661H111.668V21.0148H111.594L109.222 26.7661H108.379L106.007 21.0148H105.944V26.7661H105.048V19.1538Z" fill="#D7CAEE"/>
<path d="M105.048 19.1538H106.186L108.759 25.4203H108.854L111.426 19.1538H112.564V26.7661H111.668V21.0148H111.594L109.222 26.7661H108.379L106.007 21.0148H105.944V26.7661H105.048V19.1538Z" fill="url(#paint24_linear_5095_11767)"/>
<path d="M114.588 26.7661H113.597L116.391 19.1538H117.392L120.186 26.7661H119.184L118.42 24.6212H115.353L114.588 26.7661ZM115.642 23.7905H118.13L116.918 20.3839H116.855L115.642 23.7905Z" fill="#D7CAEE"/>
<path d="M114.588 26.7661H113.597L116.391 19.1538H117.392L120.186 26.7661H119.184L118.42 24.6212H115.353L114.588 26.7661ZM115.642 23.7905H118.13L116.918 20.3839H116.855L115.642 23.7905Z" fill="url(#paint25_linear_5095_11767)"/>
<path d="M127.281 19.1538V26.7661H126.374L122.242 20.836H122.168V26.7661H121.219V19.1538H122.136L126.269 25.0943H126.342V19.1538H127.281Z" fill="#D7CAEE"/>
<path d="M127.281 19.1538V26.7661H126.374L122.242 20.836H122.168V26.7661H121.219V19.1538H122.136L126.269 25.0943H126.342V19.1538H127.281Z" fill="url(#paint26_linear_5095_11767)"/>
<path d="M133.964 19.1538H134.913V24.1901C134.913 25.7567 133.737 26.8975 131.94 26.9028C130.137 26.8975 128.967 25.7567 128.967 24.1901V19.1538H129.916V24.1165C129.911 25.2205 130.68 26.0143 131.94 26.0196C133.2 26.0143 133.959 25.2205 133.964 24.1165V19.1538Z" fill="#D7CAEE"/>
<path d="M133.964 19.1538H134.913V24.1901C134.913 25.7567 133.737 26.8975 131.94 26.9028C130.137 26.8975 128.967 25.7567 128.967 24.1901V19.1538H129.916V24.1165C129.911 25.2205 130.68 26.0143 131.94 26.0196C133.2 26.0143 133.959 25.2205 133.964 24.1165V19.1538Z" fill="url(#paint27_linear_5095_11767)"/>
<path d="M136.599 26.7661V19.1538H141.196V19.9949H137.548V22.5394H140.848V23.37H137.548V26.7661H136.599Z" fill="#D7CAEE"/>
<path d="M136.599 26.7661V19.1538H141.196V19.9949H137.548V22.5394H140.848V23.37H137.548V26.7661H136.599Z" fill="url(#paint28_linear_5095_11767)"/>
<path d="M141.986 26.7661H140.995L143.789 19.1538H144.79L147.584 26.7661H146.583L145.818 24.6212H142.751L141.986 26.7661ZM143.04 23.7905H145.528L144.316 20.3839H144.253L143.04 23.7905Z" fill="#D7CAEE"/>
<path d="M141.986 26.7661H140.995L143.789 19.1538H144.79L147.584 26.7661H146.583L145.818 24.6212H142.751L141.986 26.7661ZM143.04 23.7905H145.528L144.316 20.3839H144.253L143.04 23.7905Z" fill="url(#paint29_linear_5095_11767)"/>
<path d="M153.466 21.551C153.245 20.4996 152.344 19.9318 151.337 19.9318C149.956 19.9318 148.886 20.9938 148.881 22.9599C148.886 24.9208 149.956 25.9828 151.337 25.988C152.344 25.9828 153.24 25.4203 153.466 24.3793H154.415C154.141 25.9355 152.887 26.8712 151.337 26.8712C149.376 26.8712 147.958 25.3677 147.964 22.9599C147.958 20.5522 149.376 19.0486 151.337 19.0486C152.881 19.0486 154.13 19.9686 154.415 21.551H153.466Z" fill="#D7CAEE"/>
<path d="M153.466 21.551C153.245 20.4996 152.344 19.9318 151.337 19.9318C149.956 19.9318 148.886 20.9938 148.881 22.9599C148.886 24.9208 149.956 25.9828 151.337 25.988C152.344 25.9828 153.24 25.4203 153.466 24.3793H154.415C154.141 25.9355 152.887 26.8712 151.337 26.8712C149.376 26.8712 147.958 25.3677 147.964 22.9599C147.958 20.5522 149.376 19.0486 151.337 19.0486C152.881 19.0486 154.13 19.9686 154.415 21.551H153.466Z" fill="url(#paint30_linear_5095_11767)"/>
<path d="M155.322 19.9949V19.1538H161.077V19.9949H158.684V26.7661H157.725V19.9949H155.322Z" fill="#D7CAEE"/>
<path d="M155.322 19.9949V19.1538H161.077V19.9949H158.684V26.7661H157.725V19.9949H155.322Z" fill="url(#paint31_linear_5095_11767)"/>
<path d="M167.339 19.1538H168.288V24.1901C168.288 25.7567 167.113 26.8975 165.315 26.9028C163.513 26.8975 162.342 25.7567 162.342 24.1901V19.1538H163.291V24.1165C163.286 25.2205 164.056 26.0143 165.315 26.0196C166.575 26.0143 167.334 25.2205 167.339 24.1165V19.1538Z" fill="#D7CAEE"/>
<path d="M167.339 19.1538H168.288V24.1901C168.288 25.7567 167.113 26.8975 165.315 26.9028C163.513 26.8975 162.342 25.7567 162.342 24.1901V19.1538H163.291V24.1165C163.286 25.2205 164.056 26.0143 165.315 26.0196C166.575 26.0143 167.334 25.2205 167.339 24.1165V19.1538Z" fill="url(#paint32_linear_5095_11767)"/>
<path d="M169.975 26.7661V19.1538H172.568C174.355 19.1538 175.172 20.1421 175.172 21.4984C175.172 22.5078 174.719 23.2964 173.749 23.6328L175.467 26.7661H174.36L172.763 23.8063C172.705 23.8116 172.642 23.8116 172.579 23.8116H170.923V26.7661H169.975ZM170.923 22.9494H172.536C173.754 22.9494 174.228 22.4027 174.234 21.4984C174.228 20.589 173.754 19.9949 172.526 19.9949H170.923V22.9494Z" fill="#D7CAEE"/>
<path d="M169.975 26.7661V19.1538H172.568C174.355 19.1538 175.172 20.1421 175.172 21.4984C175.172 22.5078 174.719 23.2964 173.749 23.6328L175.467 26.7661H174.36L172.763 23.8063C172.705 23.8116 172.642 23.8116 172.579 23.8116H170.923V26.7661H169.975ZM170.923 22.9494H172.536C173.754 22.9494 174.228 22.4027 174.234 21.4984C174.228 20.589 173.754 19.9949 172.526 19.9949H170.923V22.9494Z" fill="url(#paint33_linear_5095_11767)"/>
<path d="M177.491 19.1538V26.7661H176.542V19.1538H177.491Z" fill="#D7CAEE"/>
<path d="M177.491 19.1538V26.7661H176.542V19.1538H177.491Z" fill="url(#paint34_linear_5095_11767)"/>
<path d="M185.239 19.1538V26.7661H184.333L180.2 20.836H180.126V26.7661H179.178V19.1538H180.095L184.227 25.0943H184.301V19.1538H185.239Z" fill="#D7CAEE"/>
<path d="M185.239 19.1538V26.7661H184.333L180.2 20.836H180.126V26.7661H179.178V19.1538H180.095L184.227 25.0943H184.301V19.1538H185.239Z" fill="url(#paint35_linear_5095_11767)"/>
<path d="M192.134 21.53C191.807 20.5522 191.064 19.9318 189.972 19.9318C188.623 19.9318 187.553 20.9938 187.548 22.9599C187.553 24.9208 188.623 25.9828 190.036 25.988C191.322 25.9828 192.213 25.1311 192.228 23.78H190.236V22.9494H193.156V23.7695C193.156 25.6568 191.854 26.8712 190.036 26.8712C187.996 26.8712 186.625 25.3677 186.631 22.9599C186.625 20.5522 188.012 19.0486 189.972 19.0486C191.585 19.0486 192.829 20.058 193.114 21.53H192.134Z" fill="#D7CAEE"/>
<path d="M192.134 21.53C191.807 20.5522 191.064 19.9318 189.972 19.9318C188.623 19.9318 187.553 20.9938 187.548 22.9599C187.553 24.9208 188.623 25.9828 190.036 25.988C191.322 25.9828 192.213 25.1311 192.228 23.78H190.236V22.9494H193.156V23.7695C193.156 25.6568 191.854 26.8712 190.036 26.8712C187.996 26.8712 186.625 25.3677 186.631 22.9599C186.625 20.5522 188.012 19.0486 189.972 19.0486C191.585 19.0486 192.829 20.058 193.114 21.53H192.134Z" fill="url(#paint36_linear_5095_11767)"/>
<path d="M99.3538 0.105143V7.71747H98.405V0.105143H99.3538Z" fill="#D7CAEE"/>
<path d="M99.3538 0.105143V7.71747H98.405V0.105143H99.3538Z" fill="url(#paint37_linear_5095_11767)"/>
<path d="M105.204 2.01874C105.125 1.27223 104.43 0.841141 103.518 0.841141C102.506 0.841141 101.847 1.36685 101.842 2.09234C101.847 2.89142 102.738 3.19108 103.317 3.33302L104.076 3.54331C104.893 3.75359 106.238 4.22148 106.238 5.64616C106.238 6.88684 105.236 7.8489 103.465 7.85416C101.821 7.8489 100.803 7.0025 100.714 5.74079H101.684C101.763 6.59244 102.558 6.99724 103.465 6.99199C104.519 6.99724 105.31 6.45576 105.31 5.62513C105.31 4.88388 104.604 4.59999 103.802 4.37393L102.864 4.12159C101.668 3.77462 100.919 3.16479 100.924 2.1344C100.919 0.846398 102.068 0 103.549 0C105.031 0 106.095 0.86217 106.132 2.01874H105.204Z" fill="#D7CAEE"/>
<path d="M105.204 2.01874C105.125 1.27223 104.43 0.841141 103.518 0.841141C102.506 0.841141 101.847 1.36685 101.842 2.09234C101.847 2.89142 102.738 3.19108 103.317 3.33302L104.076 3.54331C104.893 3.75359 106.238 4.22148 106.238 5.64616C106.238 6.88684 105.236 7.8489 103.465 7.85416C101.821 7.8489 100.803 7.0025 100.714 5.74079H101.684C101.763 6.59244 102.558 6.99724 103.465 6.99199C104.519 6.99724 105.31 6.45576 105.31 5.62513C105.31 4.88388 104.604 4.59999 103.802 4.37393L102.864 4.12159C101.668 3.77462 100.919 3.16479 100.924 2.1344C100.919 0.846398 102.068 0 103.549 0C105.031 0 106.095 0.86217 106.132 2.01874H105.204Z" fill="url(#paint38_linear_5095_11767)"/>
<path d="M109.537 7.71747H108.546L111.34 0.105143H112.341L115.135 7.71747H114.133L113.369 5.57256H110.301L109.537 7.71747ZM110.591 4.74193H113.079L111.867 1.33531H111.804L110.591 4.74193Z" fill="#D7CAEE"/>
<path d="M109.537 7.71747H108.546L111.34 0.105143H112.341L115.135 7.71747H114.133L113.369 5.57256H110.301L109.537 7.71747ZM110.591 4.74193H113.079L111.867 1.33531H111.804L110.591 4.74193Z" fill="url(#paint39_linear_5095_11767)"/>
<path d="M129.466 7.71747H128.475L131.269 0.105143H132.27L135.064 7.71747H134.062L133.298 5.57256H130.23L129.466 7.71747ZM130.52 4.74193H133.008L131.796 1.33531H131.732L130.52 4.74193Z" fill="#D7CAEE"/>
<path d="M129.466 7.71747H128.475L131.269 0.105143H132.27L135.064 7.71747H134.062L133.298 5.57256H130.23L129.466 7.71747ZM130.52 4.74193H133.008L131.796 1.33531H131.732L130.52 4.74193Z" fill="url(#paint40_linear_5095_11767)"/>
<path d="M140.946 2.48137C140.619 1.50354 139.876 0.883198 138.785 0.883198C137.436 0.883198 136.366 1.94514 136.36 3.91131C136.366 5.87222 137.436 6.93416 138.848 6.93942C140.134 6.93416 141.025 6.0825 141.041 4.73142H139.048V3.90079H141.968V4.72091C141.968 6.60822 140.667 7.82261 138.848 7.82261C136.808 7.82261 135.438 6.31907 135.443 3.91131C135.438 1.50354 136.824 0 138.785 0C140.398 0 141.642 1.00937 141.926 2.48137H140.946Z" fill="#D7CAEE"/>
<path d="M140.946 2.48137C140.619 1.50354 139.876 0.883198 138.785 0.883198C137.436 0.883198 136.366 1.94514 136.36 3.91131C136.366 5.87222 137.436 6.93416 138.848 6.93942C140.134 6.93416 141.025 6.0825 141.041 4.73142H139.048V3.90079H141.968V4.72091C141.968 6.60822 140.667 7.82261 138.848 7.82261C136.808 7.82261 135.438 6.31907 135.443 3.91131C135.438 1.50354 136.824 0 138.785 0C140.398 0 141.642 1.00937 141.926 2.48137H140.946Z" fill="url(#paint41_linear_5095_11767)"/>
<path d="M143.392 7.71747V0.105143H148.019V0.946284H144.34V3.49074H147.777V4.32136H144.34V6.87633H148.072V7.71747H143.392Z" fill="#D7CAEE"/>
<path d="M143.392 7.71747V0.105143H148.019V0.946284H144.34V3.49074H147.777V4.32136H144.34V6.87633H148.072V7.71747H143.392Z" fill="url(#paint42_linear_5095_11767)"/>
<path d="M155.578 0.105143V7.71747H154.671L150.539 1.78743H150.465V7.71747H149.516V0.105143H150.434L154.566 6.0457H154.64V0.105143H155.578Z" fill="#D7CAEE"/>
<path d="M155.578 0.105143V7.71747H154.671L150.539 1.78743H150.465V7.71747H149.516V0.105143H150.434L154.566 6.0457H154.64V0.105143H155.578Z" fill="url(#paint43_linear_5095_11767)"/>
<path d="M156.843 0.946284V0.105143H162.599V0.946284H160.206V7.71747H159.246V0.946284H156.843Z" fill="#D7CAEE"/>
<path d="M156.843 0.946284V0.105143H162.599V0.946284H160.206V7.71747H159.246V0.946284H156.843Z" fill="url(#paint44_linear_5095_11767)"/>
<path d="M164.812 0.105143V7.71747H163.864V0.105143H164.812Z" fill="#D7CAEE"/>
<path d="M164.812 0.105143V7.71747H163.864V0.105143H164.812Z" fill="url(#paint45_linear_5095_11767)"/>
<path d="M171.707 2.5024C171.485 1.45097 170.584 0.883198 169.577 0.883198C168.196 0.883198 167.126 1.94514 167.121 3.91131C167.126 5.87222 168.196 6.93416 169.577 6.93942C170.584 6.93416 171.48 6.37164 171.707 5.33073H172.656C172.381 6.88684 171.127 7.82261 169.577 7.82261C167.617 7.82261 166.199 6.31907 166.204 3.91131C166.199 1.50354 167.617 0 169.577 0C171.122 0 172.371 0.919998 172.656 2.5024H171.707Z" fill="#D7CAEE"/>
<path d="M171.707 2.5024C171.485 1.45097 170.584 0.883198 169.577 0.883198C168.196 0.883198 167.126 1.94514 167.121 3.91131C167.126 5.87222 168.196 6.93416 169.577 6.93942C170.584 6.93416 171.48 6.37164 171.707 5.33073H172.656C172.381 6.88684 171.127 7.82261 169.577 7.82261C167.617 7.82261 166.199 6.31907 166.204 3.91131C166.199 1.50354 167.617 0 169.577 0C171.122 0 172.371 0.919998 172.656 2.5024H171.707Z" fill="url(#paint46_linear_5095_11767)"/>
<path d="M177.03 7.71747H176.039L178.833 0.105143H179.835L182.628 7.71747H181.627L180.862 5.57256H177.795L177.03 7.71747ZM178.085 4.74193H180.572L179.36 1.33531H179.297L178.085 4.74193Z" fill="#D7CAEE"/>
<path d="M177.03 7.71747H176.039L178.833 0.105143H179.835L182.628 7.71747H181.627L180.862 5.57256H177.795L177.03 7.71747ZM178.085 4.74193H180.572L179.36 1.33531H179.297L178.085 4.74193Z" fill="url(#paint47_linear_5095_11767)"/>
<path d="M184.61 0.105143V7.71747H183.661V0.105143H184.61Z" fill="#D7CAEE"/>
<path d="M184.61 0.105143V7.71747H183.661V0.105143H184.61Z" fill="url(#paint48_linear_5095_11767)"/>
<path d="M189.006 7.71747V0.105143H191.599C193.386 0.105143 194.203 1.16708 194.203 2.52342C194.203 3.87451 193.386 4.95222 191.61 4.95222H189.955V7.71747H189.006ZM189.955 4.11108H191.568C192.785 4.11108 193.259 3.42765 193.265 2.52342C193.259 1.61394 192.785 0.946284 191.557 0.946284H189.955V4.11108Z" fill="#D7CAEE"/>
<path d="M189.006 7.71747V0.105143H191.599C193.386 0.105143 194.203 1.16708 194.203 2.52342C194.203 3.87451 193.386 4.95222 191.61 4.95222H189.955V7.71747H189.006ZM189.955 4.11108H191.568C192.785 4.11108 193.259 3.42765 193.265 2.52342C193.259 1.61394 192.785 0.946284 191.557 0.946284H189.955V4.11108Z" fill="url(#paint49_linear_5095_11767)"/>
<path d="M195.531 7.71747V0.105143H196.48V6.87633H200.022V7.71747H195.531Z" fill="#D7CAEE"/>
<path d="M195.531 7.71747V0.105143H196.48V6.87633H200.022V7.71747H195.531Z" fill="url(#paint50_linear_5095_11767)"/>
<path d="M202.088 7.71747H201.097L203.891 0.105143H204.892L207.686 7.71747H206.684L205.92 5.57256H202.852L202.088 7.71747ZM203.142 4.74193H205.63L204.418 1.33531H204.355L203.142 4.74193Z" fill="#D7CAEE"/>
<path d="M202.088 7.71747H201.097L203.891 0.105143H204.892L207.686 7.71747H206.684L205.92 5.57256H202.852L202.088 7.71747ZM203.142 4.74193H205.63L204.418 1.33531H204.355L203.142 4.74193Z" fill="url(#paint51_linear_5095_11767)"/>
<path d="M207.401 0.946284V0.105143H213.157V0.946284H210.764V7.71747H209.805V0.946284H207.401Z" fill="#D7CAEE"/>
<path d="M207.401 0.946284V0.105143H213.157V0.946284H210.764V7.71747H209.805V0.946284H207.401Z" fill="url(#paint52_linear_5095_11767)"/>
<path d="M214.422 7.71747V0.105143H219.018V0.946284H215.371V3.49074H218.67V4.32136H215.371V7.71747H214.422Z" fill="#D7CAEE"/>
<path d="M214.422 7.71747V0.105143H219.018V0.946284H215.371V3.49074H218.67V4.32136H215.371V7.71747H214.422Z" fill="url(#paint53_linear_5095_11767)"/>
<path d="M226.882 3.91131C226.888 6.31907 225.465 7.82261 223.509 7.82261C221.548 7.82261 220.13 6.31907 220.136 3.91131C220.13 1.50354 221.548 0 223.509 0C225.465 0 226.888 1.50354 226.882 3.91131ZM221.053 3.91131C221.058 5.87222 222.128 6.93416 223.509 6.93942C224.89 6.93416 225.96 5.87222 225.965 3.91131C225.96 1.94514 224.89 0.883198 223.509 0.883198C222.128 0.883198 221.058 1.94514 221.053 3.91131Z" fill="#D7CAEE"/>
<path d="M226.882 3.91131C226.888 6.31907 225.465 7.82261 223.509 7.82261C221.548 7.82261 220.13 6.31907 220.136 3.91131C220.13 1.50354 221.548 0 223.509 0C225.465 0 226.888 1.50354 226.882 3.91131ZM221.053 3.91131C221.058 5.87222 222.128 6.93416 223.509 6.93942C224.89 6.93416 225.96 5.87222 225.965 3.91131C225.96 1.94514 224.89 0.883198 223.509 0.883198C222.128 0.883198 221.058 1.94514 221.053 3.91131Z" fill="url(#paint54_linear_5095_11767)"/>
<path d="M228.274 7.71747V0.105143H230.867C232.654 0.105143 233.471 1.09348 233.471 2.44982C233.471 3.45919 233.018 4.24776 232.048 4.58422L233.766 7.71747H232.659L231.062 4.75771C231.004 4.76296 230.941 4.76296 230.878 4.76296H229.223V7.71747H228.274ZM229.223 3.90079H230.836C232.053 3.90079 232.528 3.35405 232.533 2.44982C232.528 1.54034 232.053 0.946284 230.825 0.946284H229.223V3.90079Z" fill="#D7CAEE"/>
<path d="M228.274 7.71747V0.105143H230.867C232.654 0.105143 233.471 1.09348 233.471 2.44982C233.471 3.45919 233.018 4.24776 232.048 4.58422L233.766 7.71747H232.659L231.062 4.75771C231.004 4.76296 230.941 4.76296 230.878 4.76296H229.223V7.71747H228.274ZM229.223 3.90079H230.836C232.053 3.90079 232.528 3.35405 232.533 2.44982C232.528 1.54034 232.053 0.946284 230.825 0.946284H229.223V3.90079Z" fill="url(#paint55_linear_5095_11767)"/>
<path d="M234.841 0.105143H235.98L238.552 6.37164H238.647L241.219 0.105143H242.358V7.71747H241.462V1.96617H241.388L239.016 7.71747H238.173L235.801 1.96617H235.738V7.71747H234.841V0.105143Z" fill="#D7CAEE"/>
<path d="M234.841 0.105143H235.98L238.552 6.37164H238.647L241.219 0.105143H242.358V7.71747H241.462V1.96617H241.388L239.016 7.71747H238.173L235.801 1.96617H235.738V7.71747H234.841V0.105143Z" fill="url(#paint56_linear_5095_11767)"/>
<path d="M12.4806 2.26785H16.5476V6.32416H12.4806V2.26785Z" fill="#D7CAEE"/>
<path d="M12.4806 2.26785H16.5476V6.32416H12.4806V2.26785Z" fill="url(#paint57_linear_5095_11767)"/>
</g>
<defs>
<linearGradient id="paint0_linear_5095_11767" x1="116.683" y1="-8.09703" x2="117.177" y2="52.8813" gradientUnits="userSpaceOnUse">
<stop stop-color="#AFAFAF"/>
<stop offset="1" stop-color="#9182AD"/>
</linearGradient>
<linearGradient id="paint1_linear_5095_11767" x1="116.683" y1="-8.09703" x2="117.177" y2="52.8813" gradientUnits="userSpaceOnUse">
<stop stop-color="#AFAFAF"/>
<stop offset="1" stop-color="#9182AD"/>
</linearGradient>
<linearGradient id="paint2_linear_5095_11767" x1="116.683" y1="-8.09703" x2="117.177" y2="52.8813" gradientUnits="userSpaceOnUse">
<stop stop-color="#AFAFAF"/>
<stop offset="1" stop-color="#9182AD"/>
</linearGradient>
<linearGradient id="paint3_linear_5095_11767" x1="116.683" y1="-8.09703" x2="117.177" y2="52.8813" gradientUnits="userSpaceOnUse">
<stop stop-color="#AFAFAF"/>
<stop offset="1" stop-color="#9182AD"/>
</linearGradient>
<linearGradient id="paint4_linear_5095_11767" x1="116.683" y1="-8.09703" x2="117.177" y2="52.8813" gradientUnits="userSpaceOnUse">
<stop stop-color="#AFAFAF"/>
<stop offset="1" stop-color="#9182AD"/>
</linearGradient>
<linearGradient id="paint5_linear_5095_11767" x1="116.683" y1="-8.09703" x2="117.177" y2="52.8813" gradientUnits="userSpaceOnUse">
<stop stop-color="#AFAFAF"/>
<stop offset="1" stop-color="#9182AD"/>
</linearGradient>
<linearGradient id="paint6_linear_5095_11767" x1="116.683" y1="-8.09703" x2="117.177" y2="52.8813" gradientUnits="userSpaceOnUse">
<stop stop-color="#AFAFAF"/>
<stop offset="1" stop-color="#9182AD"/>
</linearGradient>
<linearGradient id="paint7_linear_5095_11767" x1="116.683" y1="-8.09703" x2="117.177" y2="52.8813" gradientUnits="userSpaceOnUse">
<stop stop-color="#AFAFAF"/>
<stop offset="1" stop-color="#9182AD"/>
</linearGradient>
<linearGradient id="paint8_linear_5095_11767" x1="116.683" y1="-8.09703" x2="117.177" y2="52.8813" gradientUnits="userSpaceOnUse">
<stop stop-color="#AFAFAF"/>
<stop offset="1" stop-color="#9182AD"/>
</linearGradient>
<linearGradient id="paint9_linear_5095_11767" x1="116.683" y1="-8.09703" x2="117.177" y2="52.8813" gradientUnits="userSpaceOnUse">
<stop stop-color="#AFAFAF"/>
<stop offset="1" stop-color="#9182AD"/>
</linearGradient>
<linearGradient id="paint10_linear_5095_11767" x1="116.683" y1="-8.09703" x2="117.177" y2="52.8813" gradientUnits="userSpaceOnUse">
<stop stop-color="#AFAFAF"/>
<stop offset="1" stop-color="#9182AD"/>
</linearGradient>
<linearGradient id="paint11_linear_5095_11767" x1="116.683" y1="-8.09703" x2="117.177" y2="52.8813" gradientUnits="userSpaceOnUse">
<stop stop-color="#AFAFAF"/>
<stop offset="1" stop-color="#9182AD"/>
</linearGradient>
<linearGradient id="paint12_linear_5095_11767" x1="116.683" y1="-8.09703" x2="117.177" y2="52.8813" gradientUnits="userSpaceOnUse">
<stop stop-color="#AFAFAF"/>
<stop offset="1" stop-color="#9182AD"/>
</linearGradient>
<linearGradient id="paint13_linear_5095_11767" x1="116.683" y1="-8.09703" x2="117.177" y2="52.8813" gradientUnits="userSpaceOnUse">
<stop stop-color="#AFAFAF"/>
<stop offset="1" stop-color="#9182AD"/>
</linearGradient>
<linearGradient id="paint14_linear_5095_11767" x1="116.683" y1="-8.09703" x2="117.177" y2="52.8813" gradientUnits="userSpaceOnUse">
<stop stop-color="#AFAFAF"/>
<stop offset="1" stop-color="#9182AD"/>
</linearGradient>
<linearGradient id="paint15_linear_5095_11767" x1="116.683" y1="-8.09703" x2="117.177" y2="52.8813" gradientUnits="userSpaceOnUse">
<stop stop-color="#AFAFAF"/>
<stop offset="1" stop-color="#9182AD"/>
</linearGradient>
<linearGradient id="paint16_linear_5095_11767" x1="116.683" y1="-8.09703" x2="117.177" y2="52.8813" gradientUnits="userSpaceOnUse">
<stop stop-color="#AFAFAF"/>
<stop offset="1" stop-color="#9182AD"/>
</linearGradient>
<linearGradient id="paint17_linear_5095_11767" x1="116.683" y1="-8.09703" x2="117.177" y2="52.8813" gradientUnits="userSpaceOnUse">
<stop stop-color="#AFAFAF"/>
<stop offset="1" stop-color="#9182AD"/>
</linearGradient>
<linearGradient id="paint18_linear_5095_11767" x1="116.683" y1="-8.09703" x2="117.177" y2="52.8813" gradientUnits="userSpaceOnUse">
<stop stop-color="#AFAFAF"/>
<stop offset="1" stop-color="#9182AD"/>
</linearGradient>
<linearGradient id="paint19_linear_5095_11767" x1="116.683" y1="-8.09703" x2="117.177" y2="52.8813" gradientUnits="userSpaceOnUse">
<stop stop-color="#AFAFAF"/>
<stop offset="1" stop-color="#9182AD"/>
</linearGradient>
<linearGradient id="paint20_linear_5095_11767" x1="116.683" y1="-8.09703" x2="117.177" y2="52.8813" gradientUnits="userSpaceOnUse">
<stop stop-color="#AFAFAF"/>
<stop offset="1" stop-color="#9182AD"/>
</linearGradient>
<linearGradient id="paint21_linear_5095_11767" x1="116.683" y1="-8.09703" x2="117.177" y2="52.8813" gradientUnits="userSpaceOnUse">
<stop stop-color="#AFAFAF"/>
<stop offset="1" stop-color="#9182AD"/>
</linearGradient>
<linearGradient id="paint22_linear_5095_11767" x1="116.683" y1="-8.09703" x2="117.177" y2="52.8813" gradientUnits="userSpaceOnUse">
<stop stop-color="#AFAFAF"/>
<stop offset="1" stop-color="#9182AD"/>
</linearGradient>
<linearGradient id="paint23_linear_5095_11767" x1="116.683" y1="-8.09703" x2="117.177" y2="52.8813" gradientUnits="userSpaceOnUse">
<stop stop-color="#AFAFAF"/>
<stop offset="1" stop-color="#9182AD"/>
</linearGradient>
<linearGradient id="paint24_linear_5095_11767" x1="116.683" y1="-8.09703" x2="117.177" y2="52.8813" gradientUnits="userSpaceOnUse">
<stop stop-color="#AFAFAF"/>
<stop offset="1" stop-color="#9182AD"/>
</linearGradient>
<linearGradient id="paint25_linear_5095_11767" x1="116.683" y1="-8.09703" x2="117.177" y2="52.8813" gradientUnits="userSpaceOnUse">
<stop stop-color="#AFAFAF"/>
<stop offset="1" stop-color="#9182AD"/>
</linearGradient>
<linearGradient id="paint26_linear_5095_11767" x1="116.683" y1="-8.09703" x2="117.177" y2="52.8813" gradientUnits="userSpaceOnUse">
<stop stop-color="#AFAFAF"/>
<stop offset="1" stop-color="#9182AD"/>
</linearGradient>
<linearGradient id="paint27_linear_5095_11767" x1="116.683" y1="-8.09703" x2="117.177" y2="52.8813" gradientUnits="userSpaceOnUse">
<stop stop-color="#AFAFAF"/>
<stop offset="1" stop-color="#9182AD"/>
</linearGradient>
<linearGradient id="paint28_linear_5095_11767" x1="116.683" y1="-8.09703" x2="117.177" y2="52.8813" gradientUnits="userSpaceOnUse">
<stop stop-color="#AFAFAF"/>
<stop offset="1" stop-color="#9182AD"/>
</linearGradient>
<linearGradient id="paint29_linear_5095_11767" x1="116.683" y1="-8.09703" x2="117.177" y2="52.8813" gradientUnits="userSpaceOnUse">
<stop stop-color="#AFAFAF"/>
<stop offset="1" stop-color="#9182AD"/>
</linearGradient>
<linearGradient id="paint30_linear_5095_11767" x1="116.683" y1="-8.09703" x2="117.177" y2="52.8813" gradientUnits="userSpaceOnUse">
<stop stop-color="#AFAFAF"/>
<stop offset="1" stop-color="#9182AD"/>
</linearGradient>
<linearGradient id="paint31_linear_5095_11767" x1="116.683" y1="-8.09703" x2="117.177" y2="52.8813" gradientUnits="userSpaceOnUse">
<stop stop-color="#AFAFAF"/>
<stop offset="1" stop-color="#9182AD"/>
</linearGradient>
<linearGradient id="paint32_linear_5095_11767" x1="116.683" y1="-8.09703" x2="117.177" y2="52.8813" gradientUnits="userSpaceOnUse">
<stop stop-color="#AFAFAF"/>
<stop offset="1" stop-color="#9182AD"/>
</linearGradient>
<linearGradient id="paint33_linear_5095_11767" x1="116.683" y1="-8.09703" x2="117.177" y2="52.8813" gradientUnits="userSpaceOnUse">
<stop stop-color="#AFAFAF"/>
<stop offset="1" stop-color="#9182AD"/>
</linearGradient>
<linearGradient id="paint34_linear_5095_11767" x1="116.683" y1="-8.09703" x2="117.177" y2="52.8813" gradientUnits="userSpaceOnUse">
<stop stop-color="#AFAFAF"/>
<stop offset="1" stop-color="#9182AD"/>
</linearGradient>
<linearGradient id="paint35_linear_5095_11767" x1="116.683" y1="-8.09703" x2="117.177" y2="52.8813" gradientUnits="userSpaceOnUse">
<stop stop-color="#AFAFAF"/>
<stop offset="1" stop-color="#9182AD"/>
</linearGradient>
<linearGradient id="paint36_linear_5095_11767" x1="116.683" y1="-8.09703" x2="117.177" y2="52.8813" gradientUnits="userSpaceOnUse">
<stop stop-color="#AFAFAF"/>
<stop offset="1" stop-color="#9182AD"/>
</linearGradient>
<linearGradient id="paint37_linear_5095_11767" x1="116.683" y1="-8.09703" x2="117.177" y2="52.8813" gradientUnits="userSpaceOnUse">
<stop stop-color="#AFAFAF"/>
<stop offset="1" stop-color="#9182AD"/>
</linearGradient>
<linearGradient id="paint38_linear_5095_11767" x1="116.683" y1="-8.09703" x2="117.177" y2="52.8813" gradientUnits="userSpaceOnUse">
<stop stop-color="#AFAFAF"/>
<stop offset="1" stop-color="#9182AD"/>
</linearGradient>
<linearGradient id="paint39_linear_5095_11767" x1="116.683" y1="-8.09703" x2="117.177" y2="52.8813" gradientUnits="userSpaceOnUse">
<stop stop-color="#AFAFAF"/>
<stop offset="1" stop-color="#9182AD"/>
</linearGradient>
<linearGradient id="paint40_linear_5095_11767" x1="116.683" y1="-8.09703" x2="117.177" y2="52.8813" gradientUnits="userSpaceOnUse">
<stop stop-color="#AFAFAF"/>
<stop offset="1" stop-color="#9182AD"/>
</linearGradient>
<linearGradient id="paint41_linear_5095_11767" x1="116.683" y1="-8.09703" x2="117.177" y2="52.8813" gradientUnits="userSpaceOnUse">
<stop stop-color="#AFAFAF"/>
<stop offset="1" stop-color="#9182AD"/>
</linearGradient>
<linearGradient id="paint42_linear_5095_11767" x1="116.683" y1="-8.09703" x2="117.177" y2="52.8813" gradientUnits="userSpaceOnUse">
<stop stop-color="#AFAFAF"/>
<stop offset="1" stop-color="#9182AD"/>
</linearGradient>
<linearGradient id="paint43_linear_5095_11767" x1="116.683" y1="-8.09703" x2="117.177" y2="52.8813" gradientUnits="userSpaceOnUse">
<stop stop-color="#AFAFAF"/>
<stop offset="1" stop-color="#9182AD"/>
</linearGradient>
<linearGradient id="paint44_linear_5095_11767" x1="116.683" y1="-8.09703" x2="117.177" y2="52.8813" gradientUnits="userSpaceOnUse">
<stop stop-color="#AFAFAF"/>
<stop offset="1" stop-color="#9182AD"/>
</linearGradient>
<linearGradient id="paint45_linear_5095_11767" x1="116.683" y1="-8.09703" x2="117.177" y2="52.8813" gradientUnits="userSpaceOnUse">
<stop stop-color="#AFAFAF"/>
<stop offset="1" stop-color="#9182AD"/>
</linearGradient>
<linearGradient id="paint46_linear_5095_11767" x1="116.683" y1="-8.09703" x2="117.177" y2="52.8813" gradientUnits="userSpaceOnUse">
<stop stop-color="#AFAFAF"/>
<stop offset="1" stop-color="#9182AD"/>
</linearGradient>
<linearGradient id="paint47_linear_5095_11767" x1="116.683" y1="-8.09703" x2="117.177" y2="52.8813" gradientUnits="userSpaceOnUse">
<stop stop-color="#AFAFAF"/>
<stop offset="1" stop-color="#9182AD"/>
</linearGradient>
<linearGradient id="paint48_linear_5095_11767" x1="116.683" y1="-8.09703" x2="117.177" y2="52.8813" gradientUnits="userSpaceOnUse">
<stop stop-color="#AFAFAF"/>
<stop offset="1" stop-color="#9182AD"/>
</linearGradient>
<linearGradient id="paint49_linear_5095_11767" x1="116.683" y1="-8.09703" x2="117.177" y2="52.8813" gradientUnits="userSpaceOnUse">
<stop stop-color="#AFAFAF"/>
<stop offset="1" stop-color="#9182AD"/>
</linearGradient>
<linearGradient id="paint50_linear_5095_11767" x1="116.683" y1="-8.09703" x2="117.177" y2="52.8813" gradientUnits="userSpaceOnUse">
<stop stop-color="#AFAFAF"/>
<stop offset="1" stop-color="#9182AD"/>
</linearGradient>
<linearGradient id="paint51_linear_5095_11767" x1="116.683" y1="-8.09703" x2="117.177" y2="52.8813" gradientUnits="userSpaceOnUse">
<stop stop-color="#AFAFAF"/>
<stop offset="1" stop-color="#9182AD"/>
</linearGradient>
<linearGradient id="paint52_linear_5095_11767" x1="116.683" y1="-8.09703" x2="117.177" y2="52.8813" gradientUnits="userSpaceOnUse">
<stop stop-color="#AFAFAF"/>
<stop offset="1" stop-color="#9182AD"/>
</linearGradient>
<linearGradient id="paint53_linear_5095_11767" x1="116.683" y1="-8.09703" x2="117.177" y2="52.8813" gradientUnits="userSpaceOnUse">
<stop stop-color="#AFAFAF"/>
<stop offset="1" stop-color="#9182AD"/>
</linearGradient>
<linearGradient id="paint54_linear_5095_11767" x1="116.683" y1="-8.09703" x2="117.177" y2="52.8813" gradientUnits="userSpaceOnUse">
<stop stop-color="#AFAFAF"/>
<stop offset="1" stop-color="#9182AD"/>
</linearGradient>
<linearGradient id="paint55_linear_5095_11767" x1="116.683" y1="-8.09703" x2="117.177" y2="52.8813" gradientUnits="userSpaceOnUse">
<stop stop-color="#AFAFAF"/>
<stop offset="1" stop-color="#9182AD"/>
</linearGradient>
<linearGradient id="paint56_linear_5095_11767" x1="116.683" y1="-8.09703" x2="117.177" y2="52.8813" gradientUnits="userSpaceOnUse">
<stop stop-color="#AFAFAF"/>
<stop offset="1" stop-color="#9182AD"/>
</linearGradient>
<linearGradient id="paint57_linear_5095_11767" x1="116.683" y1="-8.09703" x2="117.177" y2="52.8813" gradientUnits="userSpaceOnUse">
<stop stop-color="#AFAFAF"/>
<stop offset="1" stop-color="#9182AD"/>
</linearGradient>
</defs>
</svg>
