<svg width="24" height="24" viewBox="0 0 24 24" fill="none" xmlns="http://www.w3.org/2000/svg">
<rect width="24" height="24" rx="3.42857" fill="white"/>
<path d="M5.79426 18.7148V9.16992H8.39582V18.7148H5.79426ZM7.09504 7.92188C6.30402 7.92188 5.67121 7.32422 5.67121 6.60352C5.67121 5.86523 6.30402 5.26758 7.09504 5.26758C7.86848 5.26758 8.50129 5.86523 8.50129 6.60352C8.50129 7.32422 7.86848 7.92188 7.09504 7.92188ZM12.6589 13.1953V18.7148H10.0573V9.16992H12.5358V10.8398H12.6413C13.0807 9.73242 14.1003 9.04688 15.5065 9.04688C17.4929 9.04688 18.8112 10.4004 18.7936 12.6328V18.7148H16.2096V13.0898C16.2096 11.9121 15.5593 11.209 14.487 11.209C13.3971 11.209 12.6589 11.9297 12.6589 13.1953Z" fill="#030303"/>
</svg>
