<svg width="28" height="28" viewBox="0 0 28 28" fill="none" xmlns="http://www.w3.org/2000/svg">
<rect width="27.4286" height="27.4286" rx="3.42857" fill="#7A7A7A"/>
<path d="M7.5504 18.959V9.41406H10.152V18.959H7.5504ZM7.42735 6.84766C7.42735 6.10938 8.06895 5.52051 8.85118 5.51172C9.62462 5.52051 10.2662 6.10938 10.2574 6.84766C10.2662 7.56836 9.62462 8.16602 8.85118 8.16602C8.06895 8.16602 7.42735 7.56836 7.42735 6.84766ZM14.415 13.4395V18.959H11.8134V9.41406H14.292V11.084H14.3974C14.8281 9.98535 15.8476 9.29102 17.2627 9.29102C19.2578 9.29102 20.5586 10.6533 20.5498 12.877V18.959H17.9658V13.334C17.957 12.1562 17.3242 11.4531 16.2431 11.4531C15.1621 11.4531 14.415 12.1826 14.415 13.4395Z" fill="#F5F5F5"/>
</svg>
