<svg width="119" height="18" viewBox="0 0 119 18" fill="none" xmlns="http://www.w3.org/2000/svg">
<path d="M7.89641 12.6458C8.0601 13.0526 8.00816 13.5737 7.92823 13.8895C7.78851 14.4503 7.40517 15.0228 6.27109 15.0228C5.20887 15.0228 4.5619 14.4147 4.5619 13.4987V11.8248H0V13.1199C0 16.8708 2.94463 18.0039 6.10216 18.0039C9.13738 18.0039 11.6366 16.9694 12.0347 14.1622C12.2397 12.7093 12.09 11.7577 12.019 11.4063C11.3094 7.88449 4.93925 6.83427 4.46223 4.86405C4.39613 4.57353 4.39078 4.27239 4.44651 3.97969C4.56481 3.43878 4.93129 2.85049 5.97994 2.85049C6.96541 2.85049 7.53704 3.45853 7.53704 4.37448V5.54975H11.9005V4.27548C11.9005 0.611559 8.57398 0.0390625 6.16992 0.0390625C3.14294 0.0390625 0.67102 1.03005 0.219743 3.77416C0.099951 4.52426 0.080017 5.19548 0.259704 6.04045C0.998481 9.47542 7.04056 10.4704 7.91906 12.6459" fill="black" fill-opacity="0.3"/>
<path d="M18.2982 0.644574L15.1719 17.3091H19.7006L22.0342 2.01334H22.1302L24.3998 17.3091H28.9045L25.7979 0.640625L18.2982 0.644574ZM43.9438 0.640625L41.8651 13.3871H41.7661L39.6913 0.640625H32.7371L32.3606 17.5052H36.7066L36.8116 2.20937H36.9086L39.7813 17.5051H43.8516L46.729 2.20947H46.8219L46.93 17.5052H51.1943L50.818 0.640625H43.9438Z" fill="black" fill-opacity="0.3"/>
<path d="M63.2244 12.6069C63.3882 13.0135 63.3363 13.5347 63.2564 13.8505C63.1166 14.4111 62.7333 14.9836 61.5991 14.9836C60.5369 14.9836 59.89 14.3756 59.89 13.4596V11.8174H55.3281V13.1124C55.3281 16.8633 58.2727 17.9964 61.4303 17.9964C64.4655 17.9964 66.9647 16.9619 67.3629 14.1547C67.5678 12.7018 67.4181 11.7502 67.3471 11.3989C66.6376 7.87702 60.2673 6.8268 59.7904 4.85658C59.7243 4.56606 59.7189 4.26492 59.7746 3.97221C59.8929 3.43131 60.2594 2.84302 61.3081 2.84302C62.2935 2.84302 62.8651 3.45096 62.8651 4.36701V5.34605H67.2287V4.2366C67.2287 0.572496 63.9021 0 61.498 0C58.471 0 55.999 0.990985 55.5478 3.73509C55.428 4.4852 55.408 5.15641 55.5877 6.00138C56.3265 9.43636 62.3686 10.4313 63.2471 12.6069" fill="black" fill-opacity="0.3"/>
<path d="M77.4618 14.8641C78.6438 14.8641 79.0073 14.0587 79.0912 13.6481C79.1271 13.4664 79.131 13.2217 79.131 13.0045V0.638621H83.4946V12.6926C83.4954 13.0617 83.4822 13.4302 83.4548 13.7982C83.1566 16.937 80.6596 17.9557 77.5463 17.9557C74.429 17.9557 71.932 16.937 71.6339 13.7982C71.6219 13.6324 71.5902 13.0006 71.5941 12.6926V0.638621H75.9576V13.0005C75.9537 13.2217 75.9616 13.4664 75.9975 13.6481C76.0774 14.0587 76.4448 14.8641 77.6308 14.8641M98.3702 0.638621L98.6026 13.7773H98.5105L94.5845 0.638621H88.2548V17.3071H92.42L92.1892 3.58008H92.2808L96.4619 17.3071H102.535V0.638621H98.3702ZM113.056 14.6904C114.286 14.6904 114.717 13.9205 114.793 13.4664C114.829 13.2809 114.833 13.044 114.833 12.8347V10.2475H113.048V7.89425H118.998V12.4032C118.998 12.7191 118.99 12.9481 118.938 13.5087C118.658 16.5726 115.967 17.6663 112.948 17.6663C109.93 17.6663 107.243 16.5726 106.959 13.5086C106.911 12.9481 106.899 12.719 106.899 12.4032V5.3725C106.899 5.07239 106.939 4.54333 106.971 4.267C107.352 1.1202 109.938 0.109375 112.964 0.109375C115.991 0.109375 118.645 1.1123 118.958 4.26305C119.014 4.79991 118.998 5.36855 118.998 5.36855V5.93315H114.833V4.98955C114.833 4.98955 114.833 4.59466 114.78 4.34993C114.699 3.97873 114.375 3.12596 113.054 3.12596C111.797 3.12596 111.429 3.93529 111.335 4.34993C111.283 4.57097 111.262 4.87109 111.262 5.14347V12.8307C111.262 13.044 111.27 13.2808 111.302 13.4704C111.382 13.9205 111.814 14.6904 113.044 14.6904" fill="black" fill-opacity="0.3"/>
</svg>
