<svg width="241" height="44" viewBox="0 0 241 44" fill="none" xmlns="http://www.w3.org/2000/svg">
<path d="M23.9655 8.90827V35H19.2805L7.82031 18.4224H7.60408V35H2.19834V8.90827H6.95539L18.3435 25.4859H18.5958V8.90827H23.9655ZM32.7228 35H26.8846L35.9302 8.90827H42.8856L51.8952 35H46.093L44.1469 28.9816H34.7049L32.7228 35ZM36.0743 24.7651H42.7775L39.498 14.7825H39.3178L36.0743 24.7651ZM54.8503 35V8.90827H65.0852C71.0315 8.90827 74.4191 12.2598 74.4191 17.4133C74.4191 20.9811 72.7794 23.5759 69.8062 24.8372L75.3561 35H69.3737L64.4005 25.7382H60.256V35H54.8503ZM60.256 21.3415H64.0761C67.2835 21.3415 68.8332 20.0081 68.8332 17.4133C68.8332 14.7825 67.2835 13.341 64.0761 13.341H60.256V21.3415ZM99.9342 8.90827V35H95.2492L83.7891 18.4224H83.5728V35H78.1671V8.90827H82.9241L94.3122 25.4859H94.5645V8.90827H99.9342ZM109.737 8.90827V35H104.331V8.90827H109.737ZM118.494 35H112.656L121.701 8.90827H128.657L137.666 35H131.864L129.918 28.9816H120.476L118.494 35ZM121.846 24.7651H128.549L125.269 14.7825H125.089L121.846 24.7651ZM149.127 35V8.90827H154.532V30.5313H165.776V35H149.127ZM174.317 35H168.479L177.525 8.90827H184.48L193.49 35H187.687L185.741 28.9816H176.299L174.317 35ZM177.669 24.7651H184.372L181.092 14.7825H180.912L177.669 24.7651ZM196.445 35V8.90827H206.824C212.59 8.90827 215.473 11.6832 215.473 15.6114C215.473 18.6746 213.491 20.5847 210.788 21.1973V21.4496C213.743 21.5938 216.518 23.9362 216.518 27.7923C216.518 31.9367 213.419 35 207.509 35H196.445ZM206.427 30.5313C209.563 30.5313 210.896 29.2339 210.896 27.2878C210.896 25.0895 209.238 23.5398 206.572 23.5398H201.851V30.5313H206.427ZM206.031 19.8279C208.301 19.8279 209.995 18.5665 209.995 16.4763C209.995 14.6023 208.626 13.3049 206.139 13.3049H201.851V19.8279H206.031ZM234.105 16.3682C233.889 14.314 232.231 13.0887 229.6 13.0887C226.861 13.0887 225.348 14.3501 225.311 16.0799C225.275 17.9539 227.258 18.8188 229.492 19.3233L231.834 19.8999C236.303 20.909 239.655 23.1794 239.655 27.5401C239.655 32.3332 235.907 35.3604 229.564 35.3604C223.257 35.3604 219.221 32.4413 219.077 26.8553H224.338C224.519 29.4861 226.609 30.8196 229.492 30.8196C232.339 30.8196 234.177 29.4861 234.177 27.5401C234.177 25.7742 232.555 24.9453 229.708 24.2245L226.861 23.5398C222.464 22.4587 219.762 20.2603 219.762 16.4403C219.762 11.6832 223.942 8.54788 229.636 8.54788C235.402 8.54788 239.222 11.7553 239.294 16.3682H234.105Z" fill="white"/>
</svg>
