<svg width="168" height="19" viewBox="0 0 168 19" fill="none" xmlns="http://www.w3.org/2000/svg">
<path d="M15.3395 0.234578V18.6426H12.0115L3.95145 6.94258H3.79545V18.6426H-0.000546813V0.234578H3.32745L11.3875 11.9346H11.5435V0.234578H15.3395ZM21.5264 18.6426H17.4184L23.7624 0.234578H28.7024L35.0464 18.6426H30.9384L29.5604 14.4306H22.9044L21.5264 18.6426ZM23.8664 11.4146H28.5984L26.3104 4.39458H26.1544L23.8664 11.4146ZM37.1205 18.6426V0.234578H44.2965C48.5085 0.260578 50.9005 2.60058 50.9005 6.26658C50.9005 8.76258 49.7565 10.5826 47.6505 11.4926L51.5765 18.6426H47.3125L43.8025 12.0906H40.9165V18.6426H37.1205ZM40.9165 9.02258H43.6205C45.8825 9.02258 46.9745 8.08658 46.9485 6.26658C46.9745 4.39458 45.8825 3.38058 43.6205 3.40658H40.9165V9.02258ZM68.8883 0.234578V18.6426H65.5603L57.5003 6.94258H57.3443V18.6426H53.5483V0.234578H56.8763L64.9363 11.9346H65.0923V0.234578H68.8883ZM75.8033 0.234578V18.6426H72.0073V0.234578H75.8033ZM81.9815 18.6426H77.8735L84.2175 0.234578H89.1575L95.5015 18.6426H91.3935L90.0155 14.4306H83.3595L81.9815 18.6426ZM84.3215 11.4146H89.0535L86.7655 4.39458H86.6095L84.3215 11.4146ZM103.568 18.6426V0.234578H107.364V15.4706H115.268V18.6426H103.568ZM121.312 18.6426H117.204L123.548 0.234578H128.488L134.832 18.6426H130.724L129.346 14.4306H122.69L121.312 18.6426ZM123.652 11.4146H128.384L126.096 4.39458H125.94L123.652 11.4146ZM136.906 18.6426V0.234578H144.238C148.268 0.260578 150.296 2.21058 150.322 4.96658C150.296 7.15058 148.892 8.50258 146.994 8.91858V9.12658C149.074 9.20458 151.024 10.8426 151.05 13.5986C151.024 16.4846 148.84 18.6426 144.706 18.6426H136.906ZM140.702 15.5226H143.926C146.136 15.4966 147.098 14.5866 147.098 13.1826C147.098 11.6486 145.902 10.5566 144.03 10.5826H140.702V15.5226ZM140.702 7.98258H143.666C145.252 7.95658 146.448 7.07258 146.474 5.59058C146.448 4.26458 145.46 3.35458 143.718 3.35458H140.702V7.98258ZM163.367 5.53858C163.263 4.05658 162.093 3.19858 160.247 3.19858C158.297 3.19858 157.231 4.08258 157.231 5.27858C157.179 6.65658 158.557 7.25458 160.143 7.61858L161.807 8.03458C164.953 8.71058 167.293 10.3226 167.319 13.3906C167.293 16.7446 164.667 18.9026 160.195 18.9026C155.749 18.9026 152.915 16.8486 152.811 12.9226H156.503C156.659 14.7686 158.115 15.6786 160.143 15.6786C162.145 15.6786 163.445 14.7686 163.471 13.3906C163.445 12.1426 162.327 11.5446 160.299 11.0506L158.323 10.5826C155.203 9.80258 153.305 8.26858 153.279 5.53858C153.279 2.23658 156.243 0.000577927 160.247 0.0265776C164.329 0.000577927 167.007 2.26258 167.059 5.53858H163.367Z" fill="black"/>
</svg>
