<svg width="11" height="11" viewBox="0 0 11 11" fill="none" xmlns="http://www.w3.org/2000/svg">
<path d="M1.07183 10.5333C0.771722 10.5333 0.518055 10.4297 0.310833 10.2225C0.103611 10.0153 0 9.76161 0 9.4615V1.07183C0 0.771722 0.103611 0.518056 0.310833 0.310834C0.518055 0.103612 0.771722 0 1.07183 0H5.01017V0.866667H1.07183C1.0205 0.866667 0.9735 0.888055 0.930833 0.930833C0.888056 0.9735 0.866667 1.0205 0.866667 1.07183V9.4615C0.866667 9.51283 0.888056 9.55983 0.930833 9.6025C0.9735 9.64528 1.0205 9.66667 1.07183 9.66667H9.4615C9.51283 9.66667 9.55983 9.64528 9.6025 9.6025C9.64528 9.55983 9.66667 9.51283 9.66667 9.4615V5.52317H10.5333V9.4615C10.5333 9.76161 10.4297 10.0153 10.2225 10.2225C10.0153 10.4297 9.76161 10.5333 9.4615 10.5333H1.07183ZM3.7295 7.423L3.11033 6.80383L9.0475 0.866667H6.86667V0H10.5333V3.66667H9.66667V1.48583L3.7295 7.423Z" fill="white"/>
</svg>
