<svg width="20" height="20" viewBox="0 0 20 20" fill="none" xmlns="http://www.w3.org/2000/svg">
<path d="M9.16233 15.164V3.23767L5.61367 6.77767L4.42067 5.57933L10 0L15.5793 5.57933L14.3863 6.77767L10.8377 3.23767V15.164H9.16233ZM2.08567 20C1.51256 20 1.02167 19.7957 0.613 19.387C0.204333 18.9783 0 18.4874 0 17.9143V13.9247H1.67533V17.9143C1.67533 18.017 1.718 18.1111 1.80333 18.1967C1.88889 18.282 1.983 18.3247 2.08567 18.3247H17.9143C18.017 18.3247 18.1111 18.282 18.1967 18.1967C18.282 18.1111 18.3247 18.017 18.3247 17.9143V13.9247H20V17.9143C20 18.4874 19.7957 18.9783 19.387 19.387C18.9783 19.7957 18.4874 20 17.9143 20H2.08567Z" fill="#7A7A7A"/>
</svg>
